time,note,velocity,duration
2840,77,100,80
2840,81,110,1420
2840,89,110,1420
2840,89,110,1420
2840,81,110,1420
2840,89,100,80
2960,86,100,80
2960,74,100,80
3080,81,100,80
3080,69,100,80
3200,77,100,80
3200,89,100,80
3320,86,100,80
3320,74,100,80
3440,69,100,80
3440,81,100,80
3560,77,100,80
3560,89,100,80
3680,86,100,80
3680,74,100,80
3800,81,100,80
3800,69,100,80
3920,89,100,80
3920,77,100,80
4040,74,100,80
4040,86,100,80
4160,69,100,80
4160,81,100,80
4280,76,110,230
4280,79,110,230
4280,76,110,230
4280,88,100,120
4280,79,110,230
4280,79,80,120
4280,76,100,120
4280,72,80,120
4280,67,80,120
4280,84,80,120
4600,79,110,230
4600,76,110,230
4600,79,110,230
4600,76,110,230
4600,88,100,120
4600,84,80,120
4600,76,100,120
4600,72,80,120
4600,67,80,120
4600,79,80,120
4920,79,110,230
4920,76,110,230
4920,79,110,230
4920,76,110,230
4920,88,100,180
4920,79,100,180
4920,76,100,180
4920,72,80,180
4920,67,100,180
4920,84,80,180
5240,77,100,80
5240,89,100,80
5240,76,91,120
5240,76,91,120
5360,76,91,120
5360,76,91,120
5360,74,100,80
5360,86,100,80
5480,77,91,120
5480,69,100,80
5480,81,100,80
5480,77,91,120
5600,79,91,120
5600,79,91,120
5600,77,100,80
5600,89,100,80
5720,74,100,80
5720,86,100,80
5720,84,91,120
5720,84,91,120
5840,69,100,80
5840,81,100,80
5840,81,91,120
5840,81,91,120
5960,89,91,120
5960,89,91,120
5960,77,100,80
5960,89,100,80
6080,74,100,80
6080,86,100,80
6080,88,91,120
6080,88,91,120
6200,79,91,120
6200,79,91,120
6200,81,100,80
6200,69,100,80
6320,77,100,80
6320,89,100,80
6320,86,91,120
6320,86,91,120
6440,77,91,120
6440,77,91,120
6440,74,100,80
6440,86,100,80
6560,69,100,80
6560,81,100,80
6560,84,91,120
6560,84,91,120
6680,79,91,120
6680,91,100,120
6680,88,80,120
6680,82,80,120
6680,79,91,120
6680,76,80,120
6680,70,80,120
6680,79,100,120
6800,82,91,50
6800,82,91,50
6860,86,91,50
6860,86,91,50
6920,89,91,50
6920,89,91,50
6980,88,91,50
6980,88,91,50
7000,88,80,120
7000,82,80,120
7000,79,100,120
7000,91,100,120
7000,70,80,120
7000,76,80,120
7040,84,91,50
7040,84,91,50
7100,81,91,50
7100,81,91,50
7160,79,91,50
7160,79,91,50
7220,81,91,50
7220,81,91,50
7280,77,91,50
7280,77,91,50
7320,70,100,180
7320,76,80,180
7320,79,100,180
7320,82,100,180
7320,88,80,180
7320,91,100,180
7340,76,91,50
7340,76,91,50
7400,72,91,50
7400,72,91,50
7460,74,91,50
7460,74,91,50
7520,70,91,50
7520,70,91,50
7580,69,91,50
7580,69,91,50
7640,69,110,1420
7640,77,110,1420
7640,77,110,1420
7640,69,110,1420
7640,89,100,80
7640,77,100,80
7760,74,100,80
7760,86,100,80
7880,69,100,80
7880,81,100,80
8000,77,100,80
8000,89,100,80
8120,74,100,80
8120,86,100,80
8240,69,100,80
8240,81,100,80
8360,89,100,80
8360,77,100,80
8480,86,100,80
8480,74,100,80
8600,81,100,80
8600,69,100,80
8720,77,100,80
8720,89,100,80
8840,74,100,80
8840,86,100,80
8960,69,100,80
8960,81,100,80
9080,67,110,230
9080,76,110,230
9080,67,110,230
9080,76,110,230
9080,88,100,120
9080,76,100,120
9080,79,80,120
9080,84,80,120
9080,72,80,120
9080,67,80,120
9400,76,110,230
9400,67,110,230
9400,76,110,230
9400,67,110,230
9400,88,100,120
9400,79,80,120
9400,76,100,120
9400,72,80,120
9400,67,80,120
9400,84,80,120
9720,67,110,230
9720,67,110,230
9720,76,110,230
9720,76,110,230
9720,88,100,180
9720,76,100,180
9720,79,100,180
9720,72,80,180
9720,67,100,180
9720,84,80,180
10040,77,100,80
10040,77,100,80
10040,89,100,80
10040,77,100,80
10160,74,100,80
10160,74,100,80
10160,74,100,80
10160,86,100,80
10280,69,100,80
10280,81,100,80
10280,69,100,80
10280,69,100,80
10400,77,100,80
10400,77,100,80
10400,89,100,80
10400,77,100,80
10520,74,100,80
10520,74,100,80
10520,86,100,80
10520,74,100,80
10640,69,100,80
10640,69,100,80
10640,81,100,80
10640,69,100,80
10760,89,100,80
10760,77,100,80
10760,77,100,80
10760,77,100,80
10880,74,100,80
10880,74,100,80
10880,86,100,80
10880,74,100,80
11000,81,100,80
11000,69,100,80
11000,69,100,80
11000,69,100,80
11120,77,100,80
11120,77,100,80
11120,89,100,80
11120,77,100,80
11240,74,100,80
11240,74,100,80
11240,86,100,80
11240,74,100,80
11360,69,100,80
11360,81,100,80
11360,69,100,80
11360,69,100,80
11480,79,100,120
11480,76,80,120
11480,70,80,120
11480,91,100,120
11480,82,80,120
11480,88,80,120
11480,76,80,120
11480,70,80,120
11480,79,100,120
11480,76,80,120
11480,70,80,120
11480,79,100,120
11800,88,80,120
11800,76,80,120
11800,79,100,120
11800,70,80,120
11800,91,100,120
11800,82,80,120
11800,76,80,120
11800,76,80,120
11800,70,80,120
11800,79,100,120
11800,70,80,120
11800,79,100,120
12120,82,100,180
12120,70,100,180
12120,91,100,180
12120,88,80,180
12120,79,100,180
12120,76,80,180
12120,70,100,180
12120,79,100,180
12120,76,80,180
12120,70,100,180
12120,76,80,180
12120,79,100,180
12440,82,110,1420
12440,89,110,1420
12440,82,110,1420
12440,89,110,1420
12440,89,100,80
12440,77,100,80
12560,86,100,80
12560,74,100,80
12680,69,100,80
12680,81,100,80
12800,89,100,80
12800,77,100,80
12920,86,100,80
12920,74,100,80
13040,69,100,80
13040,81,100,80
13160,77,100,80
13160,89,100,80
13280,74,100,80
13280,86,100,80
13400,69,100,80
13400,81,100,80
13520,89,100,80
13520,77,100,80
13640,74,100,80
13640,86,100,80
13760,69,100,80
13760,81,100,80
13880,67,80,120
13880,72,80,120
13880,76,100,120
13880,79,80,120
13880,84,80,120
13880,88,100,120
13880,76,110,230
13880,79,110,230
13880,76,110,230
13880,79,110,230
14200,76,110,230
14200,76,110,230
14200,79,110,230
14200,88,100,120
14200,79,110,230
14200,79,80,120
14200,67,80,120
14200,84,80,120
14200,76,100,120
14200,72,80,120
14520,79,110,230
14520,76,110,230
14520,88,100,180
14520,84,80,180
14520,76,110,230
14520,76,100,180
14520,72,80,180
14520,67,100,180
14520,79,100,180
14520,79,110,230
14840,77,100,80
14840,89,100,80
14840,76,91,120
14840,76,91,120
14960,74,100,80
14960,86,100,80
14960,76,91,120
14960,76,91,120
15080,77,91,120
15080,77,91,120
15080,81,100,80
15080,69,100,80
15200,77,100,80
15200,89,100,80
15200,79,91,120
15200,79,91,120
15320,74,100,80
15320,86,100,80
15320,84,91,120
15320,84,91,120
15440,81,91,120
15440,81,91,120
15440,81,100,80
15440,69,100,80
15560,77,100,80
15560,89,100,80
15560,89,91,120
15560,89,91,120
15680,74,100,80
15680,86,100,80
15680,88,91,120
15680,88,91,120
15800,79,91,120
15800,79,91,120
15800,69,100,80
15800,81,100,80
15920,77,100,80
15920,89,100,80
15920,86,91,120
15920,86,91,120
16040,77,91,120
16040,77,91,120
16040,74,100,80
16040,86,100,80
16160,69,100,80
16160,81,100,80
16160,84,91,120
16160,84,91,120
16280,82,80,120
16280,91,100,120
16280,88,80,120
16280,79,91,120
16280,79,91,120
16280,76,80,120
16280,70,80,120
16280,79,100,120
16400,82,91,50
16400,82,91,50
16460,86,91,50
16460,86,91,50
16520,89,91,50
16520,89,91,50
16580,88,91,50
16580,88,91,50
16600,91,100,120
16600,88,80,120
16600,82,80,120
16600,79,100,120
16600,70,80,120
16600,76,80,120
16640,84,91,50
16640,84,91,50
16700,81,91,50
16700,81,91,50
16760,79,91,50
16760,79,91,50
16820,81,91,50
16820,81,91,50
16880,77,91,50
16880,77,91,50
16920,82,100,180
16920,91,100,180
16920,88,80,180
16920,76,80,180
16920,79,100,180
16920,70,100,180
16940,76,91,50
16940,76,91,50
17000,72,91,50
17000,72,91,50
17060,74,91,50
17060,74,91,50
17120,70,91,50
17120,70,91,50
17180,69,91,50
17180,69,91,50
17240,77,110,1420
17240,69,110,1420
17240,77,110,1420
17240,69,110,1420
17240,77,100,80
17240,89,100,80
17360,74,100,80
17360,86,100,80
17480,81,100,80
17480,69,100,80
17600,77,100,80
17600,89,100,80
17720,74,100,80
17720,86,100,80
17840,69,100,80
17840,81,100,80
17960,77,100,80
17960,89,100,80
18080,74,100,80
18080,86,100,80
18200,69,100,80
18200,81,100,80
18320,77,100,80
18320,89,100,80
18440,86,100,80
18440,74,100,80
18560,69,100,80
18560,81,100,80
18680,76,110,230
18680,67,110,230
18680,76,110,230
18680,67,110,230
18680,88,100,120
18680,79,80,120
18680,76,100,120
18680,72,80,120
18680,67,80,120
18680,84,80,120
19000,67,110,230
19000,76,110,230
19000,67,110,230
19000,88,100,120
19000,76,110,230
19000,79,80,120
19000,76,100,120
19000,72,80,120
19000,67,80,120
19000,84,80,120
19320,76,110,230
19320,67,110,230
19320,76,110,230
19320,88,100,180
19320,67,110,230
19320,79,100,180
19320,76,100,180
19320,72,80,180
19320,67,100,180
19320,84,80,180
19640,77,100,80
19640,77,100,80
19640,89,100,80
19640,77,100,80
19760,74,100,80
19760,74,100,80
19760,74,100,80
19760,86,100,80
19880,69,100,80
19880,81,100,80
19880,69,100,80
19880,69,100,80
20000,77,100,80
20000,77,100,80
20000,89,100,80
20000,77,100,80
20120,74,100,80
20120,86,100,80
20120,74,100,80
20120,74,100,80
20240,69,100,80
20240,69,100,80
20240,81,100,80
20240,69,100,80
20360,89,100,80
20360,77,100,80
20360,77,100,80
20360,77,100,80
20480,74,100,80
20480,86,100,80
20480,74,100,80
20480,74,100,80
20600,69,100,80
20600,69,100,80
20600,81,100,80
20600,69,100,80
20720,77,100,80
20720,77,100,80
20720,89,100,80
20720,77,100,80
20840,74,100,80
20840,86,100,80
20840,74,100,80
20840,74,100,80
20960,69,100,80
20960,69,100,80
20960,81,100,80
20960,69,100,80
21080,79,100,120
21080,91,100,120
21080,88,80,120
21080,76,80,120
21080,70,80,120
21080,82,80,120
21080,70,80,120
21080,76,80,120
21080,79,100,120
21080,76,80,120
21080,70,80,120
21080,79,100,120
21400,76,80,120
21400,70,80,120
21400,91,100,120
21400,88,80,120
21400,82,80,120
21400,79,100,120
21400,76,80,120
21400,70,80,120
21400,79,100,120
21400,76,80,120
21400,70,80,120
21400,79,100,120
21720,79,100,180
21720,76,80,180
21720,70,100,180
21720,91,100,180
21720,88,80,180
21720,82,100,180
21720,79,100,180
21720,70,100,180
21720,79,100,180
21720,76,80,180
21720,70,100,180
21720,76,80,180
22040,57,100,920
22040,57,100,920
22040,65,100,920
22040,65,100,920
22040,50,100,920
22040,50,100,920
22040,81,120,240
22040,69,120,240
22040,81,120,240
22040,69,120,240
22520,65,120,240
22520,77,120,240
22520,65,120,240
22520,77,120,240
23000,64,100,920
23000,49,100,920
23000,56,100,920
23000,64,100,920
23000,68,120,240
23000,68,120,240
23000,80,120,240
23000,49,100,920
23000,80,120,240
23000,56,100,920
23480,76,120,240
23480,64,120,240
23480,64,120,240
23480,76,120,240
23960,59,100,920
23960,68,100,920
23960,59,100,920
23960,52,100,920
23960,68,100,920
23960,52,100,920
23960,71,120,240
23960,83,120,240
23960,71,120,240
23960,83,120,240
24440,80,120,240
24440,80,120,240
24440,68,120,240
24440,68,120,240
24920,67,100,920
24920,51,100,920
24920,58,100,920
24920,67,100,920
24920,79,120,240
24920,67,120,240
24920,67,120,240
24920,51,100,920
24920,79,120,240
24920,58,100,920
25400,82,120,240
25400,70,120,240
25400,82,120,240
25400,70,120,240
25880,65,100,920
25880,57,100,920
25880,50,100,920
25880,65,100,920
25880,57,100,920
25880,50,100,920
25880,81,120,240
25880,69,120,240
25880,81,120,240
25880,69,120,240
26360,65,120,240
26360,77,120,240
26360,65,120,240
26360,77,120,240
26840,56,100,920
26840,64,100,920
26840,56,100,920
26840,49,100,920
26840,64,100,920
26840,49,100,920
26840,68,120,240
26840,80,120,240
26840,68,120,240
26840,80,120,240
27320,76,120,240
27320,76,120,240
27320,64,120,240
27320,64,120,240
27800,59,100,920
27800,68,100,920
27800,59,100,920
27800,52,100,920
27800,52,100,920
27800,68,100,920
27800,83,120,240
27800,71,120,240
27800,83,120,240
27800,71,120,240
28280,68,120,240
28280,80,120,240
28280,68,120,240
28280,80,120,240
28760,67,100,920
28760,58,100,920
28760,51,100,920
28760,79,120,920
28760,67,120,920
28760,67,120,920
28760,67,100,920
28760,58,100,920
28760,51,100,920
28760,79,120,920
29720,65,100,920
29720,57,100,920
29720,50,100,920
29720,65,100,920
29720,57,100,920
29720,50,100,920
29720,69,120,240
29720,81,120,240
29720,69,120,240
29720,81,120,240
29720,69,120,240
29720,81,120,240
29960,81,100,120
29960,89,100,120
30200,65,120,240
30200,77,120,240
30200,65,120,240
30200,77,120,240
30200,65,120,240
30200,77,120,240
30440,81,100,120
30440,89,100,120
30680,56,100,920
30680,64,100,920
30680,56,100,920
30680,49,100,920
30680,64,100,920
30680,49,100,920
30680,68,120,240
30680,80,120,240
30680,68,120,240
30680,68,120,240
30680,80,120,240
30680,80,120,240
30920,80,100,120
30920,88,100,120
31160,64,120,240
31160,76,120,240
31160,64,120,240
31160,76,120,240
31160,64,120,240
31160,76,120,240
31400,80,100,120
31400,88,100,120
31640,68,100,920
31640,52,100,920
31640,59,100,920
31640,68,100,920
31640,83,120,240
31640,83,120,240
31640,83,120,240
31640,71,120,240
31640,71,120,240
31640,59,100,920
31640,71,120,240
31640,52,100,920
31880,83,100,120
31880,92,100,120
32120,80,120,240
32120,80,120,240
32120,68,120,240
32120,80,120,240
32120,68,120,240
32120,68,120,240
32360,83,100,120
32360,92,100,120
32600,58,100,920
32600,58,100,920
32600,51,100,920
32600,67,100,920
32600,67,100,920
32600,51,100,920
32600,67,120,240
32600,79,120,240
32600,67,120,240
32600,79,120,240
32600,79,120,240
32600,67,120,240
32840,82,100,120
32840,91,100,120
33080,70,120,240
33080,82,120,240
33080,70,120,240
33080,82,120,240
33080,70,120,240
33080,82,120,240
33320,82,100,120
33320,91,100,120
33560,65,100,920
33560,57,100,920
33560,50,100,920
33560,57,100,920
33560,81,120,240
33560,69,120,240
33560,81,120,240
33560,81,120,240
33560,69,120,240
33560,65,100,920
33560,69,120,240
33560,50,100,920
33800,81,100,120
33800,89,100,120
34040,65,120,240
34040,77,120,240
34040,65,120,240
34040,77,120,240
34040,65,120,240
34040,77,120,240
34280,89,100,120
34280,81,100,120
34520,64,100,920
34520,56,100,920
34520,49,100,920
34520,64,100,920
34520,49,100,920
34520,56,100,920
34520,80,120,240
34520,68,120,240
34520,80,120,240
34520,68,120,240
34520,80,120,240
34520,68,120,240
34760,80,100,120
34760,88,100,120
35000,76,120,240
35000,76,120,240
35000,64,120,240
35000,76,120,240
35000,64,120,240
35000,64,120,240
35240,80,100,120
35240,88,100,120
35480,68,100,920
35480,52,100,920
35480,59,100,920
35480,68,100,920
35480,83,120,240
35480,83,120,240
35480,95,120,240
35480,83,120,240
35480,71,120,240
35480,59,100,920
35480,71,120,240
35480,52,100,920
35720,83,100,120
35720,92,100,120
35960,80,120,240
35960,68,120,240
35960,92,120,240
35960,80,120,240
35960,80,120,240
35960,68,120,240
36200,92,100,120
36200,83,100,120
36440,67,100,920
36440,58,100,920
36440,51,100,920
36440,79,120,920
36440,67,120,920
36440,79,120,920
36440,79,120,920
36440,91,120,920
36440,67,100,920
36440,58,100,920
36440,51,100,920
36440,67,120,920
36680,91,100,120
36680,82,100,120
37160,91,100,120
37160,82,100,120
37400,86,120,240
37400,81,120,240
37400,69,120,240
37400,74,120,240
37880,77,120,240
37880,81,120,240
37880,89,120,240
37880,93,120,240
38360,88,120,240
38360,69,120,240
38360,76,120,240
38360,81,120,240
38840,89,120,240
38840,93,120,240
38840,77,120,240
38840,81,120,240
39320,74,120,240
39320,77,120,240
39320,86,120,240
39320,89,120,240
39800,76,120,230
39800,79,120,230
39800,88,120,230
39800,91,120,230
40040,93,120,230
40040,89,120,230
40040,77,120,230
40040,81,120,230
40280,91,120,240
40280,76,120,240
40280,79,120,240
40280,88,120,240
40760,95,120,240
40760,91,120,240
40760,83,120,240
40760,79,120,240
41240,81,120,230
41240,86,120,230
41240,93,120,230
41240,98,120,230
41480,89,120,230
41480,93,120,230
41480,77,120,230
41480,81,120,230
41720,84,120,230
41720,88,120,230
41720,96,120,230
41720,100,120,230
41960,86,120,120
41960,89,120,120
41960,98,120,120
41960,101,120,120
42200,96,120,230
42200,100,120,230
42200,88,120,230
42200,84,120,230
42440,86,120,120
42440,89,120,120
42440,98,120,120
42440,101,120,120
42560,84,120,120
42560,88,120,120
42560,96,120,120
42560,100,120,120
42680,98,120,230
42680,89,120,230
42680,77,120,230
42680,86,120,230
42920,77,120,120
42920,84,120,120
42920,89,120,120
42920,96,120,120
43160,89,120,230
43160,93,120,230
43160,81,120,230
43160,77,120,230
43400,81,120,180
43400,84,120,180
43400,93,120,180
43400,96,120,180
43640,76,120,230
43640,79,120,230
43640,88,120,230
43640,91,120,230
43880,93,120,180
43880,77,120,180
43880,81,120,180
43880,89,120,180
44120,86,120,920
44120,89,120,920
44120,74,120,920
44120,77,120,920
45080,86,120,240
45080,81,120,240
45080,74,120,240
45080,69,120,240
45560,77,120,240
45560,81,120,240
45560,89,120,240
45560,93,120,240
46040,81,120,240
46040,88,120,240
46040,69,120,240
46040,76,120,240
46520,77,120,240
46520,81,120,240
46520,89,120,240
46520,93,120,240
47000,74,120,240
47000,77,120,240
47000,86,120,240
47000,89,120,240
47480,91,120,230
47480,88,120,230
47480,79,120,230
47480,76,120,230
47720,77,120,230
47720,81,120,230
47720,89,120,230
47720,93,120,230
47960,76,120,240
47960,79,120,240
47960,88,120,240
47960,91,120,240
48440,95,120,240
48440,91,120,240
48440,79,120,240
48440,83,120,240
48920,81,120,230
48920,86,120,230
48920,93,120,230
48920,98,120,230
49160,93,120,230
49160,89,120,230
49160,81,120,230
49160,77,120,230
49400,84,120,230
49400,88,120,230
49400,96,120,230
49400,100,120,230
49640,98,120,120
49640,101,120,120
49640,86,120,120
49640,89,120,120
49880,84,120,230
49880,88,120,230
49880,96,120,230
49880,100,120,230
50120,101,120,120
50120,86,120,120
50120,89,120,120
50120,98,120,120
50240,100,120,120
50240,96,120,120
50240,84,120,120
50240,88,120,120
50360,77,120,230
50360,86,120,230
50360,89,120,230
50360,98,120,230
50600,96,120,120
50600,89,120,120
50600,77,120,120
50600,84,120,120
50840,81,120,1900
50840,86,120,1900
50840,93,120,1900
50840,98,120,1900
52760,81,120,240
52760,69,120,240
52760,74,120,240
52760,86,120,240
53240,93,120,240
53240,89,120,240
53240,81,120,240
53240,77,120,240
53720,69,120,240
53720,76,120,240
53720,81,120,240
53720,88,120,240
54200,77,120,240
54200,81,120,240
54200,89,120,240
54200,93,120,240
54680,89,120,240
54680,86,120,240
54680,74,120,240
54680,77,120,240
55160,76,120,230
55160,79,120,230
55160,88,120,230
55160,91,120,230
55400,93,120,230
55400,89,120,230
55400,81,120,230
55400,77,120,230
55640,76,120,240
55640,79,120,240
55640,88,120,240
55640,91,120,240
56120,91,120,240
56120,95,120,240
56120,79,120,240
56120,83,120,240
56600,81,120,230
56600,86,120,230
56600,93,120,230
56600,98,120,230
56840,93,120,230
56840,77,120,230
56840,81,120,230
56840,89,120,230
57080,100,120,230
57080,96,120,230
57080,88,120,230
57080,84,120,230
57320,86,120,120
57320,89,120,120
57320,98,120,120
57320,101,120,120
57560,96,120,230
57560,100,120,230
57560,84,120,230
57560,88,120,230
57800,86,120,120
57800,89,120,120
57800,98,120,120
57800,101,120,120
57920,84,120,120
57920,88,120,120
57920,96,120,120
57920,100,120,120
58040,98,120,230
58040,86,120,230
58040,77,120,230
58040,89,120,230
58280,77,120,120
58280,84,120,120
58280,89,120,120
58280,96,120,120
58520,93,120,230
58520,77,120,230
58520,81,120,230
58520,89,120,230
58760,81,120,180
58760,84,120,180
58760,93,120,180
58760,96,120,180
59000,79,120,230
59000,88,120,230
59000,76,120,230
59000,91,120,230
59240,93,120,180
59240,81,120,180
59240,77,120,180
59240,89,120,180
59480,74,120,920
59480,77,120,920
59480,86,120,920
59480,89,120,920
60440,69,120,240
60440,74,120,240
60440,81,120,240
60440,86,120,240
60920,93,120,240
60920,89,120,240
60920,77,120,240
60920,81,120,240
61400,69,120,240
61400,76,120,240
61400,81,120,240
61400,88,120,240
61880,93,120,240
61880,89,120,240
61880,81,120,240
61880,77,120,240
62360,74,120,240
62360,77,120,240
62360,86,120,240
62360,89,120,240
62840,88,120,230
62840,91,120,230
62840,76,120,230
62840,79,120,230
63080,77,120,230
63080,81,120,230
63080,89,120,230
63080,93,120,230
63320,91,120,240
63320,76,120,240
63320,79,120,240
63320,88,120,240
63800,95,120,240
63800,91,120,240
63800,83,120,240
63800,79,120,240
64280,81,120,230
64280,86,120,230
64280,93,120,230
64280,98,120,230
64520,89,120,230
64520,93,120,230
64520,77,120,230
64520,81,120,230
64760,84,120,230
64760,88,120,230
64760,96,120,230
64760,100,120,230
65000,86,120,120
65000,89,120,120
65000,98,120,120
65000,101,120,120
65240,96,120,230
65240,100,120,230
65240,88,120,230
65240,84,120,230
65480,86,120,120
65480,89,120,120
65480,98,120,120
65480,101,120,120
65600,84,120,120
65600,88,120,120
65600,96,120,120
65600,100,120,120
65720,98,120,230
65720,77,120,230
65720,86,120,230
65720,89,120,230
65960,89,120,120
65960,96,120,120
65960,77,120,120
65960,84,120,120
66200,98,120,1900
66200,93,120,1900
66200,86,120,1900
66200,81,120,1900
68120,98,100,230
68120,74,100,230
68120,86,100,230
68120,98,100,230
68280,93,102,230
68280,69,102,230
68280,81,102,230
68280,93,102,230
68440,91,104,230
68440,67,104,230
68440,79,104,230
68440,91,104,230
68600,86,105,230
68600,98,105,230
68600,98,105,230
68600,74,105,230
68760,93,107,230
68760,81,107,230
68760,93,107,230
68760,69,107,230
68920,91,109,230
68920,67,109,230
68920,79,109,230
68920,91,109,230
69080,98,111,230
69080,74,111,230
69080,86,111,230
69080,98,111,230
69240,81,113,230
69240,93,113,230
69240,69,113,230
69240,93,113,230
69400,91,115,230
69400,79,115,230
69400,67,115,230
69400,91,115,230
69560,98,116,230
69560,74,116,230
69560,86,116,230
69560,98,116,230
69720,93,118,230
69720,69,118,230
69720,81,118,230
69720,93,118,230
69880,91,120,230
69880,67,120,230
69880,79,120,230
69880,91,120,230
70040,86,100,230
70040,98,100,230
70040,98,100,230
70040,74,100,230
70200,93,102,230
70200,69,102,230
70200,81,102,230
70200,93,102,230
70360,79,104,230
70360,91,104,230
70360,91,104,230
70360,67,104,230
70520,98,105,230
70520,74,105,230
70520,86,105,230
70520,98,105,230
70680,93,107,230
70680,93,107,230
70680,69,107,230
70680,81,107,230
70840,79,109,230
70840,91,109,230
70840,91,109,230
70840,67,109,230
71000,74,111,230
71000,86,111,230
71000,98,111,230
71000,98,111,230
71160,93,113,230
71160,81,113,230
71160,93,113,230
71160,69,113,230
71320,91,115,230
71320,67,115,230
71320,79,115,230
71320,91,115,230
71480,86,116,230
71480,98,116,230
71480,98,116,230
71480,74,116,230
71640,93,118,230
71640,69,118,230
71640,81,118,230
71640,93,118,230
71800,91,120,230
71800,91,120,230
71800,67,120,230
71800,79,120,230
71960,97,120,230
71960,85,120,230
71960,97,120,230
71960,73,120,230
72120,93,120,230
72120,69,120,230
72120,81,120,230
72120,93,120,230
72280,90,120,230
72280,78,120,230
72280,90,120,230
72280,66,120,230
72440,97,120,230
72440,73,120,230
72440,85,120,230
72440,97,120,230
72600,81,120,230
72600,93,120,230
72600,69,120,230
72600,93,120,230
72760,90,120,230
72760,78,120,230
72760,66,120,230
72760,90,120,230
72920,97,120,230
72920,73,120,230
72920,85,120,230
72920,97,120,230
73080,93,120,230
73080,69,120,230
73080,81,120,230
73080,93,120,230
73240,90,120,230
73240,78,120,230
73240,90,120,230
73240,66,120,230
73400,97,120,230
73400,73,120,230
73400,85,120,230
73400,97,120,230
73560,93,120,230
73560,81,120,230
73560,69,120,230
73560,93,120,230
73720,90,120,230
73720,66,120,230
73720,78,120,230
73720,90,120,230
73880,85,120,230
73880,97,120,230
73880,97,120,230
73880,73,120,230
74040,93,120,230
74040,69,120,230
74040,81,120,230
74040,93,120,230
74200,90,120,230
74200,90,120,230
74200,66,120,230
74200,78,120,230
74360,97,120,230
74360,85,120,230
74360,73,120,230
74360,97,120,230
74520,93,120,230
74520,69,120,230
74520,81,120,230
74520,93,120,230
74680,78,120,230
74680,90,120,230
74680,90,120,230
74680,66,120,230
74840,97,120,230
74840,73,120,230
74840,85,120,230
74840,97,120,230
75000,93,120,230
75000,69,120,230
75000,81,120,230
75000,93,120,230
75160,90,120,230
75160,78,120,230
75160,66,120,230
75160,90,120,230
75320,97,120,230
75320,73,120,230
75320,85,120,230
75320,97,120,230
75480,93,120,230
75480,69,120,230
75480,81,120,230
75480,93,120,230
75640,90,120,230
75640,78,120,230
75640,90,120,230
75640,66,120,230
75800,97,120,230
75800,73,120,230
75800,85,120,230
75800,97,120,230
75960,81,120,230
75960,93,120,230
75960,69,120,230
75960,93,120,230
76120,90,120,230
76120,66,120,230
76120,78,120,230
76120,90,120,230
76280,97,120,230
76280,73,120,230
76280,85,120,230
76280,97,120,230
76440,93,120,230
76440,69,120,230
76440,81,120,230
76440,93,120,230
76600,90,120,230
76600,78,120,230
76600,66,120,230
76600,90,120,230
76760,95,120,230
76760,71,120,230
76760,83,120,230
76760,95,120,230
76920,92,120,230
76920,68,120,230
76920,80,120,230
76920,92,120,230
77080,88,120,230
77080,64,120,230
77080,76,120,230
77080,88,120,230
77240,83,120,230
77240,95,120,230
77240,95,120,230
77240,71,120,230
77400,80,120,230
77400,92,120,230
77400,92,120,230
77400,68,120,230
77560,88,120,230
77560,76,120,230
77560,64,120,230
77560,88,120,230
77720,93,120,230
77720,69,120,230
77720,81,120,230
77720,93,120,230
77880,78,120,230
77880,90,120,230
77880,90,120,230
77880,66,120,230
78040,85,120,230
78040,61,120,230
78040,73,120,230
78040,85,120,230
78200,92,120,230
78200,68,120,230
78200,80,120,230
78200,92,120,230
78360,93,120,230
78360,81,120,230
78360,93,120,230
78360,69,120,230
78520,95,120,230
78520,71,120,230
78520,83,120,230
78520,95,120,230
78680,90,120,680
78680,85,70,680
78680,90,120,680
78680,61,70,680
78680,66,120,680
78680,73,70,680
78680,78,120,680
78680,85,70,680
79400,73,120,120
79400,85,120,120
79400,85,120,120
79400,61,120,120
79520,88,120,120
79520,76,120,120
79520,88,120,120
79520,64,120,120
79640,90,120,230
79640,66,120,230
79640,78,120,230
79640,90,120,230
79800,85,120,230
79800,61,120,230
79800,73,120,230
79800,85,120,230
79960,81,120,230
79960,57,120,230
79960,69,120,230
79960,81,120,230
80120,90,120,230
80120,78,120,230
80120,66,120,230
80120,90,120,230
80280,85,120,230
80280,61,120,230
80280,73,120,230
80280,85,120,230
80440,81,120,230
80440,57,120,230
80440,69,120,230
80440,81,120,230
80600,92,120,230
80600,68,120,230
80600,80,120,230
80600,92,120,230
80760,64,120,230
80760,76,120,230
80760,88,120,230
80760,88,120,230
80920,83,120,230
80920,71,120,230
80920,59,120,230
80920,83,120,230
81080,92,120,230
81080,68,120,230
81080,80,120,230
81080,92,120,230
81240,88,120,230
81240,64,120,230
81240,76,120,230
81240,88,120,230
81400,83,120,230
81400,59,120,230
81400,71,120,230
81400,83,120,230
81560,80,120,230
81560,92,120,230
81560,92,120,230
81560,68,120,230
81720,89,120,230
81720,65,120,230
81720,77,120,230
81720,89,120,230
81880,71,120,230
81880,83,120,230
81880,83,120,230
81880,59,120,230
82040,92,120,230
82040,68,120,230
82040,80,120,230
82040,92,120,230
82200,93,120,230
82200,93,120,230
82200,69,120,230
82200,81,120,230
82360,83,120,230
82360,95,120,230
82360,95,120,230
82360,71,120,230
82520,93,70,920
82520,93,70,920
82520,85,120,920
82520,81,70,920
82520,97,120,920
82520,69,70,920
82520,97,120,920
82520,73,120,920
83480,73,120,230
83480,85,120,230
83480,97,120,230
83480,97,120,230
83640,93,120,230
83640,69,120,230
83640,81,120,230
83640,93,120,230
83800,78,120,230
83800,90,120,230
83800,66,120,230
83800,90,120,230
83960,97,120,230
83960,73,120,230
83960,85,120,230
83960,97,120,230
84120,93,120,230
84120,93,120,230
84120,69,120,230
84120,81,120,230
84280,90,120,230
84280,66,120,230
84280,78,120,230
84280,90,120,230
84440,83,120,230
84440,95,120,230
84440,95,120,230
84440,71,120,230
84600,80,120,230
84600,92,120,230
84600,92,120,230
84600,68,120,230
84760,64,120,230
84760,76,120,230
84760,88,120,230
84760,88,120,230
84920,83,120,230
84920,95,120,230
84920,95,120,230
84920,71,120,230
85080,92,120,230
85080,68,120,230
85080,80,120,230
85080,92,120,230
85240,76,120,230
85240,88,120,230
85240,88,120,230
85240,64,120,230
85400,93,120,230
85400,69,120,230
85400,81,120,230
85400,93,120,230
85560,90,120,230
85560,66,120,230
85560,78,120,230
85560,90,120,230
85720,85,120,230
85720,73,120,230
85720,85,120,230
85720,61,120,230
85880,92,120,230
85880,68,120,230
85880,80,120,230
85880,92,120,230
86040,93,120,230
86040,93,120,230
86040,69,120,230
86040,81,120,230
86200,95,120,230
86200,71,120,230
86200,83,120,230
86200,95,120,230
86360,85,70,680
86360,78,120,680
86360,90,120,680
86360,73,70,680
86360,66,120,680
86360,61,70,680
86360,90,120,680
86360,85,70,680
87080,85,120,120
87080,61,120,120
87080,73,120,120
87080,85,120,120
87200,88,120,120
87200,64,120,120
87200,76,120,120
87200,88,120,120
87320,90,120,230
87320,66,120,230
87320,78,120,230
87320,90,120,230
87480,73,120,230
87480,85,120,230
87480,85,120,230
87480,61,120,230
87640,81,120,230
87640,57,120,230
87640,69,120,230
87640,81,120,230
87800,78,120,230
87800,90,120,230
87800,90,120,230
87800,66,120,230
87960,85,120,230
87960,61,120,230
87960,73,120,230
87960,85,120,230
88120,81,120,230
88120,57,120,230
88120,69,120,230
88120,81,120,230
88280,92,120,230
88280,80,120,230
88280,68,120,230
88280,92,120,230
88440,88,120,230
88440,64,120,230
88440,76,120,230
88440,88,120,230
88600,83,120,230
88600,59,120,230
88600,71,120,230
88600,83,120,230
88760,92,120,230
88760,68,120,230
88760,80,120,230
88760,92,120,230
88920,76,120,230
88920,88,120,230
88920,88,120,230
88920,64,120,230
89080,83,120,230
89080,59,120,230
89080,71,120,230
89080,83,120,230
89240,80,120,230
89240,92,120,230
89240,92,120,230
89240,68,120,230
89400,89,120,230
89400,65,120,230
89400,77,120,230
89400,89,120,230
89560,83,120,230
89560,83,120,230
89560,59,120,230
89560,71,120,230
89720,80,120,230
89720,92,120,230
89720,92,120,230
89720,68,120,230
89880,89,120,230
89880,65,120,230
89880,77,120,230
89880,89,120,230
90040,83,120,230
90040,59,120,230
90040,71,120,230
90040,83,120,230
90200,97,120,180
90200,93,120,180
90200,85,120,180
90200,81,120,180
90200,77,120,180
90200,89,120,180
90200,69,120,180
90200,65,120,180
90200,97,120,180
90200,93,120,180
90200,89,120,180
90200,73,120,180
90560,97,120,180
90560,93,120,180
90560,89,120,180
90560,85,120,180
90560,81,120,180
90560,77,120,180
90560,73,120,180
90560,65,120,180
90560,97,120,180
90560,93,120,180
90560,89,120,180
90560,69,120,180
90920,81,120,230
90920,97,120,230
90920,89,120,230
90920,85,120,230
90920,77,120,230
90920,93,120,230
90920,69,120,230
90920,89,120,230
90920,93,120,230
90920,73,120,230
90920,65,120,230
90920,97,120,230
91160,50,100,920
91160,57,100,920
91160,65,100,920
91160,50,100,920
91160,57,100,920
91160,65,100,920
92120,49,100,920
92120,56,100,920
92120,64,100,920
92120,49,100,920
92120,56,100,920
92120,64,100,920
93080,68,100,920
93080,59,100,920
93080,52,100,920
93080,59,100,920
93080,52,100,920
93080,68,100,920
94040,58,100,920
94040,51,100,920
94040,67,100,920
94040,58,100,920
94040,51,100,920
94040,67,100,920
95000,50,100,920
95000,57,100,920
95000,65,100,920
95000,50,100,920
95000,57,100,920
95000,65,100,920
95960,64,100,920
95960,56,100,920
95960,49,100,920
95960,64,100,920
95960,49,100,920
95960,56,100,920
96920,52,100,920
96920,59,100,920
96920,68,100,920
96920,52,100,920
96920,59,100,920
96920,68,100,920
97880,67,100,920
97880,58,100,920
97880,51,100,920
97880,67,100,920
97880,51,100,920
97880,58,100,920
98840,57,100,920
98840,57,100,920
98840,50,100,920
98840,65,100,920
98840,65,100,920
98840,50,100,920
99080,89,100,120
99080,81,100,120
99560,81,100,120
99560,89,100,120
99800,64,100,920
99800,56,100,920
99800,49,100,920
99800,64,100,920
99800,56,100,920
99800,49,100,920
100040,88,100,120
100040,80,100,120
100520,80,100,120
100520,88,100,120
100760,68,100,920
100760,59,100,920
100760,52,100,920
100760,59,100,920
100760,68,100,920
100760,52,100,920
101000,83,100,120
101000,92,100,120
101480,92,100,120
101480,83,100,120
101720,51,100,920
101720,58,100,920
101720,67,100,920
101720,51,100,920
101720,58,100,920
101720,67,100,920
101960,82,100,120
101960,91,100,120
102440,82,100,120
102440,91,100,120
102680,65,100,920
102680,65,100,920
102680,57,100,920
102680,50,100,920
102680,57,100,920
102680,50,100,920
102920,89,100,120
102920,81,100,120
103400,89,100,120
103400,81,100,120
103640,64,100,920
103640,56,100,920
103640,49,100,920
103640,64,100,920
103640,56,100,920
103640,49,100,920
103880,88,100,120
103880,80,100,120
104360,88,100,120
104360,80,100,120
104600,59,100,920
104600,52,100,920
104600,68,100,920
104600,68,100,920
104600,59,100,920
104600,52,100,920
104840,83,100,120
104840,92,100,120
105320,92,100,120
105320,83,100,120
105560,51,100,920
105560,67,100,920
105560,58,100,920
105560,67,100,920
105560,58,100,920
105560,51,100,920
105800,91,100,120
105800,82,100,120
106280,91,100,120
106280,82,100,120
106520,50,100,920
106520,57,100,920
106520,50,100,920
106520,65,100,920
106520,57,100,920
106520,65,100,920
106520,81,120,240
106520,69,120,240
106520,69,120,240
106520,81,120,240
106520,69,120,240
106520,81,120,240
106760,81,100,120
106760,89,100,120
107000,65,120,240
107000,77,120,240
107000,65,120,240
107000,77,120,240
107000,65,120,240
107000,77,120,240
107240,81,100,120
107240,89,100,120
107480,56,100,920
107480,56,100,920
107480,64,100,920
107480,49,100,920
107480,64,100,920
107480,49,100,920
107480,68,120,240
107480,80,120,240
107480,68,120,240
107480,80,120,240
107480,68,120,240
107480,80,120,240
107720,80,100,120
107720,88,100,120
107960,76,120,240
107960,76,120,240
107960,64,120,240
107960,64,120,240
107960,76,120,240
107960,64,120,240
108200,80,100,120
108200,88,100,120
108440,59,100,920
108440,52,100,920
108440,59,100,920
108440,68,100,920
108440,68,100,920
108440,52,100,920
108440,71,120,240
108440,83,120,240
108440,71,120,240
108440,83,120,240
108440,71,120,240
108440,83,120,240
108680,92,100,120
108680,83,100,120
108920,68,120,240
108920,80,120,240
108920,68,120,240
108920,80,120,240
108920,68,120,240
108920,80,120,240
109160,83,100,120
109160,92,100,120
109400,58,100,920
109400,67,120,240
109400,79,120,240
109400,67,120,240
109400,79,120,240
109400,67,120,240
109400,79,120,240
109400,67,100,920
109400,58,100,920
109400,51,100,920
109400,67,100,920
109400,51,100,920
109640,82,100,120
109640,91,100,120
109880,82,120,240
109880,70,120,240
109880,70,120,240
109880,82,120,240
109880,70,120,240
109880,82,120,240
110120,91,100,120
110120,82,100,120
110360,69,120,240
110360,81,120,240
110360,69,120,240
110360,50,100,920
110360,69,120,240
110360,81,120,240
110360,57,100,920
110360,50,100,920
110360,65,100,920
110360,57,100,920
110360,65,100,920
110360,81,120,240
110600,81,100,120
110600,89,100,120
110840,77,120,240
110840,65,120,240
110840,77,120,240
110840,65,120,240
110840,77,120,240
110840,65,120,240
111080,89,100,120
111080,81,100,120
111320,64,100,920
111320,49,100,920
111320,56,100,920
111320,64,100,920
111320,80,120,240
111320,68,120,240
111320,80,120,240
111320,80,120,240
111320,68,120,240
111320,56,100,920
111320,68,120,240
111320,49,100,920
111560,88,100,120
111560,80,100,120
111800,76,120,240
111800,76,120,240
111800,64,120,240
111800,76,120,240
111800,64,120,240
111800,64,120,240
112040,80,100,120
112040,88,100,120
112280,68,100,920
112280,52,100,920
112280,59,100,920
112280,83,120,240
112280,71,120,240
112280,83,120,240
112280,59,100,920
112280,83,120,240
112280,71,120,240
112280,68,100,920
112280,71,120,240
112280,52,100,920
112520,83,100,120
112520,92,100,120
112760,68,120,240
112760,80,120,240
112760,68,120,240
112760,80,120,240
112760,80,120,240
112760,68,120,240
113000,92,100,120
113000,83,100,120
113240,67,100,920
113240,58,100,920
113240,51,100,920
113240,79,120,920
113240,67,120,920
113240,79,120,920
113240,67,120,920
113240,79,120,920
113240,67,100,920
113240,58,100,920
113240,51,100,920
113240,67,120,920
113480,91,100,120
113480,82,100,120
113960,91,100,120
113960,82,100,120
114200,65,100,920
114200,50,100,920
114200,57,100,920
114200,81,120,240
114200,81,120,240
114200,57,100,920
114200,69,120,240
114200,81,120,240
114200,69,120,240
114200,65,100,920
114200,69,120,240
114200,50,100,920
114440,81,100,120
114440,89,100,120
114680,65,120,240
114680,77,120,240
114680,65,120,240
114680,77,120,240
114680,77,120,240
114680,65,120,240
114920,89,100,120
114920,81,100,120
115160,56,100,920
115160,64,100,920
115160,56,100,920
115160,49,100,920
115160,64,100,920
115160,49,100,920
115160,80,120,240
115160,80,120,240
115160,68,120,240
115160,80,120,240
115160,68,120,240
115160,68,120,240
115400,88,100,120
115400,80,100,120
115640,76,120,240
115640,76,120,240
115640,64,120,240
115640,76,120,240
115640,64,120,240
115640,64,120,240
115880,80,100,120
115880,88,100,120
116120,59,100,920
116120,68,100,920
116120,59,100,920
116120,52,100,920
116120,68,100,920
116120,52,100,920
116120,71,120,240
116120,71,120,240
116120,83,120,240
116120,71,120,240
116120,83,120,240
116120,83,120,240
116360,92,100,120
116360,83,100,120
116600,68,120,240
116600,80,120,240
116600,68,120,240
116600,80,120,240
116600,68,120,240
116600,80,120,240
116840,83,100,120
116840,92,100,120
117080,51,100,920
117080,67,100,920
117080,58,100,920
117080,51,100,920
117080,67,100,920
117080,58,100,920
117080,79,120,240
117080,67,120,240
117080,67,120,240
117080,79,120,240
117080,67,120,240
117080,79,120,240
117320,82,100,120
117320,91,100,120
117560,70,120,240
117560,82,120,240
117560,70,120,240
117560,82,120,240
117560,70,120,240
117560,82,120,240
117800,82,100,120
117800,91,100,120
118040,65,100,920
118040,57,100,920
118040,50,100,920
118040,65,100,920
118040,50,100,920
118040,57,100,920
118040,69,120,240
118040,81,120,240
118040,81,120,240
118040,69,120,240
118040,81,120,240
118040,69,120,240
118280,81,100,120
118280,89,100,120
118520,77,120,240
118520,77,120,240
118520,65,120,240
118520,77,120,240
118520,65,120,240
118520,65,120,240
118760,81,100,120
118760,89,100,120
119000,64,100,920
119000,49,100,920
119000,56,100,920
119000,64,100,920
119000,80,120,240
119000,68,120,240
119000,80,120,240
119000,80,120,240
119000,68,120,240
119000,56,100,920
119000,68,120,240
119000,49,100,920
119240,80,100,120
119240,88,100,120
119480,64,120,240
119480,76,120,240
119480,64,120,240
119480,76,120,240
119480,64,120,240
119480,76,120,240
119720,88,100,120
119720,80,100,120
119960,68,100,920
119960,52,100,920
119960,59,100,920
119960,68,100,920
119960,83,120,240
119960,83,120,240
119960,95,120,240
119960,83,120,240
119960,71,120,240
119960,59,100,920
119960,71,120,240
119960,52,100,920
120200,83,100,120
120200,92,100,120
120440,80,120,240
120440,92,120,240
120440,80,120,240
120440,80,120,240
120440,68,120,240
120440,68,120,240
120680,83,100,120
120680,92,100,120
120920,67,100,920
120920,58,100,920
120920,51,100,920
120920,79,120,920
120920,67,120,920
120920,91,120,920
120920,79,120,920
120920,79,120,920
120920,67,100,920
120920,58,100,920
120920,51,100,920
120920,67,120,920
121160,91,100,120
121160,82,100,120
121640,91,100,120
121640,82,100,120
122840,86,120,240
122840,81,120,240
122840,69,120,240
122840,74,120,240
123320,77,120,240
123320,81,120,240
123320,89,120,240
123320,93,120,240
123800,88,120,240
123800,69,120,240
123800,76,120,240
123800,81,120,240
124280,89,120,240
124280,93,120,240
124280,77,120,240
124280,81,120,240
124760,74,120,240
124760,77,120,240
124760,86,120,240
124760,89,120,240
125240,76,120,230
125240,79,120,230
125240,88,120,230
125240,91,120,230
125480,93,120,230
125480,89,120,230
125480,77,120,230
125480,81,120,230
125720,91,120,240
125720,76,120,240
125720,79,120,240
125720,88,120,240
126200,95,120,240
126200,91,120,240
126200,79,120,240
126200,83,120,240
126680,81,120,230
126680,86,120,230
126680,93,120,230
126680,98,120,230
126920,93,120,230
126920,77,120,230
126920,81,120,230
126920,89,120,230
127160,84,120,230
127160,88,120,230
127160,96,120,230
127160,100,120,230
127400,98,120,120
127400,101,120,120
127400,86,120,120
127400,89,120,120
127640,100,120,230
127640,96,120,230
127640,88,120,230
127640,84,120,230
127880,86,120,120
127880,89,120,120
127880,98,120,120
127880,101,120,120
128000,96,120,120
128000,100,120,120
128000,84,120,120
128000,88,120,120
128120,77,120,230
128120,86,120,230
128120,89,120,230
128120,98,120,230
128360,77,120,120
128360,84,120,120
128360,89,120,120
128360,96,120,120
128600,89,120,230
128600,93,120,230
128600,81,120,230
128600,77,120,230
128840,81,120,180
128840,84,120,180
128840,93,120,180
128840,96,120,180
129080,76,120,230
129080,79,120,230
129080,88,120,230
129080,91,120,230
129320,93,120,180
129320,77,120,180
129320,81,120,180
129320,89,120,180
129560,86,120,920
129560,89,120,920
129560,74,120,920
129560,77,120,920
130520,86,120,240
130520,81,120,240
130520,74,120,240
130520,69,120,240
131000,77,120,240
131000,81,120,240
131000,89,120,240
131000,93,120,240
131480,81,120,240
131480,88,120,240
131480,69,120,240
131480,76,120,240
131960,77,120,240
131960,81,120,240
131960,89,120,240
131960,93,120,240
132440,74,120,240
132440,77,120,240
132440,86,120,240
132440,89,120,240
132920,91,120,230
132920,88,120,230
132920,79,120,230
132920,76,120,230
133160,77,120,230
133160,81,120,230
133160,89,120,230
133160,93,120,230
133400,76,120,240
133400,79,120,240
133400,88,120,240
133400,91,120,240
133880,95,120,240
133880,91,120,240
133880,79,120,240
133880,83,120,240
134360,81,120,230
134360,86,120,230
134360,93,120,230
134360,98,120,230
134600,93,120,230
134600,89,120,230
134600,81,120,230
134600,77,120,230
134840,84,120,230
134840,88,120,230
134840,96,120,230
134840,100,120,230
135080,98,120,120
135080,101,120,120
135080,86,120,120
135080,89,120,120
135320,84,120,230
135320,88,120,230
135320,96,120,230
135320,100,120,230
135560,101,120,120
135560,86,120,120
135560,89,120,120
135560,98,120,120
135680,100,120,120
135680,96,120,120
135680,84,120,120
135680,88,120,120
135800,77,120,230
135800,86,120,230
135800,89,120,230
135800,98,120,230
136040,96,120,120
136040,89,120,120
136040,77,120,120
136040,84,120,120
136280,81,120,1900
136280,86,120,1900
136280,93,120,1900
136280,98,120,1900
138200,81,120,240
138200,69,120,240
138200,74,120,240
138200,86,120,240
138680,89,120,240
138680,93,120,240
138680,81,120,240
138680,77,120,240
139160,69,120,240
139160,76,120,240
139160,81,120,240
139160,88,120,240
139640,77,120,240
139640,81,120,240
139640,89,120,240
139640,93,120,240
140120,89,120,240
140120,86,120,240
140120,74,120,240
140120,77,120,240
140600,76,120,230
140600,79,120,230
140600,88,120,230
140600,91,120,230
140840,93,120,230
140840,89,120,230
140840,81,120,230
140840,77,120,230
141080,76,120,240
141080,79,120,240
141080,88,120,240
141080,91,120,240
141560,91,120,240
141560,95,120,240
141560,79,120,240
141560,83,120,240
142040,81,120,230
142040,86,120,230
142040,93,120,230
142040,98,120,230
142280,93,120,230
142280,77,120,230
142280,81,120,230
142280,89,120,230
142520,100,120,230
142520,96,120,230
142520,88,120,230
142520,84,120,230
142760,86,120,120
142760,89,120,120
142760,98,120,120
142760,101,120,120
143000,96,120,230
143000,100,120,230
143000,84,120,230
143000,88,120,230
143240,86,120,120
143240,89,120,120
143240,98,120,120
143240,101,120,120
143360,84,120,120
143360,88,120,120
143360,96,120,120
143360,100,120,120
143480,89,120,230
143480,98,120,230
143480,86,120,230
143480,77,120,230
143720,77,120,120
143720,84,120,120
143720,89,120,120
143720,96,120,120
143960,77,120,230
143960,81,120,230
143960,89,120,230
143960,93,120,230
144200,96,120,180
144200,81,120,180
144200,84,120,180
144200,93,120,180
144440,88,120,230
144440,91,120,230
144440,76,120,230
144440,79,120,230
144680,93,120,180
144680,89,120,180
144680,81,120,180
144680,77,120,180
144920,74,120,920
144920,77,120,920
144920,86,120,920
144920,89,120,920
145880,69,120,240
145880,74,120,240
145880,81,120,240
145880,86,120,240
146360,77,120,240
146360,81,120,240
146360,89,120,240
146360,93,120,240
146840,81,120,240
146840,88,120,240
146840,69,120,240
146840,76,120,240
147320,93,120,240
147320,89,120,240
147320,77,120,240
147320,81,120,240
147800,74,120,240
147800,77,120,240
147800,86,120,240
147800,89,120,240
148280,76,120,230
148280,79,120,230
148280,88,120,230
148280,91,120,230
148520,89,120,230
148520,77,120,230
148520,81,120,230
148520,93,120,230
148760,91,120,240
148760,88,120,240
148760,79,120,240
148760,76,120,240
149240,79,120,240
149240,83,120,240
149240,91,120,240
149240,95,120,240
149720,81,120,230
149720,86,120,230
149720,93,120,230
149720,98,120,230
149960,77,120,230
149960,81,120,230
149960,89,120,230
149960,93,120,230
150200,96,120,230
150200,100,120,230
150200,84,120,230
150200,88,120,230
150440,86,120,120
150440,89,120,120
150440,98,120,120
150440,101,120,120
150680,96,120,230
150680,100,120,230
150680,84,120,230
150680,88,120,230
150920,86,120,120
150920,89,120,120
150920,98,120,120
150920,101,120,120
151040,100,120,120
151040,84,120,120
151040,88,120,120
151040,96,120,120
151160,89,120,230
151160,98,120,230
151160,77,120,230
151160,86,120,230
151400,89,120,120
151400,96,120,120
151400,77,120,120
151400,84,120,120
151640,86,120,1900
151640,93,120,1900
151640,81,120,1900
151640,98,120,1900
