time,note,velocity,duration
2840,89,120,1420
2960,86,120,80
3080,81,120,80
3200,89,120,80
3320,86,120,80
3440,81,120,80
3560,89,120,80
3680,86,120,80
3800,81,120,80
3920,89,120,80
4040,86,120,80
4160,81,120,80
4280,88,120,120
4600,88,120,120
4920,88,120,180
5240,89,120,80
5360,86,120,80
5480,81,120,80
5600,89,120,80
5720,86,120,80
5840,81,120,120
5960,89,120,120
6080,88,120,120
6200,81,120,80
6320,89,120,80
6440,86,120,80
6560,84,120,120
6680,91,120,120
6800,82,120,50
6860,86,120,50
6920,89,120,50
6980,88,120,50
7000,91,120,120
7040,84,120,50
7100,81,120,50
7160,79,120,50
7220,81,120,50
7280,77,120,50
7320,91,120,180
7340,76,120,50
7400,72,120,50
7460,74,120,50
7520,70,120,50
7580,69,120,50
7640,89,120,80
7760,86,120,80
7880,81,120,80
8000,89,120,80
8120,86,120,80
8240,81,120,80
8360,89,120,80
8480,86,120,80
8600,81,120,80
8720,89,120,80
8840,86,120,80
8960,81,120,80
9080,88,120,120
9400,88,120,120
9720,88,120,180
10040,89,120,80
10160,86,120,80
10280,81,120,80
10400,89,120,80
10520,86,120,80
10640,78,120,80
10760,84,120,80
10880,82,120,80
11000,81,120,80
11120,82,120,80
11240,81,120,80
11360,79,120,80
11480,79,120,80
11760,85,120,120
12040,84,120,120
12320,80,120,480
12760,73,120,160
13160,79,120,200
13600,80,120,200
14000,79,120,200
14440,81,120,160
14840,79,120,200
15280,79,120,200
15720,77,120,200
16120,78,120,200
16520,80,120,200
16960,80,120,200
17440,83,120,200
17920,83,120,160
18400,72,120,680
19200,87,120,160
19440,84,120,80
19720,82,120,160
19920,84,120,120
20160,85,120,160
20400,88,120,120
20640,87,120,160
20840,86,120,120
21080,84,120,160
21320,88,120,120
21560,80,120,200
21840,88,120,120
22080,85,120,160
22320,88,120,120
22560,85,120,160
22800,86,120,120
23040,84,120,200
23280,83,120,120
23560,83,120,200
23880,86,120,120
24120,85,120,200
24400,87,120,120
24680,83,120,200
24960,85,120,120
25200,85,120,200
25480,87,120,120
25720,85,120,200
26000,89,120,120
26280,86,120,640
26560,88,120,160
27080,91,120,160
27480,90,120,200
28000,90,120,240
28560,90,120,240
29080,96,120,240
29600,93,120,240
30120,93,120,240
30520,95,120,240
30960,94,120,240
31520,96,120,240
32040,99,120,240
32440,92,120,240
32880,95,120,240
33280,100,120,160
33640,97,120,200
33960,101,120,120
34160,93,120,120
34360,94,120,160
34600,98,120,120
34840,93,120,200
35080,97,120,120
35320,91,120,200
35560,92,120,160
35800,87,120,600
36520,91,120,200
37000,92,120,200
37480,92,120,200
37960,92,120,200
38480,94,120,240
39000,94,120,200
39440,92,120,200
39880,89,120,240
40440,93,120,240
41000,92,120,280
41520,96,120,240
42000,96,120,240
42360,98,120,200
42720,100,120,200
43040,103,120,160
43320,100,120,160
43560,98,120,200
43840,98,120,160
44080,98,120,1040
45120,96,120,200
45600,102,120,240
46120,102,120,240
46600,102,120,240
47160,106,120,240
47760,104,120,240
48200,104,120,240
48640,97,120,240
49160,101,120,240
49760,99,120,240
50280,102,120,240
50760,101,120,280
51120,105,120,200
51520,103,120,240
51880,112,120,160
52160,103,120,160
52400,97,120,160
52680,102,120,120
52960,97,120,160
53240,106,120,160
53520,98,120,200
53800,103,120,160
54040,99,120,600
54760,96,120,200
55280,98,120,480
56040,103,120,240
56640,104,120,240
57280,105,120,280
57920,101,120,280
58440,109,120,240
58960,102,120,280
59520,104,120,280
60120,103,120,280
60720,103,120,280
61280,105,120,280
61720,104,120,240
62160,105,120,240
62480,114,120,120
62720,106,120,200
62960,105,120,160
63240,110,120,120
63480,103,120,520
63880,109,120,160
64200,105,120,280
64560,107,120,200
64880,109,120,240
65240,104,120,200
65680,99,120,240
66160,102,120,200
66640,100,120,280
67120,104,120,240
67640,98,120,240
68160,97,120,240
68680,105,120,280
69120,102,120,240
69560,103,120,280
70040,108,120,200
70480,102,120,240
70800,109,120,200
71080,100,120,200
71360,105,120,120
71640,100,120,200
71920,101,120,160
72200,106,120,160
72440,102,120,280
72760,108,120,200
73040,102,120,640
73800,102,120,200
74360,110,120,240
74920,106,120,240
75480,105,120,240
76040,108,120,240
76640,106,120,280
77200,104,120,280
77720,102,120,280
78320,102,120,280
78880,104,120,280
79400,102,120,240
79880,105,120,280
80240,108,120,200
80560,105,120,200
80840,113,120,160
81120,107,120,160
81400,102,120,160
81680,108,120,160
81960,106,120,200
82240,109,120,160
82520,107,120,200
82800,105,120,200
83080,102,120,320
83560,103,120,240
84080,101,120,240
84640,104,120,240
85200,101,120,240
85760,101,120,240
86360,103,120,280
86960,104,120,280
87520,103,120,280
88080,103,120,280
88680,104,120,280
89240,107,120,280
89720,103,120,240
90080,108,120,200
90400,105,120,200
90680,107,120,160
90960,107,120,160
91240,105,120,160
91520,108,120,160
91800,104,120,280
92160,109,120,280
92520,109,120,480
93080,109,120,240
93600,111,120,280
94160,107,120,240
94760,106,120,240
95400,110,120,280
96000,105,120,280
96600,103,120,280
97160,102,120,280
97760,100,120,280
98320,104,120,280
98840,103,120,280
99320,105,120,280
99760,109,120,240
100120,106,120,200
100400,110,120,200
100680,108,120,160
100960,107,120,160
101240,107,120,160
101520,106,120,160
101800,108,120,160
102080,107,120,200
102400,106,120,280
102760,105,120,320
103280,104,120,240
103840,106,120,240
104400,106,120,240
105000,105,120,240
105640,106,120,280
106280,105,120,280
106880,105,120,280
107480,104,120,280
108040,103,120,280
108600,105,120,280
109160,107,120,280
109600,106,120,240
109960,108,120,200
110280,107,120,200
110560,108,120,160
110840,108,120,160
111120,107,120,160
111400,108,120,160
111680,107,120,200
111960,109,120,280
112280,110,120,400
112760,110,120,240
113280,107,120,360
113840,106,120,280
114480,105,120,240
115120,108,120,280
115720,105,120,280
116320,102,120,280
116920,103,120,280
117520,102,120,280
118080,102,120,280
118600,103,120,280
119120,105,120,280
119560,108,120,240
119920,109,120,240
120200,111,120,200
120480,109,120,160
120760,108,120,160
121040,108,120,160
121320,108,120,160
121600,109,120,160
121880,108,120,200
122160,106,120,360
122560,108,120,280
123040,105,120,280
123560,106,120,280
124160,106,120,240
124760,105,120,240
125360,105,120,280
125960,103,120,280
126560,103,120,280
127120,102,120,280
127680,101,120,280
128240,104,120,280
128760,105,120,280
129200,106,120,240
129600,108,120,240
129920,109,120,200
130200,107,120,160
130480,108,120,160
130760,106,120,160
131040,107,120,160
131320,106,120,160
131600,108,120,240
131880,108,120,400
132320,110,120,240
132800,106,120,320
133320,105,120,240
133920,105,120,240
134520,107,120,240
135120,104,120,240
135720,103,120,280
136320,102,120,280
136880,102,120,280
137440,100,120,280
137960,103,120,280
138480,105,120,280
138920,106,120,240
139280,107,120,240
139560,109,120,200
139840,108,120,160
140120,107,120,160
140400,105,120,160
140680,107,120,160
140960,108,120,160
141240,106,120,200
141520,106,120,320
141920,108,120,280
142400,105,120,280
142920,105,120,280
143520,105,120,240
144120,106,120,240
144720,105,120,280
145320,103,120,280
145920,103,120,280
146520,102,120,280
147080,101,120,280
147640,103,120,280
148160,105,120,280
148600,106,120,240
149000,107,120,240
149280,108,120,200
149560,107,120,160
149840,107,120,160
150120,105,120,160
150400,107,120,160
150680,107,120,160
150960,107,120,200
151240,107,120,360
151640,109,120,240
152080,105,120,360
152600,105,120,240
153200,105,120,240
153800,106,120,240
154400,103,120,240
155000,102,120,280
155600,102,120,280
156200,102,120,280
156760,101,120,280
157280,102,120,280
157800,103,120,280
158280,105,120,240
158680,107,120,240
159000,109,120,200
159280,107,120,160
159560,108,120,160
159840,106,120,160
160120,106,120,160
160400,107,120,160
160680,105,120,200
160960,107,120,320
161360,109,120,280
161840,106,120,280
162360,105,120,280
162960,106,120,240
163560,107,120,240
164160,105,120,280
164760,103,120,280
165360,102,120,280
165960,102,120,280
166520,101,120,280
167080,102,120,280
167600,104,120,280
168040,105,120,240
168440,107,120,240
168760,108,120,200
169040,107,120,160
169320,107,120,160
169600,106,120,160
169880,107,120,160
170160,106,120,160
170440,106,120,200
170720,107,120,320
171120,109,120,280
171600,105,120,400
172160,105,120,280
172760,105,120,240
173360,106,120,240
173960,104,120,240
174560,103,120,280
175160,102,120,280
175760,102,120,280
176320,101,120,280
176880,102,120,280
177400,104,120,280
177880,105,120,240
178280,108,120,240
178600,109,120,200
178880,108,120,160
179160,108,120,160
179440,106,120,160
179720,107,120,160
180000,107,120,160
180280,106,120,200
180560,107,120,280
180920,109,120,280
181360,106,120,280
181840,105,120,280
182400,104,120,240
183000,105,120,240
183600,104,120,240
184200,103,120,280
184800,102,120,280
185400,102,120,280
185960,102,120,280
186520,102,120,280
187040,104,120,280
187520,105,120,240
187960,107,120,240
188320,108,120,200
188600,107,120,200
188880,108,120,160
189160,107,120,160
189440,107,120,160
189720,107,120,160
190000,106,120,200
190280,108,120,320
190680,109,120,280
191160,107,120,400
191720,106,120,240
192320,106,120,240
192920,108,120,240
193520,105,120,280
194160,104,120,280
194760,103,120,280
195360,102,120,280
195920,101,120,280
196480,103,120,280
197000,104,120,280
197480,105,120,240
197880,107,120,240
198200,109,120,200
198480,108,120,160
198760,108,120,160
199040,106,120,160
199320,107,120,160
199600,108,120,160
199880,106,120,200
200160,109,120,240
200480,109,120,280
200880,106,120,280
201360,103,120,360
201960,103,120,240
202560,105,120,240
203200,104,120,240
203800,104,120,280
204400,103,120,280
205000,102,120,280
205560,103,120,280
206120,102,120,280
206640,104,120,280
207120,104,120,240
207560,107,120,240
207920,108,120,200
208200,108,120,200
208480,108,120,160
208760,108,120,160
209040,106,120,160
209320,106,120,160
209600,106,120,160
209880,107,120,360
210280,110,120,240
210720,107,120,400
211240,107,120,240
211800,106,120,240
212400,107,120,240
213000,105,120,240
213600,104,120,280
214200,102,120,280
214800,102,120,280
215360,100,120,280
215880,102,120,280
216400,103,120,280
216840,105,120,240
217240,107,120,240
217560,109,120,200
217840,107,120,200
218120,108,120,160
218400,105,120,160
218680,106,120,160
218960,108,120,160
219240,106,120,200
219520,108,120,240
219840,107,120,360
220320,106,120,240
220800,105,120,360
221400,104,120,240
222000,106,120,240
222640,105,120,240
223240,103,120,280
223840,103,120,280
224440,102,120,280
225000,102,120,280
225560,101,120,280
226080,103,120,280
226560,104,120,240
227000,107,120,240
227360,108,120,200
227640,109,120,160
227920,107,120,160
228200,107,120,160
228480,106,120,160
228760,106,120,160
229040,106,120,160
229320,107,120,240
229640,109,120,280
230040,107,120,400
230560,106,120,240
231120,105,120,240
231720,106,120,240
232320,103,120,240
232920,104,120,280
233520,102,120,280
234120,101,120,280
234680,101,120,280
235200,101,120,280
235720,103,120,280
236200,105,120,240
236600,106,120,240
236960,108,120,200
237240,107,120,200
237520,108,120,160
237800,106,120,160
238080,106,120,160
238360,107,120,160
238640,105,120,200
238920,109,120,240
239240,108,120,360
239720,107,120,240
240200,106,120,360
240760,105,120,240
241360,105,120,240
242000,106,120,240
242600,103,120,280
243200,103,120,280
243800,102,120,280
244400,102,120,280
244960,102,120,280
245480,103,120,280
245960,104,120,240
246400,107,120,240
246760,108,120,200
247040,108,120,160
247320,106,120,160
247600,107,120,160
247880,106,120,160
248160,107,120,160
248440,106,120,160
248720,107,120,200
249040,106,120,320
249440,107,120,400
250000,106,120,240
250560,106,120,240
251160,105,120,240
251760,104,120,240
252400,105,120,280
253000,103,120,280
253600,101,120,280
254160,101,120,280
254720,101,120,280
255280,103,120,280
255800,105,120,280
256240,107,120,240
256600,109,120,200
256920,108,120,200
257200,109,120,160
257480,107,120,160
257760,106,120,160
258040,108,120,160
258320,106,120,160
258600,109,120,200
258880,108,120,320
259280,108,120,240
259720,105,120,360
260280,104,120,240
260880,105,120,240
261480,106,120,240
262080,103,120,280
262680,103,120,280
263280,102,120,280
263880,102,120,280
264400,101,120,280
264920,102,120,280
265440,104,120,280
265920,107,120,240
266280,107,120,240
266560,109,120,200
266840,107,120,160
267120,107,120,160
267400,105,120,160
267680,106,120,160
267960,107,120,160
268240,107,120,200
268560,106,120,400
269000,109,120,280
269520,107,120,240
270040,107,120,240
270600,105,120,240
271200,105,120,240
271800,105,120,280
272400,102,120,280
273000,101,120,280
273560,102,120,280
274120,100,120,280
274640,103,120,280
275160,105,120,280
275600,106,120,240
276000,107,120,240
276320,109,120,200
276600,108,120,160
276880,106,120,160
277160,106,120,160
277440,107,120,160
277720,107,120,160
278000,107,120,200
278280,107,120,320
278680,108,120,320
279160,105,120,320
279720,105,120,240
280320,106,120,240
280920,106,120,240
281520,104,120,240
282120,104,120,280
282720,102,120,280
283320,102,120,280
283880,101,120,280
284440,102,120,280
285000,106,120,280
285480,106,120,240
285880,107,120,240
286200,109,120,200
286480,108,120,160
286760,109,120,160
287040,106,120,160
287320,107,120,160
287600,107,120,160
287880,108,120,200
288160,107,120,360
288560,110,120,240
289040,106,120,320
289560,105,120,280
290160,104,120,240
290800,107,120,240
291440,105,120,280
292040,103,120,280
292640,102,120,280
293240,103,120,280
293800,103,120,280
294360,103,120,280
294880,104,120,280
295360,106,120,240
295800,107,120,240
296120,110,120,200
296400,108,120,160
296680,108,120,160
296960,107,120,160
297240,107,120,160
297520,108,120,160
297800,107,120,200
298080,108,120,360
298480,109,120,320
298960,107,120,320
299520,106,120,280
300120,106,120,240
300720,107,120,240
301360,105,120,240
302000,105,120,280
302600,103,120,280
303200,102,120,280
303760,101,120,280
304320,103,120,280
304880,105,120,280
305360,106,120,240
305760,108,120,240
306080,110,120,200
306360,108,120,160
306640,107,120,160
306920,107,120,160
307200,108,120,160
307480,108,120,160
307760,107,120,200
308040,107,120,360
308440,110,120,240
308880,106,120,360
309400,105,120,280
310000,105,120,240
310640,107,120,240
311240,105,120,280
311840,104,120,280
312440,103,120,280
313040,103,120,280
313600,101,120,280
314120,102,120,280
314640,104,120,280
315120,106,120,240
315520,107,120,240
315800,109,120,200
316080,107,120,160
316360,108,120,160
316640,106,120,160
316920,107,120,160
317200,107,120,160
317480,106,120,200
317760,107,120,360
318160,108,120,320
318640,107,120,280
319160,106,120,280
319760,106,120,240
320360,106,120,240
320960,105,120,240
321560,103,120,280
322160,102,120,280
322760,101,120,280
323320,102,120,280
323880,102,120,280
324400,104,120,280
324880,105,120,240
325280,108,120,240
325600,109,120,200
325880,107,120,160
326160,107,120,160
326440,106,120,160
326720,106,120,160
327000,107,120,160
327280,106,120,200
327560,107,120,320
327920,109,120,280
328360,105,120,360
328880,105,120,240
329480,105,120,240
330080,106,120,240
330680,104,120,240
331280,103,120,280
331880,103,120,280
332480,102,120,280
333040,101,120,280
333560,102,120,280
334080,104,120,280
334560,105,120,240
334960,107,120,240
335280,108,120,200
335560,107,120,160
335840,108,120,160
336120,106,120,160
336400,106,120,160
336680,107,120,160
336960,106,120,200
337240,107,120,320
337640,109,120,280
338120,107,120,280
338640,105,120,280
339240,105,120,240
339840,107,120,240
340480,105,120,280
341080,104,120,280
341680,102,120,280
342280,102,120,280
342840,102,120,280
343400,102,120,280
343920,104,120,280
344400,105,120,240
344840,107,120,240
345160,109,120,200
345440,107,120,160
345720,107,120,160
346000,106,120,160
346280,107,120,160
346560,107,120,160
346840,106,120,200
347120,108,120,280
347480,109,120,320
347960,105,120,360
348520,105,120,280
349120,106,120,240
349720,106,120,240
350320,104,120,240
350920,104,120,280
351520,102,120,280
352120,102,120,280
352680,101,120,280
353240,102,120,280
353760,104,120,280
354240,105,120,240
354640,108,120,240
354960,108,120,200
355240,108,120,160
355520,107,120,160
355800,106,120,160
356080,107,120,160
356360,107,120,160
356640,106,120,200
356920,108,120,280
357280,109,120,280
357720,106,120,320
358240,104,120,280
358840,104,120,240
359440,106,120,240
360040,104,120,240
360640,103,120,280
361240,102,120,280
361840,102,120,280
362400,102,120,280
362920,102,120,280
363440,103,120,280
363920,105,120,240
364360,107,120,240
364680,108,120,200
364960,107,120,160
365240,108,120,160
365520,106,120,160
365800,106,120,160
366080,107,120,160
366360,106,120,200
366640,107,120,280
367000,108,120,360
367480,106,120,280
368000,106,120,240
368560,106,120,240
369160,105,120,240
369760,105,120,240
370360,103,120,280
370960,102,120,280
371560,101,120,280
372120,101,120,280
372680,102,120,280
373200,104,120,280
373680,105,120,240
374080,107,120,240
374400,107,120,200
374680,107,120,160
374960,107,120,160
375240,106,120,160
375520,106,120,160
375800,107,120,160
376080,106,120,160
376360,108,120,240
376680,108,120,320
377120,106,120,360
377640,104,120,280
378240,105,120,240
378840,106,120,240
379440,104,120,240
380040,103,120,280
380640,103,120,280
381240,102,120,280
381800,102,120,280
382320,101,120,280
382840,103,120,280
383360,105,120,240
383800,107,120,240
384120,107,120,200
384400,107,120,200
384680,108,120,160
384960,107,120,160
385240,106,120,160
385520,107,120,160
385800,106,120,160
386080,108,120,280
386400,108,120,320
386840,107,120,280
387320,105,120,240
387840,105,120,240
388440,105,120,240
389040,105,120,240
389640,103,120,280
390240,101,120,280
390840,102,120,280
391400,102,120,280
391920,101,120,280
392440,102,120,280
392920,105,120,240
393360,106,120,240
393720,107,120,200
394000,107,120,200
394280,107,120,160
394560,106,120,160
394840,106,120,160
395120,106,120,160
395400,106,120,160
395680,108,120,240
396000,108,120,400
396480,107,120,320
397000,105,120,280
397560,105,120,240
398160,106,120,240
398760,105,120,240
399360,104,120,280
399960,103,120,280
400560,101,120,280
401120,101,120,280
401680,100,120,280
402200,104,120,280
402720,105,120,280
403160,107,120,240
403520,107,120,200
403800,108,120,200
404080,108,120,160
404360,107,120,160
404640,106,120,160
404920,107,120,160
405200,107,120,160
405480,108,120,200
405800,107,120,320
406200,108,120,320
406720,105,120,280
407280,104,120,240
407880,106,120,240
408480,105,120,240
409080,104,120,280
409680,103,120,280
410280,102,120,280
410880,103,120,280
411440,101,120,280
411960,103,120,280
412480,105,120,280
412920,107,120,240
413280,107,120,200
413560,107,120,200
413840,107,120,160
414120,107,120,160
414400,106,120,160
414680,107,120,160
414960,106,120,160
415240,108,120,240
415560,108,120,400
416040,108,120,280
416560,107,120,320
417120,106,120,240
417720,105,120,240
418360,106,120,280
418960,105,120,280
419560,103,120,280
420160,102,120,280
420720,102,120,280
421280,101,120,280
421800,103,120,280
422320,105,120,280
422760,107,120,240
423120,108,120,200
423400,109,120,200
423680,108,120,160
423960,108,120,160
424240,106,120,160
424520,107,120,160
424800,107,120,160
425080,107,120,200
425400,106,120,360
425840,108,120,320
426360,105,120,320
426920,106,120,280
427520,106,120,240
428160,105,120,240
428760,105,120,280
429360,103,120,280
429960,102,120,280
430520,102,120,280
431040,101,120,280
431560,103,120,280
432080,105,120,280
432520,107,120,240
432880,108,120,200
433160,108,120,200
433440,107,120,160
433720,108,120,160
434000,106,120,160
434280,107,120,160
434560,106,120,160
434840,107,120,240
435160,107,120,440
435640,108,120,280
436160,106,120,320
436720,106,120,240
437320,105,120,240
437960,106,120,280
438560,104,120,280
439160,103,120,280
439760,102,120,280
440320,102,120,280
440840,101,120,280
441360,103,120,280
441840,106,120,280
442280,107,120,240
442640,108,120,200
442920,110,120,200
443200,108,120,160
443480,107,120,160
443760,106,120,160
444040,107,120,160
444320,107,120,160
444600,107,120,200
444880,106,120,400
445320,107,120,320
445840,104,120,320
446400,106,120,240
447000,105,120,240
447600,105,120,240
448200,103,120,280
448800,102,120,280
449360,102,120,280
449920,101,120,280
450440,100,120,280
450960,103,120,280
451480,105,120,280
451920,107,120,240
452280,107,120,200
452560,108,120,200
452840,108,120,160
453120,107,120,160
453400,105,120,160
453680,106,120,160
453960,106,120,160
454240,108,120,200
454520,106,120,440
455000,108,120,240
455520,106,120,320
456080,105,120,240
456680,105,120,240
457320,106,120,240
457920,104,120,280
458520,102,120,280
459080,101,120,280
459640,102,120,280
460160,100,120,280
460680,103,120,280
461200,105,120,280
461640,107,120,240
462000,107,120,240
462280,110,120,200
462560,108,120,160
462840,107,120,160
463120,105,120,160
463400,107,120,160
463680,107,120,160
463960,107,120,200
464280,106,120,440
464760,107,120,320
465320,106,120,280
465880,107,120,280
466480,106,120,240
467080,106,120,280
467680,104,120,280
468280,103,120,280
468840,102,120,280
469400,101,120,280
469920,100,120,280
470440,103,120,280
470960,106,120,280
471400,107,120,240
471760,107,120,200
472040,109,120,200
472320,108,120,160
472600,107,120,160
472880,105,120,160
473160,107,120,160
473440,107,120,160
473720,108,120,200
474000,106,120,520
474520,109,120,240
475040,105,120,320
475600,106,120,240
476200,104,120,240
476840,106,120,240
477440,104,120,280
478040,103,120,280
478600,101,120,280
479160,102,120,280
479680,100,120,280
480200,103,120,280
480720,106,120,280
481160,108,120,240
481520,107,120,240
481800,110,120,200
482080,108,120,160
482360,107,120,160
482640,106,120,160
482920,107,120,160
483200,107,120,160
483480,107,120,200
483800,106,120,480
484280,107,120,320
484840,106,120,280
485400,107,120,280
486000,106,120,240
486600,106,120,280
487200,104,120,280
487800,103,120,280
488360,102,120,280
488920,101,120,280
489440,101,120,280
489960,104,120,280
490480,107,120,280
490880,108,120,240
491240,107,120,200
491520,109,120,200
491800,108,120,160
492080,107,120,160
492360,106,120,160
492640,107,120,160
492920,107,120,160
493200,108,120,240
493520,106,120,520
494040,109,120,240
494600,105,120,320
495160,106,120,280
495760,105,120,240
496400,106,120,280
497000,104,120,280
497600,102,120,280
498160,102,120,280
498720,102,120,280
499240,101,120,280
499760,104,120,280
500280,106,120,280
500720,108,120,240
501080,108,120,200
501360,110,120,200
501640,108,120,160
501920,107,120,160
502200,106,120,160
502480,107,120,160
502760,107,120,160
503040,108,120,200
503360,105,120,520
503880,108,120,280
504440,106,120,280
505000,107,120,280
505600,105,120,240
506200,106,120,280
506800,104,120,280
507400,103,120,280
507960,102,120,280
508520,101,120,280
509040,101,120,280
509560,104,120,280
510080,107,120,280
510480,108,120,240
510840,107,120,200
511120,110,120,200
511400,108,120,160
511680,107,120,160
511960,106,120,160
512240,107,120,160
512520,108,120,160
512800,108,120,240
513120,106,120,520
513640,109,120,240
514200,105,120,280
514760,107,120,240
515360,105,120,240
515960,106,120,280
516560,104,120,280
517160,103,120,280
517720,102,120,280
518280,102,120,280
518800,101,120,280
519320,105,120,280
519840,107,120,280
520240,108,120,240
520560,107,120,200
520840,109,120,200
521120,108,120,160
521400,107,120,160
521680,106,120,160
521960,107,120,160
522240,108,120,160
522520,108,120,200
522800,104,120,520
523280,108,120,240
523840,105,120,280
524400,106,120,280
525000,104,120,240
525600,106,120,280
526200,104,120,280
526800,102,120,280
527360,102,120,280
527920,101,120,280
528440,100,120,280
528960,104,120,280
529480,107,120,280
529880,108,120,240
530200,106,120,200
530480,109,120,200
530760,108,120,160
531040,107,120,160
531320,106,120,160
531600,107,120,160
531880,107,120,160
532160,108,120,240
532480,105,120,520
533000,109,120,240
533560,106,120,280
534120,106,120,280
534720,105,120,240
535320,106,120,280
535920,103,120,280
536520,102,120,280
537080,102,120,280
537640,101,120,280
538160,100,120,280
538680,104,120,280
539200,107,120,280
539600,108,120,240
539920,107,120,200
540200,109,120,200
540480,108,120,160
540760,107,120,160
541040,106,120,160
541320,107,120,160
541600,107,120,160
541880,108,120,240
542200,105,120,560
542760,108,120,240
543320,105,120,280
543880,107,120,280
544480,105,120,240
545120,106,120,280
545720,104,120,280
546320,102,120,280
546880,102,120,280
547440,101,120,280
547960,100,120,280
548480,104,120,280
549000,107,120,280
549400,109,120,240
549720,107,120,200
550000,109,120,200
550280,108,120,160
550560,107,120,160
550840,106,120,160
551120,107,120,160
551400,107,120,160
551680,108,120,240
552000,105,120,520
552520,108,120,280
553080,105,120,280
553640,107,120,280
554240,105,120,240
554840,106,120,280
555440,103,120,280
556040,102,120,280
556600,102,120,280
557160,101,120,280
557680,101,120,280
558200,104,120,280
558720,108,120,280
559120,108,120,240
559440,107,120,200
559720,109,120,200
560000,108,120,160
560280,107,120,160
560560,106,120,160
560840,107,120,160
561120,108,120,200
561400,109,120,240
561720,106,120,560
562280,109,120,240
562840,106,120,280
563400,107,120,240
564000,105,120,240
564640,106,120,280
565240,104,120,280
565840,102,120,280
566400,102,120,280
566960,101,120,280
567480,101,120,280
568000,104,120,280
568520,107,120,280
568920,109,120,240
569240,107,120,200
569520,110,120,200
569800,108,120,160
570080,106,120,160
570360,107,120,160
570640,107,120,160
570920,108,120,160
571200,108,120,240
571520,105,120,480
572040,107,120,280
572600,105,120,280
573160,107,120,280
573760,105,120,240
574360,106,120,280
574960,103,120,280
575560,102,120,280
576120,102,120,280
576680,101,120,280
577200,101,120,280
577720,104,120,280
578240,107,120,280
578640,108,120,240
578960,107,120,200
579240,109,120,200
579520,108,120,160
579800,107,120,160
580080,106,120,160
580360,107,120,160
580640,108,120,200
580960,109,120,240
581280,107,120,560
581840,109,120,240
582400,106,120,280
582960,107,120,240
583560,105,120,240
584160,106,120,280
584760,103,120,280
585360,102,120,280
585920,102,120,280
586480,101,120,280
587000,101,120,280
587520,105,120,280
588040,107,120,280
588440,109,120,240
588760,107,120,200
589040,110,120,160
589320,107,120,160
589600,106,120,160
589880,106,120,160
590160,107,120,160
590440,108,120,160
590720,108,120,240
591040,105,120,480
591560,107,120,280
592120,105,120,280
592680,107,120,280
593280,106,120,240
593880,106,120,280
594480,104,120,280
595080,102,120,280
595640,102,120,280
596200,101,120,280
596720,101,120,280
597240,104,120,280
597760,107,120,280
598160,108,120,240
598480,107,120,200
598760,109,120,200
599040,108,120,160
599320,107,120,160
599600,106,120,160
599880,108,120,160
600160,108,120,200
600480,109,120,240
600800,107,120,560
601360,109,120,240
601920,106,120,280
602480,107,120,240
603080,104,120,240
603680,106,120,280
604280,103,120,280
604880,102,120,280
605440,102,120,280
606000,101,120,280
606520,101,120,280
607040,105,120,240
607520,107,120,280
607920,110,120,200
608240,106,120,200
608520,110,120,160
608800,107,120,160
609080,106,120,160
609360,106,120,160
609640,107,120,160
609920,108,120,160
610200,107,120,240
610520,105,120,480
611000,106,120,280
611560,104,120,280
612120,106,120,240
612720,105,120,240
613320,105,120,280
613920,103,120,280
614520,102,120,280
615080,102,120,280
615640,101,120,280
616160,101,120,280
616680,104,120,280
617200,108,120,280
617600,108,120,240
617920,107,120,200
618200,108,120,200
618480,108,120,160
618760,107,120,160
619040,106,120,160
619320,107,120,160
619600,108,120,200
619920,109,120,240
620240,107,120,480
620760,108,120,240
621280,106,120,280
621840,106,120,280
622440,104,120,240
623040,106,120,280
623640,102,120,280
624240,102,120,280
624800,102,120,280
625360,102,120,280
625880,101,120,280
626400,104,120,240
626880,106,120,280
627280,108,120,240
627600,107,120,200
627880,109,120,200
628160,107,120,160
628440,107,120,160
628720,106,120,160
629000,107,120,160
629280,107,120,160
629560,107,120,240
629880,105,120,520
630400,107,120,240
630960,105,120,280
631520,106,120,240
632120,104,120,240
632760,106,120,280
633360,104,120,280
633960,103,120,280
634520,102,120,280
635080,101,120,280
635600,101,120,280
636120,104,120,280
636640,107,120,280
637040,108,120,240
637360,107,120,200
637640,109,120,200
637920,108,120,160
638200,107,120,160
638480,106,120,160
638760,107,120,160
639040,107,120,160
639320,108,120,240
639640,106,120,480
640120,107,120,240
640680,105,120,280
641240,106,120,280
641840,105,120,240
642440,106,120,280
643040,103,120,280
643640,102,120,280
644200,102,120,280
644760,101,120,280
645280,100,120,280
645800,104,120,280
646320,107,120,280
646720,108,120,240
647040,107,120,200
647320,109,120,200
647600,107,120,160
647880,107,120,160
648160,106,120,160
648440,107,120,160
648720,107,120,160
649000,108,120,240
649320,105,120,520
649840,109,120,240
650400,106,120,280
650960,107,120,280
651560,105,120,240
652200,106,120,280
652800,104,120,280
653400,102,120,280
653960,102,120,280
654520,101,120,280
655040,101,120,280
655560,104,120,280
656040,107,120,280
656440,108,120,240
656760,107,120,200
657040,109,120,200
657320,108,120,160
657600,107,120,160
657880,106,120,160
658160,107,120,160
658440,107,120,160
658720,107,120,240
659040,105,120,480
659560,107,120,280
660120,105,120,280
660680,106,120,280
661280,105,120,240
661880,106,120,280
662480,103,120,280
663080,102,120,280
663640,102,120,280
664200,101,120,280
664720,100,120,280
665240,104,120,280
665760,107,120,280
666160,108,120,240
666480,107,120,200
666760,109,120,200
667040,108,120,160
667320,107,120,160
667600,106,120,160
667880,107,120,160
668160,107,120,160
668440,108,120,240
668760,105,120,520
669280,109,120,240
669840,105,120,280
670400,107,120,280
671000,105,120,240
671600,106,120,280
672200,103,120,280
672800,102,120,280
673360,102,120,280
673880,101,120,280
674400,100,120,280
674920,104,120,280
675440,107,120,280
675840,108,120,240
676160,107,120,200
676440,109,120,200
676720,108,120,160
677000,106,120,160
677280,106,120,160
677560,107,120,160
677840,108,120,160
678120,108,120,240
678440,105,120,480
678960,107,120,280
679520,105,120,280
680080,107,120,280
680680,105,120,240
681280,105,120,280
681880,103,120,280
682480,102,120,280
683040,102,120,280
683600,101,120,280
684120,101,120,280
684640,104,120,280
685160,107,120,280
685560,108,120,240
685880,107,120,200
686160,109,120,200
686440,108,120,160
686720,107,120,160
687000,106,120,160
687280,107,120,160
687560,107,120,160
687840,108,120,240
688160,105,120,560
688720,109,120,240
689280,105,120,280
689840,107,120,240
690440,105,120,240
691080,106,120,280
691680,104,120,280
692280,102,120,280
692840,102,120,280
693400,101,120,280
693920,101,120,280
694440,105,120,280
694960,107,120,280
695360,109,120,240
695680,107,120,200
695960,110,120,200
696240,108,120,160
696520,107,120,160
696800,106,120,160
697080,107,120,160
697360,107,120,160
697640,108,120,240
697960,106,120,480
698480,107,120,280
699040,105,120,280
699600,107,120,280
700200,106,120,240
700800,106,120,280
701400,103,120,280
702000,102,120,280
702560,102,120,280
703120,101,120,280
703640,101,120,280
704160,104,120,280
704680,107,120,280
705080,108,120,240
705400,107,120,200
705680,109,120,200
705960,108,120,160
706240,107,120,160
706520,106,120,160
706800,108,120,160
707080,107,120,160
707360,108,120,240
707680,105,120,560
708240,109,120,240
708800,106,120,280
709360,106,120,240
709960,104,120,240
710600,106,120,280
711200,104,120,280
711800,102,120,280
712360,102,120,280
712920,101,120,280
713440,101,120,280
713960,105,120,280
714480,107,120,280
714880,109,120,240
715200,108,120,200
715480,110,120,200
715760,108,120,160
716040,107,120,160
716320,107,120,160
716600,107,120,160
716880,108,120,160
717160,108,120,240
717480,106,120,480
718000,107,120,280
718560,105,120,280
719120,107,120,280
719720,106,120,240
720320,106,120,280
720920,103,120,280
721520,102,120,280
722080,102,120,280
722640,101,120,280
723160,101,120,280
723680,104,120,280
724200,107,120,280
724600,108,120,240
724920,107,120,200
725200,109,120,200
725480,108,120,160
725760,107,120,160
726040,106,120,160
726320,108,120,160
726600,107,120,160
726880,108,120,240
727200,105,120,560
727760,109,120,240
728320,106,120,280
728880,106,120,240
729480,104,120,240
730120,106,120,280
730720,104,120,280
731320,102,120,280
731880,102,120,280
732440,101,120,280
732960,101,120,280
733480,105,120,280
734000,107,120,280
734400,109,120,240
734720,108,120,200
735000,110,120,200
735280,108,120,160
735560,107,120,160
735840,107,120,160
736120,107,120,160
736400,108,120,160
736680,108,120,240
737000,106,120,480
737520,107,120,280
738080,105,120,280
738640,107,120,280
739240,106,120,240
739840,106,120,280
740440,103,120,280
741040,102,120,280
741600,102,120,280
742160,101,120,280
742680,101,120,280
743200,104,120,280
743720,107,120,280
744120,108,120,240
744440,107,120,200
744720,109,120,200
745000,108,120,160
745280,107,120,160
745560,106,120,160
745840,108,120,160
746120,107,120,160
746400,108,120,240
746720,105,120,560
747280,109,120,240
747840,106,120,280
748400,106,120,240
749000,104,120,240
749640,106,120,280
750240,104,120,280
750840,102,120,280
751400,102,120,280
751960,101,120,280
752480,101,120,280
753000,105,120,280
753520,107,120,280
753920,109,120,240
754240,108,120,200
754520,110,120,200
754800,108,120,160
755080,107,120,160
755360,107,120,160
755640,107,120,160
755920,108,120,160
756200,108,120,240
756520,106,120,480
757040,107,120,280
757600,105,120,280
758160,107,120,280
758760,106,120,240
759360,106,120,280
759960,103,120,280
760560,102,120,280
761120,102,120,280
761680,101,120,280
762200,101,120,280
762720,104,120,280
763240,107,120,280
763640,108,120,240
763960,107,120,200
764240,109,120,200
764520,108,120,160
764800,107,120,160
765080,106,120,160
765360,108,120,160
765640,107,120,160
765920,108,120,240
766240,105,120,560
766800,109,120,240
767360,106,120,280
767920,106,120,240
768520,104,120,240
769160,106,120,280
769760,104,120,280
770360,102,120,280
770920,102,120,280
771480,101,120,280
772000,101,120,280
772520,105,120,280
773040,107,120,280
773440,109,120,240
773760,108,120,200
774040,110,120,200
774320,108,120,160
774600,107,120,160
774880,107,120,160
775160,107,120,160
775440,108,120,160
775720,108,120,240
776040,106,120,480
776560,107,120,280
777120,105,120,280
777680,107,120,280
778280,106,120,240
778880,106,120,280
779480,103,120,280
780080,102,120,280
780640,102,120,280
781200,101,120,280
781720,101,120,280
782240,104,120,280
782760,107,120,280
783160,108,120,240
783480,107,120,200
783760,109,120,200
784040,108,120,160
784320,107,120,160
784600,106,120,160
784880,108,120,160
785160,107,120,160
785440,108,120,240
785760,105,120,560
786320,109,120,240
786880,106,120,280
787440,106,120,240
788040,104,120,240
788680,106,120,280
789280,104,120,280
789880,102,120,280
790440,102,120,280
791000,101,120,280
791520,101,120,280
792040,105,120,280
792560,107,120,280
792960,109,120,240
793280,108,120,200
793560,110,120,200
793840,108,120,160
794120,107,120,160
794400,107,120,160
794680,107,120,160
794960,108,120,160
795240,108,120,240
795560,106,120,480
796080,107,120,280
796640,105,120,280
797200,107,120,280
797800,106,120,240
798400,106,120,280
799000,103,120,280
799600,102,120,280
800160,102,120,280
800720,101,120,280
801240,101,120,280
801760,104,120,280
802280,107,120,280
802680,108,120,240
803000,107,120,200
803280,109,120,200
803560,108,120,160
803840,107,120,160
804120,106,120,160
804400,108,120,160
804680,107,120,160
804960,108,120,240
805280,105,120,560
805840,109,120,240
806400,106,120,280
806960,106,120,240
807560,104,120,240
808200,106,120,280
808800,104,120,280
809400,102,120,280
809960,102,120,280
810520,101,120,280
811040,101,120,280
811560,105,120,280
812080,107,120,280
812480,109,120,240
812800,108,120,200
813080,110,120,200
813360,108,120,160
813640,107,120,160
813920,107,120,160
814200,107,120,160
814480,108,120,160
814760,108,120,240
815080,106,120,480
815600,107,120,280
816160,105,120,280
816720,107,120,280
817320,106,120,240
817920,106,120,280
818520,103,120,280
819120,102,120,280
819680,102,120,280
820240,101,120,280
820760,101,120,280
821280,104,120,280
821800,107,120,280
822200,108,120,240
822520,107,120,200
822800,109,120,200
823080,108,120,160
823360,107,120,160
823640,106,120,160
823920,108,120,160
824200,107,120,160
824480,108,120,240
824800,105,120,560
825360,109,120,240
825920,106,120,280
826480,106,120,240
827080,104,120,240
827720,106,120,280
828320,104,120,280
828920,102,120,280
829480,102,120,280
830040,101,120,280
830560,101,120,280
831080,105,120,280
831600,107,120,280
832000,109,120,240
832320,108,120,200
832600,110,120,200
832880,108,120,160
833160,107,120,160
833440,107,120,160
833720,107,120,160
834000,108,120,160
834280,108,120,240
834600,106,120,480
835120,107,120,280
835680,105,120,280
836240,107,120,280
836840,106,120,240
837440,106,120,280
838040,103,120,280
838640,102,120,280
839200,102,120,280
839760,101,120,280
840280,101,120,280
840800,104,120,280
841320,107,120,280
841720,108,120,240
842040,107,120,200
842320,109,120,200
842600,108,120,160
842880,107,120,160
843160,106,120,160
843440,108,120,160
843720,107,120,160
844000,108,120,240
844320,105,120,560
844880,109,120,240
845440,106,120,280
846000,106,120,240
846600,104,120,240
847240,106,120,280
847840,104,120,280
848440,102,120,280
849000,102,120,280
849560,101,120,280
850080,101,120,280
850600,105,120,280
851120,107,120,280
851520,109,120,240
851840,108,120,200
852120,110,120,200
852400,108,120,160
852680,107,120,160
852960,107,120,160
853240,107,120,160
853520,108,120,160
853800,108,120,240
854120,106,120,480
854640,107,120,280
855200,105,120,280
855760,107,120,280
856360,106,120,240
856960,106,120,280
857560,103,120,280
858160,102,120,280
858720,102,120,280
859280,101,120,280
859800,101,120,280
860320,104,120,280
860840,107,120,280
861240,108,120,240
861560,107,120,200
861840,109,120,200
862120,108,120,160
862400,107,120,160
862680,106,120,160
862960,108,120,160
863240,107,120,160
863520,108,120,240
863840,105,120,560
864400,109,120,240
864960,106,120,280
865520,106,120,240
866120,104,120,240
866760,106,120,280
867360,104,120,280
867960,102,120,280
868520,102,120,280
869080,101,120,280
869600,101,120,280
870120,105,120,280
870640,107,120,280
871040,109,120,240
871360,108,120,200
871640,110,120,200
871920,108,120,160
872200,107,120,160
872480,107,120,160
872760,107,120,160
873040,108,120,160
873320,108,120,240
873640,106,120,480
874160,107,120,280
874720,105,120,280
875280,107,120,280
875880,106,120,240
876480,106,120,280
877080,103,120,280
877680,102,120,280
878240,102,120,280
878800,101,120,280
879320,101,120,280
879840,104,120,280
880360,107,120,280
880760,108,120,240
881080,107,120,200
881360,109,120,200
881640,108,120,160
881920,107,120,160
882200,106,120,160
882480,108,120,160
882760,107,120,160
883040,108,120,240
883360,105,120,560
883920,109,120,240
884480,106,120,280
885040,106,120,240
885640,104,120,240
886280,106,120,280
886880,104,120,280
887480,102,120,280
888040,102,120,280
888600,101,120,280
889120,101,120,280
889640,105,120,280
890160,107,120,280
890560,109,120,240
890880,108,120,200
891160,110,120,200
891440,108,120,160
891720,107,120,160
892000,107,120,160
892280,107,120,160
892560,108,120,160
892840,108,120,240
893160,106,120,480
893680,107,120,280
894240,105,120,280
894800,107,120,280
895400,106,120,240
896000,106,120,280
896600,103,120,280
897200,102,120,280
897760,102,120,280
898320,101,120,280
898840,101,120,280
899360,104,120,280
899880,107,120,280
900280,108,120,240
900600,107,120,200
900880,109,120,200
901160,108,120,160
901440,107,120,160
901720,106,120,160
902000,108,120,160
902280,107,120,160
902560,108,120,240
902880,105,120,560
903440,109,120,240
904000,106,120,280
904560,106,120,240
905160,104,120,240
905800,106,120,280
906400,104,120,280
907000,102,120,280
907560,102,120,280
908120,101,120,280
908640,101,120,280
909160,105,120,280
909680,107,120,280
910080,109,120,240
910400,108,120,200
910680,110,120,200
910960,108,120,160
911240,107,120,160
911520,107,120,160
911800,107,120,160
912080,108,120,160
912360,108,120,240
912680,106,120,480
913200,107,120,280
913760,105,120,280
914320,107,120,280
914920,106,120,240
915520,106,120,280
916120,103,120,280
916720,102,120,280
917280,102,120,280
917840,101,120,280
918360,101,120,280
918880,104,120,280
919400,107,120,280
919800,108,120,240
920120,107,120,200
920400,109,120,200
920680,108,120,160
920960,107,120,160
921240,106,120,160
921520,108,120,160
921800,107,120,160
922080,108,120,240
922400,105,120,560
922960,109,120,240
923520,106,120,280
924080,106,120,240
924680,104,120,240
925320,106,120,280
925920,104,120,280
926520,102,120,280
927080,102,120,280
927640,101,120,280
928160,101,120,280
928680,105,120,280
929200,107,120,280
929600,109,120,240
929920,108,120,200
930200,110,120,200
930480,108,120,160
930760,107,120,160
931040,107,120,160
931320,107,120,160
931600,108,120,160
931880,108,120,240
932200,106,120,480
932720,107,120,280
933280,105,120,280
933840,107,120,280
934440,106,120,240
935040,106,120,280
935640,103,120,280
936240,102,120,280
936800,102,120,280
937360,101,120,280
937880,101,120,280
938400,104,120,280
938920,107,120,280
939320,108,120,240
939640,107,120,200
939920,109,120,200
940200,108,120,160
940480,107,120,160
940760,106,120,160
941040,108,120,160
941320,107,120,160
941600,108,120,240
941920,105,120,560
942480,109,120,240
943040,106,120,280
943600,106,120,240
944200,104,120,240
944840,106,120,280
945440,104,120,280
946040,102,120,280
946600,102,120,280
947160,101,120,280
947680,101,120,280
948200,105,120,280
948720,107,120,280
949120,109,120,240
949440,108,120,200
949720,110,120,200
950000,108,120,160
950280,107,120,160
950560,107,120,160
950840,107,120,160
951120,108,120,160
951400,108,120,240
951720,106,120,480
952240,107,120,280
952800,105,120,280
953360,107,120,280
953960,106,120,240
954560,106,120,280
955160,103,120,280
955760,102,120,280
956320,102,120,280
956880,101,120,280
957400,101,120,280
957920,104,120,280
958440,107,120,280
958840,108,120,240
959160,107,120,200
959440,109,120,200
959720,108,120,160
960000,107,120,160
960280,106,120,160
960560,108,120,160
960840,107,120,160
961120,108,120,240
961440,105,120,560
962000,109,120,240
962560,106,120,280
963120,106,120,240
963720,104,120,240
964360,106,120,280
964960,104,120,280
965560,102,120,280
966120,102,120,280
966680,101,120,280
967200,101,120,280
967720,105,120,280
968240,107,120,280
968640,109,120,240
968960,108,120,200
969240,110,120,200
969520,108,120,160
969800,107,120,160
970080,107,120,160
970360,107,120,160
970640,108,120,160
970920,108,120,240
971240,106,120,480
971760,107,120,280
972320,105,120,280
972880,107,120,280
973480,106,120,240
974080,106,120,280
974680,103,120,280
975280,102,120,280
975840,102,120,280
976400,101,120,280
976920,101,120,280
977440,104,120,280
977960,107,120,280
978360,108,120,240
978680,107,120,200
978960,109,120,200
979240,108,120,160
979520,107,120,160
979800,106,120,160
980080,108,120,160
980360,107,120,160
980640,108,120,240
980960,105,120,560
981520,109,120,240
982080,106,120,280
982640,106,120,240
983240,104,120,240
983880,106,120,280
984480,104,120,280
985080,102,120,280
985640,102,120,280
986200,101,120,280
986720,101,120,280
987240,105,120,280
987760,107,120,280
988160,109,120,240
988480,108,120,200
988760,110,120,200
989040,108,120,160
989320,107,120,160
989600,107,120,160
989880,107,120,160
990160,108,120,160
990440,108,120,240
990760,106,120,480
991280,107,120,280
991840,105,120,280
992400,107,120,280
993000,106,120,240
993600,106,120,280
994200,103,120,280
994800,102,120,280
995360,102,120,280
995920,101,120,280
996440,101,120,280
996960,104,120,280
997480,107,120,280
997880,108,120,240
998200,107,120,200
998480,109,120,200
998760,108,120,160
999040,107,120,160
999320,106,120,160
999600,108,120,160
999880,107,120,160
1000160,108,120,240
1000480,105,120,560
1001040,109,120,240
1001600,106,120,280
1002160,106,120,240
1002760,104,120,240
1003400,106,120,280
1004000,104,120,280
1004600,102,120,280
1005160,102,120,280
1005720,101,120,280
1006240,101,120,280
1006760,105,120,280
1007280,107,120,280
1007680,109,120,240
1008000,108,120,200
1008280,110,120,200
1008560,108,120,160
1008840,107,120,160
1009120,107,120,160
1009400,107,120,160
1009680,108,120,160
1009960,108,120,240
1010280,106,120,480
1010800,107,120,280
1011360,105,120,280
1011920,107,120,280
1012520,106,120,240
1013120,106,120,280
1013720,103,120,280
1014320,102,120,280
1014880,102,120,280
1015440,101,120,280
1015960,101,120,280
1016480,104,120,280
1017000,107,120,280
1017400,108,120,240
1017720,107,120,200
1018000,109,120,200
1018280,108,120,160
1018560,107,120,160
1018840,106,120,160
1019120,108,120,160
1019400,107,120,160
1019680,108,120,240
1020000,105,120,560
1020560,109,120,240
1021120,106,120,280
1021680,106,120,240
1022280,104,120,240
1022920,106,120,280
1023520,104,120,280
1024120,102,120,280
1024680,102,120,280
1025240,101,120,280
1025760,101,120,280
1026280,105,120,280
1026800,107,120,280
1027200,109,120,240
1027520,108,120,200
1027800,110,120,200
1028080,108,120,160
1028360,107,120,160
1028640,107,120,160
1028920,107,120,160
1029200,108,120,160
1029480,108,120,240
1029800,106,120,480
1030320,107,120,280
1030880,105,120,280
1031440,107,120,280
1032040,106,120,240
1032640,106,120,280
1033240,103,120,280
1033840,102,120,280
1034400,102,120,280
1034960,101,120,280
1035480,101,120,280
1036000,104,120,280
1036520,107,120,280
1036920,108,120,240
1037240,107,120,200
1037520,109,120,200
1037800,108,120,160
1038080,107,120,160
1038360,106,120,160
1038640,108,120,160
1038920,107,120,160
1039200,108,120,240
1039520,105,120,560
1040080,109,120,240
1040640,106,120,280
1041200,106,120,240
1041800,104,120,240
1042440,106,120,280
1043040,104,120,280
1043640,102,120,280
1044200,102,120,280
1044760,101,120,280
1045280,101,120,280
1045800,105,120,280
1046320,107,120,280
1046720,109,120,240
1047040,108,120,200
1047320,110,120,200
1047600,108,120,160
1047880,107,120,160
1048160,107,120,160
1048440,107,120,160
1048720,108,120,160
1049000,108,120,240
1049320,106,120,480
1049840,107,120,280
1050400,105,120,280
1050960,107,120,280
1051560,106,120,240
1052160,106,120,280
1052760,103,120,280
1053360,102,120,280
1053920,102,120,280
1054480,101,120,280
1055000,101,120,280
1055520,104,120,280
1056040,107,120,280
1056440,108,120,240
1056760,107,120,200
1057040,109,120,200
1057320,108,120,160
1057600,107,120,160
1057880,106,120,160
1058160,108,120,160
1058440,107,120,160
1058720,108,120,240
1059040,105,120,560
1059600,109,120,240
1060160,106,120,280
1060720,106,120,240
1061320,104,120,240
1061960,106,120,280
1062560,104,120,280
1063160,102,120,280
1063720,102,120,280
1064280,101,120,280
1064800,101,120,280
1065320,105,120,280
1065840,107,120,280
1066240,109,120,240
1066560,108,120,200
1066840,110,120,200
1067120,108,120,160
1067400,107,120,160
1067680,107,120,160
1067960,107,120,160
1068240,108,120,160
1068520,108,120,240
1068840,106,120,480
1069360,107,120,280
1069920,105,120,280
1070480,107,120,280
1071080,106,120,240
1071680,106,120,280
1072280,103,120,280
1072880,102,120,280
1073440,102,120,280
1074000,101,120,280
1074520,101,120,280
1075040,104,120,280
1075560,107,120,280
1075960,108,120,240
1076280,107,120,200
1076560,109,120,200
1076840,108,120,160
1077120,107,120,160
1077400,106,120,160
1077680,108,120,160
1077960,107,120,160
1078240,108,120,240
1078560,105,120,560
1079120,109,120,240
1079680,106,120,280
1080240,106,120,240
1080840,104,120,240
1081480,106,120,280
1082080,104,120,280
1082680,102,120,280
1083240,102,120,280
1083800,101,120,280
1084320,101,120,280
1084840,105,120,280
1085360,107,120,280
1085760,109,120,240
1086080,108,120,200
1086360,110,120,200
1086640,108,120,160
1086920,107,120,160
1087200,107,120,160
1087480,107,120,160
1087760,108,120,160
1088040,108,120,240
1088360,106,120,480
1088880,107,120,280
1089440,105,120,280
1090000,107,120,280
1090600,106,120,240
1091200,106,120,280
1091800,103,120,280
1092400,102,120,280
1092960,102,120,280
1093520,101,120,280
1094040,101,120,280
1094560,104,120,280
1095080,107,120,280
1095480,108,120,240
1095800,107,120,200
1096080,109,120,200
1096360,108,120,160
1096640,107,120,160
1096920,106,120,160
1097200,108,120,160
1097480,107,120,160
1097760,108,120,240
1098080,105,120,560
1098640,109,120,240
1099200,106,120,280
1099760,106,120,240
1100360,104,120,240
1101000,106,120,280
1101600,104,120,280
1102200,102,120,280
1102760,102,120,280
1103320,101,120,280
