time,note,velocity,duration
0,56,79,3840
3840,49,75,160
4000,56,60,160
4160,61,64,160
4320,64,65,160
4480,61,62,160
4640,56,61,160
4800,49,57,160
4960,56,58,160
5120,61,60,160
5280,64,60,160
5440,61,58,160
5600,56,57,160
5760,49,53,160
5920,56,54,160
6080,61,55,160
6240,64,54,160
6400,61,52,160
6560,56,50,160
6720,49,45,160
6880,56,47,160
7040,61,49,160
7200,64,46,160
7360,61,43,160
7520,56,38,160
7680,49,22,160
7800,68,37,120
7840,56,25,160
7920,69,41,120
8000,61,28,160
8040,68,38,120
8160,67,39,120
8280,68,40,120
8320,61,28,160
8400,73,42,120
8480,56,27,160
8520,76,43,120
8640,75,45,120
8760,73,43,120
8800,56,28,160
8880,75,45,120
8960,61,30,160
9000,73,43,120
9120,72,44,120
9240,73,46,120
9280,61,28,160
9360,76,49,120
9440,56,27,160
9480,80,47,120
9600,49,27,160
9720,68,45,120
9760,56,30,160
9840,69,49,120
9920,61,34,160
9960,68,45,120
10080,67,46,120
10200,68,48,120
10240,61,34,160
10320,73,50,120
10400,56,33,160
10440,76,51,120
10560,75,54,120
10680,73,51,120
10720,56,33,160
10800,75,53,120
10880,61,36,160
10920,73,51,120
11040,72,52,120
11160,73,54,120
11200,61,34,160
11280,76,57,120
11360,56,32,160
11400,80,55,120
11520,51,31,160
11640,69,55,120
11680,57,35,160
11760,73,55,120
11840,61,39,160
11880,75,58,120
12000,78,61,120
12120,81,64,120
12160,61,39,160
12240,85,67,120
12320,57,37,160
12360,87,70,120
12480,95,74,120
12600,93,72,120
12640,61,40,160
12720,92,71,120
12800,63,44,160
12840,90,70,120
12960,88,69,120
13080,87,68,120
13120,63,44,160
13200,90,67,120
13280,61,41,160
13320,85,66,120
13440,84,68,120
13560,87,63,120
13600,51,35,160
13680,81,63,120
13760,54,38,160
13800,80,63,120
13920,78,60,120
14040,81,58,120
14080,54,36,160
14160,76,54,120
14240,51,34,160
14280,75,54,120
14400,78,53,120
14520,73,48,120
14560,51,31,160
14640,72,48,120
14720,54,33,160
14760,75,47,120
14880,69,45,120
15000,68,42,120
15040,54,29,160
15120,71,42,120
15200,51,26,160
15240,69,41,240
15360,49,22,160
15480,68,37,120
15520,56,25,160
15600,69,41,120
15680,61,28,160
15720,68,38,120
15840,67,39,120
15960,68,40,120
16000,61,28,160
16080,73,42,120
16160,56,27,160
16200,76,43,120
16320,75,45,120
16440,73,43,120
16480,56,28,160
16560,75,45,120
16640,61,30,160
16680,73,43,120
16800,72,44,120
16920,73,46,120
16960,61,28,160
17040,76,49,120
17120,56,27,160
17160,80,47,120
17280,49,27,160
17400,68,45,120
17440,56,30,160
17520,70,49,120
17600,58,34,160
17640,68,45,120
17760,67,46,120
17880,68,48,120
17920,58,34,160
18000,73,50,120
18080,56,33,160
18120,76,51,120
18240,75,54,120
18360,73,51,120
18400,56,33,160
18480,75,53,120
18560,58,36,160
18600,73,51,120
18720,72,52,120
18840,73,54,120
18880,58,34,160
18960,76,57,120
19040,56,32,160
19080,80,55,120
19200,75,64,120
19320,76,58,120
19360,56,34,160
19440,75,61,120
19520,59,37,160
19560,74,50,120
19680,75,56,120
19800,83,68,120
19840,59,38,160
19920,82,62,120
20000,56,35,160
20040,80,65,120
20160,79,69,120
20280,88,73,120
20320,58,41,160
20400,87,72,120
20480,61,45,160
20520,85,72,120
20640,83,75,120
20760,82,69,120
20800,61,44,160
20880,80,68,120
20960,58,41,160
21000,79,68,120
21120,82,72,120
21240,80,70,120
21280,51,35,160
21360,83,64,120
21440,56,37,160
21480,74,57,120
21600,76,65,120
21720,75,57,120
21760,56,39,160
21840,80,63,120
21920,51,37,160
21960,70,57,120
22080,73,61,120
22200,71,59,120
22240,51,35,160
22320,75,58,120
22400,56,38,160
22440,67,56,120
22560,70,60,120
22680,68,51,120
22720,56,35,160
22800,67,55,120
22880,51,33,160
22920,68,50,120
23040,68,72,120
23160,80,58,120
23200,49,41,160
23280,72,59,120
23360,54,43,160
23400,73,59,120
23520,66,71,120
23640,78,60,120
23680,54,44,160
23760,72,60,120
23840,49,42,160
23880,73,61,120
24000,65,75,120
24120,77,62,120
24160,49,44,160
24240,72,63,120
24320,54,45,160
24360,73,63,120
24480,66,74,120
24600,78,65,120
24640,54,45,160
24720,72,64,120
24800,49,44,160
24840,73,64,120
24960,61,77,120
25080,73,65,120
25120,54,46,160
25200,66,65,120
25280,57,48,160
25320,69,65,120
25440,63,75,120
25560,75,65,120
25600,57,47,160
25680,66,65,120
25760,54,45,160
25800,69,65,120
25920,64,79,120
26040,76,66,120
26080,47,46,160
26160,68,66,120
26240,52,48,160
26280,71,66,120
26400,68,77,120
26520,80,67,120
26560,52,46,160
26640,71,66,120
26720,47,45,160
26760,76,65,120
26880,68,81,120
27000,80,65,120
27040,49,46,160
27120,72,65,120
27200,54,48,160
27240,73,65,120
27360,66,78,120
27480,78,65,120
27520,54,47,160
27600,72,65,120
27680,49,45,160
27720,73,65,120
27840,65,79,120
27960,77,66,120
28000,49,46,160
28080,72,66,120
28160,54,48,160
28200,73,66,120
28320,66,77,120
28440,78,67,120
28480,54,46,160
28560,72,66,120
28640,49,45,160
28680,73,65,120
28800,65,81,120
28920,77,65,120
28960,51,46,160
29040,71,65,120
29120,57,48,160
29160,75,65,120
29280,66,78,120
29400,78,65,120
29440,57,47,160
29520,71,65,120
29600,51,45,160
29640,75,65,120
29760,69,79,120
29880,81,66,120
29920,47,46,160
30000,71,66,120
30080,52,48,160
30120,76,66,120
30240,68,77,120
30360,80,67,120
30400,52,46,160
30480,71,66,120
30560,47,45,160
30600,76,65,120
30720,68,52,120
30840,80,57,120
30880,49,33,160
30960,72,47,120
31040,54,34,160
31080,73,47,120
31200,66,49,120
31320,78,54,120
31360,54,34,160
31440,72,48,120
31520,49,34,160
31560,73,48,120
31680,65,51,120
31800,77,56,120
31840,49,34,160
31920,72,50,120
32000,54,36,160
32040,73,50,120
32160,66,53,120
32280,78,58,120
32320,54,35,160
32400,72,51,120
32480,49,34,160
32520,73,51,120
32640,61,55,120
32760,73,60,120
32800,54,37,160
32880,66,52,120
32960,57,38,160
33000,69,53,120
33120,63,55,120
33240,75,62,120
33280,57,38,160
33360,66,54,120
33440,54,38,160
33480,69,54,120
33600,64,57,120
33720,76,65,120
33760,47,39,160
33840,68,56,120
33920,52,40,160
33960,71,56,120
34080,68,60,120
34200,80,68,120
34240,52,40,160
34320,71,57,120
34400,47,39,160
34440,76,58,120
34560,68,62,120
34680,80,68,120
34720,49,42,160
34800,72,59,120
34880,54,43,160
34920,73,59,120
35040,66,62,120
35160,78,70,120
35200,54,43,160
35280,72,61,120
35360,49,42,160
35400,73,61,120
35520,75,64,120
35640,87,73,120
35680,51,44,160
35760,78,62,120
35840,54,45,160
35880,81,62,120
36000,73,66,120
36120,85,74,120
36160,54,44,160
36240,78,62,120
36320,51,42,160
36360,81,62,120
36480,73,64,120
36600,85,73,120
36640,51,44,160
36720,75,61,120
36800,54,45,160
36840,78,61,120
36960,72,64,120
37080,84,71,120
37120,54,42,160
37200,75,60,120
37280,51,40,160
37320,78,59,120
37440,72,60,120
37560,84,69,120
37600,51,41,160
37680,75,58,120
37760,54,42,160
37800,78,58,120
37920,72,61,120
38040,84,68,120
38080,54,39,160
38160,75,57,120
38240,51,38,160
38280,78,56,120
38400,72,57,120
38520,84,65,120
38560,51,39,160
38640,75,55,120
38720,54,40,160
38760,78,55,120
38880,71,58,120
39000,83,64,120
39040,54,38,160
39120,75,53,120
39200,51,36,160
39240,78,53,120
39360,71,54,120
39480,83,62,120
39520,51,37,160
39600,75,52,120
39680,54,38,160
39720,78,52,120
39840,70,54,120
39960,82,60,120
40000,54,35,160
40080,75,50,120
40160,51,34,160
40200,78,50,120
40320,70,55,120
40446,82,49,120
40480,51,34,160
40560,75,48,120
40640,54,35,160
40680,78,48,120
40800,69,53,120
40926,81,48,120
40960,54,34,160
41040,75,47,120
41120,51,32,160
41160,78,47,120
41280,69,52,120
41400,81,49,120
41440,51,33,160
41520,75,45,120
41600,54,33,160
41640,78,45,120
41760,69,51,120
41880,81,47,120
41920,54,31,160
42000,75,44,120
42080,51,29,160
42120,78,44,120
42240,72,52,120
42366,84,47,120
42400,51,29,160
42480,75,46,120
42560,54,29,160
42600,78,46,120
42720,71,49,120
42840,83,44,120
42880,54,29,160
42960,75,44,120
43040,51,28,160
43080,78,44,120
43200,71,48,120
43320,83,45,120
43360,51,26,160
43440,75,42,120
43520,54,27,160
43560,78,42,120
43680,70,47,120
43800,82,43,120
43840,54,27,160
43920,75,40,120
44000,51,25,160
44040,78,40,120
44160,70,46,120
44280,82,42,120
44320,51,26,160
44400,75,41,120
44480,54,27,160
44520,78,41,120
44640,69,44,120
44760,81,40,120
44800,54,27,160
44880,75,40,120
44960,51,25,160
45000,78,39,120
45120,69,43,120
45240,81,40,120
45280,51,23,160
45360,75,37,120
45440,54,24,160
45480,78,37,120
45600,68,42,120
45720,80,38,120
45760,54,23,160
45840,75,36,120
45920,51,22,160
45960,78,35,120
46080,49,22,160
46200,68,37,120
46240,56,25,160
46320,69,41,120
46400,61,28,160
46440,68,38,120
46560,67,39,120
46680,68,40,120
46720,61,28,160
46800,73,42,120
46880,56,27,160
46920,76,43,120
47040,75,45,120
47160,73,43,120
47200,56,28,160
47280,75,45,120
47360,61,30,160
47400,73,43,120
47520,72,44,120
47640,73,46,120
47680,61,28,160
47760,76,49,120
47840,56,27,160
47880,80,47,120
48000,49,27,160
48120,68,45,120
48160,56,30,160
48240,69,49,120
48320,61,34,160
48360,68,45,120
48480,67,46,120
48600,68,48,120
48640,61,34,160
48720,73,50,120
48800,56,33,160
48840,76,51,120
48960,75,54,120
49080,73,51,120
49120,56,33,160
49200,75,53,120
49280,61,36,160
49320,73,51,120
49440,72,52,120
49560,73,54,120
49600,61,34,160
49680,76,57,120
49760,56,32,160
49800,80,55,120
49920,51,31,160
50040,69,56,120
50080,57,35,160
50160,73,57,120
50240,61,39,160
50280,75,59,120
50400,78,61,120
50520,81,66,120
50560,61,39,160
50640,85,69,120
50720,57,37,160
50760,87,71,120
50880,95,73,120
51000,93,71,120
51040,61,40,160
51120,92,71,120
51200,63,44,160
51240,90,70,120
51360,88,69,120
51480,87,68,120
51520,63,44,160
51600,90,67,120
51680,61,41,160
51720,85,67,120
51840,84,68,120
51960,87,64,120
52000,51,36,160
52080,81,65,120
52160,54,39,160
52200,80,65,120
52320,78,64,120
52440,81,62,120
52480,54,39,160
52560,76,59,120
52640,51,37,160
52680,75,59,120
52800,78,59,120
52920,73,55,120
52960,51,35,160
53040,72,55,120
53120,54,38,160
53160,75,55,120
53280,69,54,120
53400,68,51,120
53440,54,35,160
53520,71,51,120
53600,51,33,160
53640,69,50,240
53760,49,28,160
53880,68,47,120
53920,56,32,160
54000,69,51,120
54080,61,34,160
54120,68,47,120
54240,67,48,120
54360,68,49,120
54400,61,35,160
54480,73,51,120
54560,56,33,160
54600,76,52,120
54720,75,54,120
54840,73,51,120
54880,56,33,160
54960,75,53,120
55040,61,35,160
55080,73,51,120
55200,72,51,120
55320,73,53,120
55360,61,33,160
55440,76,57,120
55520,56,31,160
55560,80,54,120
55680,76,52,120
55800,75,48,120
55840,61,33,160
55920,76,52,120
56000,63,35,160
56040,75,48,120
56160,74,49,120
56280,75,50,120
56320,63,36,160
56400,78,53,120
56480,61,34,160
56520,81,54,120
56640,78,56,120
56760,77,54,120
56800,61,34,160
56880,78,56,120
56960,65,37,160
57000,77,54,120
57120,76,54,120
57240,77,56,120
57280,65,34,160
57360,80,59,120
57440,61,33,160
57480,85,57,120
57600,57,30,160
57720,73,50,120
57760,61,34,160
57840,74,55,120
57920,66,37,160
57960,73,51,120
58080,72,52,120
58200,73,53,120
58240,66,39,160
58320,78,56,120
58400,61,35,160
58440,81,57,120
58560,78,59,120
58680,77,56,120
58720,61,36,160
58800,78,59,120
58880,65,39,160
58920,77,57,120
59040,76,57,120
59160,77,59,120
59200,65,37,160
59280,80,63,120
59360,61,34,160
59400,85,59,120
59520,80,58,120
59640,78,53,120
59680,61,36,160
59760,80,58,120
59840,66,39,160
59880,78,54,120
60000,77,55,120
60120,78,56,120
60160,66,40,160
60240,81,59,120
60320,61,38,160
60360,85,60,120
60480,81,63,120
60600,80,59,120
60640,54,38,160
60720,81,62,120
60800,56,41,160
60840,80,60,120
60960,79,60,120
61080,80,62,120
61120,56,39,160
61200,84,66,120
61280,54,37,160
61320,87,63,120
61440,80,69,120
61560,81,64,120
61600,56,39,160
61680,80,67,120
61760,61,43,160
61800,79,58,120
61920,80,62,120
62040,88,71,120
62080,61,44,160
62160,87,71,120
62240,56,42,160
62280,86,70,120
62400,85,69,120
62520,84,69,120
62560,56,41,160
62640,83,68,120
62720,60,45,160
62760,82,67,120
62880,81,67,120
63000,80,66,120
63040,60,44,160
63120,79,65,120
63200,56,41,160
63240,78,64,120
63360,76,69,120
63480,78,64,120
63520,56,39,160
63600,76,67,120
63680,61,43,160
63720,75,58,120
63840,76,62,120
63960,88,71,120
64000,61,44,160
64080,87,71,120
64160,56,42,160
64200,86,70,120
64320,85,70,120
64440,84,71,120
64480,61,41,160
64560,83,71,120
64640,63,45,160
64680,82,72,120
64800,81,73,120
64920,80,74,120
64960,63,48,160
65040,79,75,120
65120,61,51,160
65160,78,76,120
65280,80,76,60
65520,92,85,120
65640,91,85,120
65760,90,84,120
65880,89,84,120
66000,88,83,120
66120,87,83,120
66240,86,82,120
66360,85,81,120
66480,84,81,120
66600,83,80,120
66720,82,80,120
66840,81,79,120
66960,80,79,120
67080,79,78,120
67200,78,77,120
67320,77,77,120
67440,76,77,120
67560,75,77,120
67680,74,77,120
67800,73,77,120
67920,72,77,120
68040,71,77,120
68160,70,77,120
68280,69,78,120
68400,68,80,120
68520,67,82,120
68640,66,85,120
68760,64,87,120
68880,63,90,120
69000,61,92,120
69120,56,94,120
69600,93,90,120
69720,92,81,120
69840,100,77,120
69960,88,77,120
70080,90,90,120
70200,88,77,120
70320,97,77,120
70440,85,77,120
70560,87,89,120
70680,85,77,120
70800,92,77,120
70920,80,77,120
71040,81,89,120
71160,80,77,120
71280,88,77,120
71400,76,77,120
71520,78,88,120
71640,76,77,120
71760,85,77,120
71880,73,77,120
72000,75,89,120
72120,73,77,120
72240,80,77,120
72360,68,77,120
72480,69,90,120
72600,68,77,120
72720,76,77,120
72840,64,77,120
72960,66,88,120
73080,64,77,120
73200,73,77,120
73320,61,77,120
73440,63,89,120
73560,61,77,120
73680,68,77,120
73800,56,77,120
73920,63,89,120
74040,61,77,120
74160,68,77,120
74280,56,77,120
74400,63,89,120
74520,61,77,120
74640,69,77,120
74760,57,77,120
74880,63,89,120
75000,61,75,120
75120,68,74,120
75240,56,73,120
75360,63,83,120
75480,61,71,120
75600,67,71,120
75720,55,70,120
75840,63,79,120
75960,61,68,120
76080,68,67,120
76200,56,66,120
76320,63,75,120
76440,60,63,120
76560,68,63,120
76680,56,62,120
76800,37,95,160
76960,44,55,160
77120,49,56,160
77280,53,56,160
77440,56,58,160
77600,61,59,160
77760,65,59,160
77920,61,57,160
78080,56,52,160
78240,53,49,160
78400,49,46,160
78560,44,41,160
78720,37,40,160
78880,44,41,160
79040,49,42,160
79200,53,43,160
79360,56,44,160
79520,61,45,160
79680,65,45,160
79840,61,45,160
80000,56,44,160
80160,53,43,160
80320,49,42,160
80480,44,41,320
80640,68,45,960
80800,56,26,160
80960,60,27,160
81120,63,28,160
81280,60,28,160
81440,56,27,160
81600,70,42,60
81660,72,42,60
81720,70,46,120
81760,56,27,160
81840,68,45,240
81920,60,28,160
82080,73,45,240
82240,60,27,160
82320,75,48,240
82400,56,26,160
82560,77,51,960
82720,56,28,160
82880,61,28,160
83040,65,29,160
83200,61,30,160
83360,56,28,160
83520,80,56,960
83680,56,28,160
83840,65,29,160
84000,68,49,480
84160,65,30,160
84320,56,29,160
84480,78,53,480
84640,63,26,160
84800,56,26,160
84960,77,51,480
85120,61,26,160
85280,56,26,160
85440,75,49,480
85600,60,23,160
85760,56,23,160
85920,77,51,360
86080,56,24,160
86240,53,24,160
86280,73,47,120
86400,68,48,960
86560,51,27,160
86720,56,27,160
86880,60,28,160
87040,56,27,160
87200,51,27,160
87360,70,48,1920
87520,54,27,160
87680,58,28,160
87840,61,29,160
88000,58,28,160
88160,53,28,160
88320,46,27,160
88480,53,27,160
88640,58,28,160
88800,62,28,160
88960,58,28,160
89120,53,27,160
89280,71,42,60
89340,73,42,60
89400,71,46,120
89440,58,29,160
89520,70,45,240
89600,62,30,160
89760,75,45,240
89920,62,31,160
90000,77,48,240
90080,58,29,160
90240,78,51,480
90400,66,31,160
90560,58,28,160
90720,77,50,480
90880,65,30,160
91040,57,28,160
91200,75,51,480
91360,63,28,160
91520,58,29,160
91680,77,49,480
91840,66,27,160
92000,60,27,160
92160,73,48,720
92320,56,27,160
92480,61,29,160
92640,65,30,160
92800,61,29,160
92880,72,49,60
92940,73,45,60
92960,56,27,160
93000,75,45,60
93060,73,45,60
93120,77,50,720
93280,55,28,160
93440,61,29,160
93600,63,30,160
93760,61,29,160
93840,75,49,240
93920,55,27,160
94080,75,47,1920
94240,51,25,160
94400,56,27,160
94560,60,28,160
94720,56,27,160
94880,51,27,160
95040,44,25,160
95200,51,25,160
95360,54,27,160
95520,58,28,160
95680,54,26,160
95840,51,25,160
96000,68,45,960
96160,51,26,160
96320,56,27,160
96480,60,28,160
96640,56,28,160
96800,51,27,160
96960,70,42,60
97020,72,42,60
97080,70,46,120
97120,56,27,160
97200,68,45,240
97280,60,28,160
97440,73,45,240
97600,60,27,160
97680,75,48,240
97760,58,26,160
97920,77,51,960
98080,56,28,160
98240,61,28,160
98400,65,29,160
98560,61,30,160
98720,56,28,160
98880,80,56,960
99040,56,28,160
99200,65,29,160
99360,68,49,480
99520,65,30,160
99680,56,29,160
99840,78,53,480
100000,63,26,160
100160,56,26,160
100320,77,51,480
100480,61,26,160
100640,56,26,160
100800,75,49,240
100960,60,23,160
101040,77,47,60
101100,75,47,60
101120,56,23,160
101160,73,47,60
101220,75,47,60
101280,77,51,360
101440,56,24,160
101600,53,24,160
101640,73,47,120
101760,68,48,960
101920,51,27,160
102080,56,27,160
102240,60,28,160
102400,56,27,160
102560,51,27,160
102720,70,48,1920
102880,54,27,160
103040,58,28,160
103200,61,29,160
103360,58,28,160
103520,54,28,160
103680,46,27,160
103840,53,27,160
104000,58,28,160
104160,62,28,160
104320,58,28,160
104480,53,27,160
104640,71,42,60
104700,73,42,60
104760,71,46,120
104800,58,29,160
104880,70,45,240
104960,62,30,160
105120,75,45,240
105280,62,31,160
105360,77,48,240
105440,58,29,160
105600,78,51,480
105760,66,31,160
105920,58,28,160
106080,77,50,480
106240,65,30,160
106400,57,28,160
106560,75,51,480
106720,63,28,160
106880,58,29,160
107040,77,49,480
107200,66,27,160
107360,60,27,160
107520,73,48,720
107680,56,27,160
107840,61,29,160
108000,65,30,160
108160,61,29,160
108240,67,49,60
108300,68,45,60
108320,56,27,160
108360,70,45,60
108420,68,45,60
108480,77,50,720
108640,56,28,160
108800,60,29,160
108960,66,30,160
109120,60,29,160
109200,75,49,240
109280,56,27,160
109440,75,52,960
109600,56,28,160
109760,60,30,160
109920,66,31,160
110080,60,30,160
110240,56,28,160
110400,73,52,480
110560,56,27,160
110720,61,28,160
110880,65,30,160
111040,61,28,160
111120,80,60,240
111200,56,27,160
111360,68,65,960
111520,51,33,160
111680,56,34,160
111840,60,34,160
112000,56,33,160
112160,51,32,160
112320,70,59,60
112380,72,59,60
112440,70,64,240
112480,51,33,160
112640,55,34,160
112680,69,57,120
112800,70,64,360
112960,55,33,160
113120,51,30,160
113160,72,62,120
113280,68,66,240
113440,51,30,160
113600,56,32,160
113760,84,66,617
113920,56,32,160
114080,51,30,160
114240,49,27,160
114377,82,63,137
114400,56,29,160
114514,80,62,137
114560,61,30,160
114651,76,61,137
114720,64,31,160
114788,73,59,137
114880,61,30,160
114925,70,58,206
115040,56,29,160
115131,80,55,69
115200,63,66,900
115360,51,33,160
115520,56,34,160
115680,60,34,160
115840,56,33,160
116000,51,32,160
116100,72,59,60
116160,70,64,360
116320,51,33,160
116480,55,34,160
116520,69,57,120
116640,70,64,360
116800,55,33,160
116960,51,30,160
117000,75,62,120
117120,68,65,480
117280,51,30,160
117440,56,32,160
117600,60,33,160
117760,56,32,160
117920,51,30,160
118080,70,39,480
118240,54,20,160
118400,58,22,160
118560,73,44,160
118720,72,39,160
118880,70,39,160
119040,68,43,960
119200,56,22,160
119360,60,22,160
119520,63,23,160
119680,60,23,160
119840,56,22,160
120000,70,46,48
120048,72,42,48
120096,70,42,48
120144,72,44,48
120160,56,23,160
120192,70,42,48
120240,68,41,240
120320,60,25,160
120480,73,45,240
120640,60,26,160
120720,75,48,240
120800,56,25,160
120960,77,51,960
121120,56,28,160
121280,61,28,160
121440,65,29,160
121600,61,30,160
121760,56,28,160
121920,80,56,960
122080,56,28,160
122240,65,29,160
122400,68,49,480
122560,65,30,160
122720,56,29,160
122880,78,53,480
123040,63,26,160
123200,56,26,160
123360,77,51,480
123520,61,26,160
123680,56,26,160
123840,75,49,240
124000,60,23,160
124080,77,47,60
124140,75,47,60
124160,56,23,160
124200,73,47,60
124260,75,47,60
124320,77,51,240
124480,56,24,160
124560,73,47,240
124640,53,24,160
124800,68,48,960
124960,51,27,160
125120,56,27,160
125280,60,28,160
125440,56,27,160
125600,51,27,160
125760,70,48,1920
125920,54,27,160
126080,58,28,160
126240,61,29,160
126400,58,28,160
126560,54,28,160
126720,46,27,160
126880,53,27,160
127040,58,28,160
127200,62,28,160
127360,58,28,160
127520,53,27,160
127680,71,45,48
127728,73,42,48
127776,71,41,48
127824,73,42,48
127840,58,29,160
127876,71,42,48
127920,70,45,240
128000,62,30,160
128160,75,45,240
128320,62,31,160
128400,77,48,240
128480,58,29,160
128640,78,51,480
128800,66,31,160
128960,58,28,160
129120,77,50,480
129280,65,30,160
129440,57,28,160
129600,75,51,480
129760,63,28,160
129920,58,29,160
130080,77,49,480
130240,66,27,160
130400,60,27,160
130560,73,48,720
130720,56,27,160
130880,61,29,160
131040,65,30,160
131200,61,29,160
131280,67,49,60
131340,68,45,60
131360,56,27,160
131400,70,45,60
131460,68,45,60
131520,77,50,720
131680,56,28,160
131840,60,29,160
132000,66,30,160
132160,60,29,160
132240,75,49,240
132320,56,27,160
132480,75,52,960
132640,56,28,160
132800,60,30,160
132960,66,31,160
133120,60,30,160
133280,56,28,160
133440,73,52,480
133600,56,27,160
133760,61,28,160
133920,65,30,160
134080,61,28,160
134160,80,60,240
134240,56,27,160
134400,68,65,960
134560,51,33,160
134720,56,34,160
134880,60,34,160
135040,56,33,160
135200,51,32,160
135360,70,65,60
135420,72,59,60
135480,70,60,60
135520,51,33,160
135540,72,59,60
135600,70,56,40
135640,72,56,40
135680,70,56,40
135720,69,62,120
135840,70,64,360
136000,55,33,160
136160,51,30,160
136200,72,62,120
136320,68,66,240
136480,51,30,160
136640,56,32,160
136800,84,66,617
136960,56,32,160
137120,51,30,160
137280,49,27,160
137417,82,63,137
137440,56,29,160
137554,80,62,137
137600,61,30,160
137691,76,61,137
137760,64,31,160
137828,73,59,137
137920,61,30,160
137965,70,58,206
138080,56,29,160
138171,80,55,69
138240,63,66,900
138400,51,33,160
138560,56,34,160
138720,60,34,160
138880,56,33,160
139040,51,32,160
139140,72,59,60
139200,70,64,360
139360,51,33,160
139520,55,34,160
139560,69,57,120
139680,70,64,360
139840,55,33,160
140000,51,30,160
140040,75,62,120
140160,68,65,480
140320,51,30,160
140480,56,32,160
140640,60,33,160
140800,56,32,160
140960,51,30,160
141120,70,39,480
141280,54,20,160
141440,58,22,160
141600,73,44,160
141760,72,39,160
141920,70,39,160
142080,68,43,960
142240,51,22,160
142400,56,22,160
142560,60,23,160
142720,56,23,160
142880,51,22,160
143040,70,47,48
143088,72,43,48
143136,70,43,48
143184,72,43,48
143200,56,23,160
143232,70,43,48
143280,68,45,240
143360,60,25,160
143520,73,45,240
143680,60,26,160
143760,75,48,240
143840,58,25,160
144000,77,51,960
144160,56,28,160
144320,61,28,160
144480,65,29,160
144640,61,30,160
144800,56,28,160
144960,80,56,960
145120,56,28,160
145280,65,29,160
145440,68,49,480
145600,65,30,160
145760,56,29,160
145920,78,53,480
146080,63,26,160
146240,56,26,160
146400,77,51,480
146560,61,26,160
146720,56,26,160
146880,75,49,240
147040,60,23,160
147120,77,47,60
147180,75,47,60
147200,56,23,160
147240,73,47,60
147300,75,47,60
147360,77,51,240
147520,56,24,160
147600,73,47,240
147680,53,24,160
147840,68,48,960
148000,51,27,160
148160,56,27,160
148320,60,28,160
148480,56,27,160
148640,51,27,160
148800,70,48,1920
148960,54,27,160
149120,58,28,160
149280,61,29,160
149440,58,28,160
149600,54,28,160
149760,46,27,160
149920,53,27,160
150080,58,28,160
150240,62,28,160
150400,58,28,160
150560,53,27,160
150720,71,48,48
150768,73,42,48
150816,71,43,48
150864,73,42,48
150880,58,29,160
150912,71,42,48
150960,70,45,240
151040,62,30,160
151200,75,45,240
151360,62,31,160
151440,77,48,240
151520,58,29,160
151680,78,51,480
151840,66,31,160
152000,58,28,160
152160,77,47,480
152320,65,28,160
152480,57,28,160
152640,75,49,480
152800,63,25,160
152960,58,25,160
153120,77,45,480
153280,66,27,160
153440,60,27,160
153600,73,43,720
153760,56,23,160
153920,61,26,160
154080,65,27,160
154240,61,26,160
154320,67,44,60
154380,68,40,60
154400,56,23,160
154440,70,40,60
154500,68,40,60
154560,77,45,720
154720,56,24,160
154880,60,26,160
155040,66,27,160
155200,60,26,160
155280,75,44,240
155360,56,23,160
155520,75,44,1920
155680,56,21,160
155840,60,22,160
156000,66,24,160
156160,60,22,160
156320,56,22,160
156480,49,20,160
156640,56,21,160
156800,60,22,160
156960,66,22,160
157120,60,22,160
157280,56,21,160
157440,49,22,160
157560,68,37,120
157600,56,25,160
157680,69,41,120
157760,61,28,160
157800,68,38,120
157920,67,39,120
158040,68,40,120
158080,61,28,160
158160,73,42,120
158240,56,27,160
158280,76,43,120
158400,75,45,120
158520,73,43,120
158560,56,28,160
158640,75,45,120
158720,61,30,160
158760,73,43,120
158880,72,44,120
159000,73,46,120
159040,61,28,160
159120,76,49,120
159200,56,27,160
159240,80,47,120
159360,49,27,160
159480,68,45,120
159520,56,30,160
159600,69,49,120
159680,61,34,160
159720,68,45,120
159840,67,46,120
159960,68,48,120
160000,61,34,160
160080,73,50,120
160160,56,33,160
160200,76,51,120
160320,75,54,120
160440,73,51,120
160480,56,33,160
160560,75,53,120
160640,61,36,160
160680,73,51,120
160800,72,52,120
160920,73,54,120
160960,61,34,160
161040,76,57,120
161120,56,32,160
161160,80,55,120
161280,51,31,160
161400,69,56,120
161440,57,35,160
161520,73,58,120
161600,61,39,160
161640,75,60,120
161760,78,63,120
161880,81,63,120
161920,61,39,160
162000,85,66,120
162080,57,37,160
162120,87,72,120
162240,95,76,120
162360,93,75,120
162400,61,40,160
162480,92,70,120
162560,63,44,160
162600,90,69,120
162720,88,68,120
162840,87,67,120
162880,63,44,160
162960,90,66,120
163040,61,41,160
163080,85,67,120
163200,84,68,120
163320,87,63,120
163360,51,35,160
163440,81,63,120
163520,54,38,160
163560,80,63,120
163680,78,60,120
163800,81,58,120
163840,54,36,160
163920,76,54,120
164000,51,34,160
164040,75,54,120
164160,78,53,120
164280,73,48,120
164320,51,31,160
164400,72,48,120
164480,54,33,160
164520,75,47,120
164640,69,45,120
164760,68,42,120
164800,54,29,160
164880,71,42,120
164960,51,26,160
165000,69,41,240
165120,49,22,160
165240,68,37,120
165280,56,25,160
165360,69,41,120
165440,61,28,160
165480,68,38,120
165600,67,39,120
165720,68,40,120
165760,61,28,160
165840,73,42,120
165920,56,27,160
165960,76,43,120
166080,75,45,120
166200,73,43,120
166240,56,28,160
166320,75,45,120
166400,61,30,160
166440,73,43,120
166560,72,44,120
166680,73,46,120
166720,61,28,160
166800,76,49,120
166880,56,27,160
166920,80,47,120
167040,49,27,160
167160,68,45,120
167200,56,30,160
167280,70,49,120
167360,58,34,160
167400,68,45,120
167520,67,46,120
167640,68,48,120
167680,58,34,160
167760,73,50,120
167840,56,33,160
167880,76,51,120
168000,75,54,120
168120,73,51,120
168160,56,33,160
168240,75,53,120
168320,58,36,160
168360,73,51,120
168480,72,52,120
168600,73,54,120
168640,58,34,160
168720,76,57,120
168800,56,32,160
168840,80,55,120
168960,75,64,120
169080,76,58,120
169120,56,34,160
169200,75,61,120
169280,59,37,160
169320,74,50,120
169440,75,56,120
169560,83,68,120
169600,59,38,160
169680,82,62,120
169760,56,35,160
169800,80,65,120
169920,79,68,120
170040,88,72,120
170080,58,41,160
170160,87,69,120
170240,61,45,160
170280,85,69,120
170400,83,74,120
170520,82,69,120
170560,61,44,160
170640,80,69,120
170720,58,41,160
170760,79,69,120
170880,82,72,120
171000,80,70,120
171040,51,35,160
171120,83,64,120
171200,56,37,160
171240,74,57,120
171360,76,65,120
171480,75,57,120
171520,56,39,160
171600,80,63,120
171680,51,37,160
171720,70,57,120
171840,73,61,120
171960,71,59,120
172000,51,35,160
172080,75,58,120
172160,56,38,160
172200,67,56,120
172320,70,60,120
172440,68,51,120
172480,56,35,160
172560,67,55,120
172640,51,33,160
172680,68,50,120
172800,68,72,120
172920,80,58,120
172960,49,41,160
173040,72,59,120
173120,54,43,160
173160,73,59,120
173280,66,71,120
173400,78,60,120
173440,54,44,160
173520,72,60,120
173600,49,42,160
173640,73,61,120
173760,65,75,120
173880,77,62,120
173920,49,44,160
174000,72,63,120
174080,54,45,160
174120,73,63,120
174240,66,74,120
174360,78,65,120
174400,54,45,160
174480,72,64,120
174560,49,44,160
174600,73,64,120
174720,61,77,120
174840,73,65,120
174880,54,46,160
174960,66,65,120
175040,57,48,160
175080,69,65,120
175200,63,75,120
175320,75,65,120
175360,57,47,160
175440,66,65,120
175520,54,45,160
175560,69,65,120
175680,64,79,120
175800,76,66,120
175840,47,46,160
175920,68,66,120
176000,52,48,160
176040,71,66,120
176160,68,77,120
176280,80,67,120
176320,52,46,160
176400,71,66,120
176480,47,45,160
176520,76,65,120
176640,68,81,120
176760,80,65,120
176800,49,46,160
176880,72,65,120
176960,54,48,160
177000,73,65,120
177120,66,78,120
177240,78,65,120
177280,54,47,160
177360,72,65,120
177440,49,45,160
177480,73,65,120
177600,65,79,120
177720,77,66,120
177760,49,46,160
177840,72,66,120
177920,54,48,160
177960,73,66,120
178080,66,77,120
178200,78,67,120
178240,54,46,160
178320,72,66,120
178400,49,45,160
178440,73,65,120
178560,65,81,120
178680,77,65,120
178720,51,46,160
178800,71,65,120
178880,57,48,160
178920,75,65,120
179040,66,78,120
179160,78,65,120
179200,57,47,160
179280,71,65,120
179360,51,45,160
179400,75,65,120
179520,69,79,120
179640,81,66,120
179680,47,46,160
179760,71,66,120
179840,52,48,160
179880,76,66,120
180000,68,77,120
180120,80,67,120
180160,52,46,160
180240,71,66,120
180320,47,45,160
180360,76,65,120
180480,68,52,120
180600,80,57,120
180640,49,33,160
180720,72,47,120
180800,54,34,160
180840,73,47,120
180960,66,49,120
181080,78,54,120
181120,54,34,160
181200,72,48,120
181280,49,34,160
181320,73,48,120
181440,65,51,120
181560,77,56,120
181600,49,34,160
181680,72,50,120
181760,54,36,160
181800,73,50,120
181920,66,53,120
182040,78,58,120
182080,54,35,160
182160,72,51,120
182240,49,34,160
182280,73,51,120
182400,61,55,120
182520,73,60,120
182560,54,37,160
182640,66,52,120
182720,57,38,160
182760,69,53,120
182880,63,55,120
183000,75,62,120
183040,57,38,160
183120,66,54,120
183200,54,38,160
183240,69,54,120
183360,64,57,120
183480,76,65,120
183520,47,39,160
183600,68,56,120
183680,52,40,160
183720,71,56,120
183840,68,60,120
183960,80,68,120
184000,52,40,160
184080,71,57,120
184160,47,39,160
184200,76,58,120
184320,68,62,120
184440,80,68,120
184480,49,42,160
184560,72,59,120
184640,54,43,160
184680,73,59,120
184800,66,62,120
184920,78,70,120
184960,54,43,160
185040,72,61,120
185120,49,42,160
185160,73,61,120
185280,75,64,120
185400,87,73,120
185440,51,44,160
185520,78,62,120
185600,54,45,160
185640,81,62,120
185760,73,66,120
185880,85,74,120
185920,54,44,160
186000,78,62,120
186080,51,42,160
186120,81,62,120
186240,73,64,120
186360,85,73,120
186400,51,44,160
186480,75,61,120
186560,54,45,160
186600,78,61,120
186720,72,64,120
186840,84,71,120
186880,54,42,160
186960,75,60,120
187040,51,40,160
187080,78,59,120
187200,72,60,120
187320,84,69,120
187360,51,41,160
187440,75,58,120
187520,54,42,160
187560,78,58,120
187680,72,61,120
187800,84,68,120
187840,54,39,160
187920,75,57,120
188000,51,38,160
188040,78,56,120
188160,72,57,120
188280,84,65,120
188320,51,39,160
188400,75,55,120
188480,54,40,160
188520,78,55,120
188640,71,58,120
188760,83,64,120
188800,54,38,160
188880,75,53,120
188960,51,36,160
189000,78,53,120
189120,71,54,120
189240,83,62,120
189280,51,37,160
189360,75,52,120
189440,54,38,160
189480,78,52,120
189600,70,54,120
189720,82,60,120
189760,54,35,160
189840,75,50,120
189920,51,34,160
189960,78,50,120
190080,70,55,120
190206,82,49,120
190240,51,34,160
190320,75,48,120
190400,54,35,160
190440,78,48,120
190560,69,53,120
190686,81,48,120
190720,54,34,160
190800,75,47,120
190880,51,32,160
190920,78,47,120
191040,69,52,120
191160,81,49,120
191200,51,33,160
191280,75,45,120
191360,54,33,160
191400,78,45,120
191520,69,51,120
191640,81,47,120
191680,54,31,160
191760,75,44,120
191840,51,29,160
191880,78,44,120
192000,72,52,120
192126,84,47,120
192160,51,29,160
192240,75,47,120
192320,54,30,160
192360,78,47,120
192480,71,51,120
192600,83,46,120
192640,54,31,160
192720,75,46,120
192800,51,29,160
192840,78,46,120
192960,71,51,120
193080,83,48,120
193120,51,28,160
193200,75,45,120
193280,54,29,160
193320,78,45,120
193440,70,51,120
193560,82,47,120
193600,54,29,160
193680,75,44,120
193760,51,28,160
193800,78,44,120
193920,70,52,120
194040,82,46,120
194080,51,28,160
194160,75,46,120
194240,54,28,160
194280,78,45,120
194400,69,48,120
194520,81,43,120
194560,54,28,160
194640,75,42,120
194720,51,27,160
194760,78,42,120
194880,69,45,120
195000,81,42,120
195040,51,24,160
195120,75,39,120
195200,54,25,160
195240,78,39,120
195360,68,43,120
195480,80,39,120
195520,54,24,160
195600,75,36,120
195680,51,22,160
195720,78,36,120
195840,49,22,160
195960,68,37,120
196000,56,25,160
196080,69,41,120
196160,61,28,160
196200,68,38,120
196320,67,39,120
196440,68,40,120
196480,61,28,160
196560,73,42,120
196640,56,27,160
196680,76,43,120
196800,75,45,120
196920,73,43,120
196960,56,28,160
197040,75,45,120
197120,61,30,160
197160,73,43,120
197280,72,44,120
197400,73,46,120
197440,61,28,160
197520,76,49,120
197600,56,27,160
197640,80,47,120
197760,49,27,160
197880,68,45,120
197920,56,30,160
198000,69,49,120
198080,61,34,160
198120,68,45,120
198240,67,46,120
198360,68,48,120
198400,61,34,160
198480,73,50,120
198560,56,33,160
198600,76,51,120
198720,75,54,120
198840,73,51,120
198880,56,33,160
198960,75,53,120
199040,61,36,160
199080,73,51,120
199200,72,52,120
199320,73,54,120
199360,61,34,160
199440,76,57,120
199520,56,32,160
199560,80,55,120
199680,51,31,160
199800,69,56,120
199840,57,35,160
199920,73,59,120
200000,61,39,160
200040,75,62,120
200160,78,63,120
200280,81,66,120
200320,61,39,160
200400,85,69,120
200480,57,37,160
200520,87,72,120
200640,95,75,120
200760,93,73,120
200800,61,40,160
200880,92,72,120
200960,63,44,160
201000,90,71,120
201120,88,71,120
201240,87,70,120
201280,63,44,160
201360,90,68,120
201440,61,41,160
201480,85,67,120
201600,84,68,120
201720,87,63,120
201760,51,35,160
201840,81,63,120
201920,54,38,160
201960,80,63,120
202080,78,60,120
202200,81,58,120
202240,54,36,160
202320,76,54,120
202400,51,34,160
202440,75,54,120
202560,78,53,120
202680,73,48,120
202720,51,31,160
202800,72,48,120
202880,54,33,160
202920,75,47,120
203040,69,45,120
203160,68,42,120
203200,54,29,160
203280,71,42,120
203360,51,26,160
203400,69,41,240
203520,49,22,160
203640,68,37,120
203680,56,25,160
203760,69,41,120
203840,61,28,160
203880,68,38,120
204000,67,39,120
204120,68,40,120
204160,61,28,160
204240,73,42,120
204320,56,27,160
204360,76,43,120
204480,75,45,120
204600,73,43,120
204640,56,28,160
204720,75,45,120
204800,61,30,160
204840,73,43,120
204960,72,44,120
205080,73,46,120
205120,61,28,160
205200,76,50,120
205280,56,27,160
205320,80,48,120
205440,76,46,120
205560,75,43,120
205600,61,29,160
205680,76,47,120
205760,63,32,160
205800,75,43,120
205920,74,45,120
206040,75,46,120
206080,63,33,160
206160,78,49,120
206240,61,31,160
206280,81,50,120
206400,78,53,120
206520,77,51,120
206560,61,32,160
206640,78,53,120
206720,65,35,160
206760,77,51,120
206880,76,52,120
207000,77,54,120
207040,65,34,160
207120,80,57,120
207200,61,32,160
207240,85,56,120
207360,57,30,160
207480,73,50,120
207520,61,34,160
207600,74,55,120
207680,66,37,160
207720,73,51,120
207840,72,52,120
207960,73,53,120
208000,66,39,160
208080,78,56,120
208160,61,35,160
208200,81,57,120
208320,78,59,120
208440,77,56,120
208480,61,36,160
208560,78,59,120
208640,65,39,160
208680,77,57,120
208800,76,57,120
208920,77,59,120
208960,65,37,160
209040,80,63,120
209120,61,34,160
209160,85,59,120
209280,80,58,120
209400,78,53,120
209440,61,36,160
209520,80,58,120
209600,66,39,160
209640,78,54,120
209760,77,55,120
209880,78,56,120
209920,66,40,160
210000,81,59,120
210080,61,38,160
210120,85,60,120
210240,81,63,120
210360,80,59,120
210400,54,38,160
210480,81,62,120
210560,56,41,160
210600,80,60,120
210720,79,60,120
210840,80,62,120
210880,56,39,160
210960,84,66,120
211040,54,37,160
211080,87,63,120
211200,80,69,120
211320,81,64,120
211360,56,39,160
211440,80,67,120
211520,61,43,160
211560,79,58,120
211680,80,62,120
211800,88,71,120
211840,61,44,160
211920,87,71,120
212000,56,42,160
212040,86,70,120
212160,85,69,120
212280,84,69,120
212320,56,41,160
212400,83,68,120
212480,60,45,160
212520,82,67,120
212640,81,67,120
212760,80,66,120
212800,60,44,160
212880,79,65,120
212960,56,41,160
213000,78,64,120
213120,76,69,120
213240,78,64,120
213280,56,39,160
213360,76,67,120
213440,61,43,160
213480,75,58,120
213600,76,62,120
213720,88,71,120
213760,61,44,160
213840,87,71,120
213920,56,42,160
213960,86,70,120
214080,85,70,120
214200,84,71,120
214240,61,41,160
214320,83,71,120
214400,63,45,160
214440,82,72,120
214560,81,73,120
214680,80,74,120
214720,63,48,160
214800,79,75,120
214880,61,51,160
214920,78,76,120
215040,80,76,60
215280,92,85,120
215400,91,85,120
215520,90,84,120
215640,89,84,120
215760,88,83,120
215880,87,83,120
216000,86,82,120
216120,85,81,120
216240,84,81,120
216360,83,80,120
216480,82,80,120
216600,81,79,120
216720,80,79,120
216840,79,78,120
216960,78,77,120
217080,77,77,120
217200,76,77,120
217320,75,77,120
217440,74,77,120
217560,73,77,120
217680,72,77,120
217800,71,77,120
217920,70,77,120
218040,69,80,120
218160,68,83,120
218280,67,85,120
218400,66,87,120
218520,64,89,120
218640,63,92,120
218760,61,94,120
218880,56,96,120
219360,93,90,120
219480,92,81,120
219600,100,77,120
219720,88,77,120
219840,90,90,120
219960,88,77,120
220080,97,77,120
220200,85,77,120
220320,87,89,120
220440,85,77,120
220560,92,77,120
220680,80,77,120
220800,81,89,120
220920,80,77,120
221040,88,77,120
221160,76,77,120
221280,78,88,120
221400,76,77,120
221520,85,77,120
221640,73,77,120
221760,75,89,120
221880,73,77,120
222000,80,77,120
222120,68,77,120
222240,69,90,120
222360,68,77,120
222480,76,77,120
222600,64,77,120
222720,66,88,120
222840,64,77,120
222960,73,77,120
223080,61,77,120
223200,63,89,120
223320,61,77,120
223440,68,77,120
223560,56,77,120
223680,63,89,120
223800,61,77,120
223920,68,77,120
224040,56,77,120
224160,63,89,120
224280,61,77,120
224400,69,77,120
224520,57,77,120
224640,63,89,120
224760,61,75,120
224880,68,74,120
225000,56,73,120
225120,63,83,120
225240,61,71,120
225360,67,71,120
225480,55,70,120
225600,63,79,120
225720,61,68,120
225840,68,67,120
225960,56,66,120
226080,63,75,120
226200,60,63,120
226320,68,63,120
226440,56,62,120
226560,63,73,120
226680,61,65,120
226800,68,65,120
226920,56,65,120
227040,69,69,120
227160,68,65,120
227280,76,83,120
227400,64,64,120
227520,69,70,120
227640,68,66,120
227760,76,83,120
227880,64,60,120
228000,69,68,120
228120,68,62,120
228240,75,79,120
228360,63,71,120
228480,69,68,120
228600,68,66,120
228720,75,83,120
228840,64,60,120
228960,69,68,120
229080,68,62,120
229200,73,79,120
229320,61,71,120
229440,64,54,120
229560,63,49,120
229680,68,62,120
229800,56,45,120
229920,64,51,120
230040,63,46,120
230160,68,59,120
230280,56,53,120
230400,63,54,120
230520,61,49,120
230640,68,62,120
230760,56,45,120
230880,69,67,120
231000,68,65,120
231120,76,83,120
231240,64,64,120
231360,69,68,120
231480,68,66,120
231600,76,83,120
231720,64,60,120
231840,69,65,120
231960,68,62,120
232080,75,79,120
232200,63,66,120
232320,69,66,120
232440,68,66,120
232560,75,83,120
232680,64,60,120
232800,69,67,120
232920,68,62,120
233040,73,79,120
233160,61,71,120
233280,64,54,120
233400,63,49,120
233520,68,62,120
233640,56,45,120
233760,64,51,120
233880,63,46,120
234000,68,59,120
234120,56,53,120
234240,63,54,120
234360,61,49,120
234480,68,62,120
234600,56,45,120
234720,69,55,120
234840,68,48,120
234960,76,62,120
235080,64,48,120
235200,66,54,120
235320,64,49,120
235440,73,62,120
235560,61,45,120
235680,69,51,120
235800,68,46,120
235920,76,59,120
236040,64,53,120
236160,63,54,120
236280,61,49,120
236400,68,62,120
236520,56,45,120
236640,69,55,120
236760,68,48,120
236880,76,62,120
237000,64,48,120
237120,66,54,120
237240,64,49,120
237360,73,62,120
237480,61,45,120
237600,69,51,120
237720,68,46,120
237840,76,59,120
237960,64,53,120
238080,66,54,120
238200,64,49,120
238320,73,61,120
238440,61,44,120
238560,69,53,120
238680,68,46,120
238800,73,60,120
238920,61,46,120
239040,66,51,120
239160,64,46,120
239280,73,58,120
239400,61,42,120
239520,69,47,120
239640,68,42,120
239760,73,54,120
239880,61,48,120
240000,66,48,120
240120,64,44,120
240240,73,55,120
240360,61,40,120
240480,69,48,120
240600,68,41,120
240720,73,53,120
240840,61,41,120
240960,66,45,120
241080,64,41,120
241200,73,52,120
241320,61,37,120
241440,69,42,120
241560,68,37,120
241680,73,48,120
241800,61,42,120
241920,63,43,120
242040,61,39,120
242160,68,49,120
242280,56,36,120
242400,63,44,120
242520,61,38,120
242640,68,49,120
242760,56,38,120
242880,63,43,120
243000,61,39,120
243120,68,49,120
243240,56,36,120
243360,63,40,120
243480,61,36,120
243600,68,47,120
243720,56,42,120
243840,63,43,120
243960,61,39,120
244080,68,48,120
244200,56,35,120
244320,63,42,120
244440,61,36,120
244560,68,46,120
244680,56,35,120
244800,63,39,120
244920,61,35,120
245040,68,44,120
245160,56,32,120
245280,63,35,120
245400,61,31,120
245520,68,40,120
245640,56,36,120
245760,63,36,120
245880,61,33,120
246000,68,41,120
246120,56,30,120
246240,63,37,120
246360,61,32,120
246480,68,41,120
246600,56,32,120
246720,63,36,120
246840,61,33,120
246960,68,41,120
247080,56,30,120
247200,63,34,120
247320,61,30,120
247440,68,39,120
247560,56,35,120
247680,63,36,120
247800,61,33,120
247920,68,41,120
248040,56,30,120
248160,63,37,120
248280,61,32,120
248400,68,41,120
248520,56,32,120
248640,63,36,120
248760,61,33,120
248880,68,41,120
249000,56,30,120
249120,63,34,120
249240,61,30,120
249360,68,39,120
249480,56,35,120
249600,63,36,120
249720,61,33,120
249840,68,41,120
249960,56,30,120
250080,63,37,120
250200,61,32,120
250320,68,41,120
250440,56,32,120
250560,63,36,120
250680,61,33,120
250800,68,41,120
250920,56,30,120
251040,63,34,120
251160,61,30,120
251280,68,39,120
251400,56,35,120
251520,63,36,120
251640,61,33,120
251760,68,41,120
251880,56,30,120
252000,63,37,120
252120,61,32,120
252240,68,41,120
252360,56,32,120
252480,63,36,120
252600,61,33,120
252720,68,41,120
252840,56,30,120
252960,63,34,120
253080,61,30,120
253200,68,39,120
253320,56,35,120
253440,63,36,120
253560,61,33,120
253680,68,41,120
253800,56,30,120
253920,63,37,120
254040,61,32,120
254160,68,41,120
254280,56,32,120
254400,63,36,120
254520,61,33,120
254640,68,41,120
254760,56,30,120
254880,63,34,120
255000,61,30,120
255120,68,39,120
255240,56,35,120
255360,63,36,120
255480,61,33,120
255600,68,41,120
255720,56,30,120
255840,63,37,120
255960,61,32,120
256080,68,41,120
256200,56,32,120
256320,63,36,120
256440,61,33,120
256560,68,41,120
256680,56,30,120
256800,63,34,120
256920,61,30,120
257040,68,39,120
257160,56,35,120
257280,63,36,120
257400,61,29,120
257520,68,35,120
257640,53,37,120
257760,63,44,120
257880,61,28,120
258000,68,36,120
258120,53,37,120
258240,63,43,120
258360,61,29,120
258480,68,37,120
258600,53,37,120
258720,63,45,120
258840,61,27,120
258960,68,36,120
259080,53,31,120
259200,65,32,120
259326,63,29,120
259440,68,35,120
259560,54,38,120
259680,65,44,120
259800,63,28,120
259920,68,35,120
260040,54,38,120
260166,65,42,120
260286,63,29,120
260400,68,37,120
260520,54,37,120
260640,65,40,120
260760,63,27,120
260880,68,35,120
261000,54,38,120
261120,37,33,1920
261180,44,36,1860
261240,54,38,1800
261300,56,40,3660
261360,60,43,1680
261480,63,48,1560
263040,37,31,1920
263100,44,37,1860
263160,53,35,1800
263220,61,42,1740
