time,note,velocity,duration
240,68,43,1920
480,80,43,960
1440,77,39,960
2160,69,36,2160
2400,75,37,240
2640,77,32,240
2880,75,30,1680
4320,68,39,2160
4560,73,40,240
4800,75,34,240
5040,73,32,360
5400,77,46,720
6120,73,45,600
6480,66,38,2160
6720,72,34,240
6960,73,31,240
7200,72,27,1680
8640,66,39,1440
8880,70,39,240
9120,72,36,240
9360,70,36,240
9600,75,39,240
9840,70,37,240
10080,68,40,240
10320,70,37,240
10560,68,36,480
10800,63,36,1440
11040,66,34,240
11280,68,33,240
11520,66,33,720
12240,65,34,960
12960,61,34,1440
13200,65,38,240
13440,66,37,240
13680,65,37,240
13920,70,39,240
14160,65,37,240
14400,63,39,240
14640,65,37,240
14880,63,37,480
15120,58,33,1440
15360,61,34,240
15600,63,34,240
15840,61,34,720
16560,60,27,720
16920,44,28,600
17280,37,30,240
17520,56,28,240
17760,68,36,1680
18000,80,39,720
18720,77,35,960
19440,49,33,1440
19680,75,42,240
19920,77,37,240
20160,75,31,1680
21600,49,36,1440
21840,73,39,240
22080,75,40,240
22320,80,40,720
23040,77,38,960
23760,49,33,1440
24000,75,42,240
24240,77,37,240
24480,75,31,720
25200,73,37,960
25920,44,36,2160
26160,73,39,240
26400,75,40,240
26640,82,48,360
27000,80,46,720
27720,65,44,600
28080,46,39,1440
28320,75,40,240
28560,77,37,240
28800,75,33,360
29160,73,37,720
30240,39,36,1440
30600,89,40,1080
31200,87,39,240
31440,87,39,220
31680,87,41,240
31920,85,40,240
32160,85,40,220
32400,85,41,240
32640,84,39,240
32880,84,39,220
33120,84,39,360
33480,85,36,360
33840,82,36,720
34560,46,36,1440
34920,89,48,1060
35520,90,42,240
35760,82,37,220
36000,87,40,220
36240,89,39,240
36480,87,39,240
36720,85,40,220
36960,87,38,240
37200,85,38,220
37440,84,38,330
37770,87,43,30
37800,85,37,360
38160,82,35,1080
38880,44,42,1440
39240,78,51,360
39600,80,47,360
39960,84,51,360
40320,82,48,360
40680,78,46,360
41040,45,42,1440
41280,78,39,240
41520,78,39,230
41760,78,42,240
42000,78,40,220
42240,80,44,240
42480,78,42,720
43200,46,46,1440
43560,78,53,360
43920,80,60,360
44280,85,60,360
44640,82,57,360
45000,66,48,360
45360,48,45,1440
45600,78,42,240
45840,78,42,230
46080,78,46,240
46320,78,44,220
46560,80,47,240
46800,78,46,720
47520,49,51,1440
47880,78,61,360
48240,80,70,360
48600,87,71,360
48960,85,65,360
49320,70,57,360
49680,51,49,1440
49920,82,50,240
50160,82,50,230
50400,82,53,240
50640,82,51,220
50880,84,52,240
51120,82,52,220
51360,85,53,240
51600,87,57,120
51720,65,38,1440
51740,68,39,1420
51760,73,40,1400
51780,77,42,1380
51800,80,51,1360
51820,85,56,1340
51840,92,65,1320
53160,64,33,720
53177,68,34,703
53194,70,34,686
53211,73,36,669
53228,76,37,652
53245,80,45,635
53262,85,50,618
53280,92,55,600
53880,63,33,1440
53897,66,34,1423
53914,68,34,1406
53931,73,36,1389
53948,75,37,1372
53965,80,45,1355
53982,85,50,1338
54000,92,55,1320
55320,56,27,840
55340,63,28,820
55360,66,30,800
55380,72,31,780
55400,68,32,760
55420,75,33,740
55440,80,39,720
56160,68,40,1440
56280,44,30,120
56400,49,30,120
56520,53,30,120
56640,56,30,120
56760,61,30,120
56880,41,33,360
57000,48,26,120
57120,53,27,120
57240,56,28,120
57360,60,30,120
57480,65,31,120
57600,71,39,480
57720,52,32,120
57840,56,32,120
57960,59,32,120
58080,73,37,240
58200,68,32,120
58320,68,40,1440
58440,44,30,120
58560,49,30,120
58680,53,30,120
58800,56,30,120
58920,61,30,120
59040,41,33,360
59160,48,30,120
59280,53,30,120
59400,56,31,120
59520,60,32,120
59640,65,32,120
59760,71,40,480
59880,52,32,120
60000,56,32,120
60120,59,32,120
60240,68,32,120
60360,64,32,120
60480,73,46,480
60600,44,33,120
60720,49,33,120
60840,53,33,120
60960,75,44,240
61080,61,33,120
61200,77,48,720
61320,68,34,120
61440,65,34,120
61560,61,34,120
61680,56,34,120
61800,53,36,120
61920,73,47,480
62040,53,36,120
62160,49,36,120
62280,44,36,120
62400,77,48,240
62520,44,37,120
62640,79,53,240
62760,46,37,120
62880,77,47,240
63000,55,37,120
63120,73,47,240
63240,63,37,120
63360,73,42,720
63480,63,36,120
63600,65,36,240
63720,55,34,120
63840,61,34,240
63960,46,34,120
64080,61,38,360
64200,46,33,120
64320,51,33,120
64440,58,36,360
64560,51,33,120
64680,46,33,120
64800,70,52,1440
64920,51,33,120
65040,54,33,120
65160,58,33,120
65280,60,33,120
65400,66,33,120
65520,42,38,720
65640,49,32,120
65760,54,33,120
65880,58,34,120
66000,61,34,120
66120,66,36,120
66240,72,51,480
66360,48,36,120
66480,53,37,120
66600,56,38,120
66720,77,56,240
66727,68,38,120
66833,65,38,120
66975,70,52,1440
67095,51,33,120
67215,54,33,120
67335,58,33,120
67455,60,33,120
67575,66,34,120
67695,42,39,720
67815,49,34,120
67935,54,37,120
68055,58,38,120
68175,61,38,120
68295,66,39,120
68415,72,56,480
68535,48,39,120
68655,53,40,120
68775,56,43,120
68895,77,60,240
68902,68,38,120
69008,65,38,120
69120,78,64,1080
69240,46,40,120
69360,51,40,120
69480,54,40,120
69600,58,40,120
69720,63,40,120
69840,66,60,360
69960,66,46,120
70080,70,46,120
70200,77,58,360
70320,66,46,120
70440,70,46,120
70560,74,58,360
70680,66,46,120
70800,70,46,120
70920,75,60,360
71040,66,49,120
71160,70,49,120
71280,82,67,1440
71400,66,43,120
71520,70,43,120
71640,70,43,120
71760,78,43,120
71880,82,43,120
72000,63,50,360
72120,66,38,120
72240,70,38,120
72360,70,38,120
72480,78,38,120
72600,82,38,120
72720,80,51,720
72840,64,37,120
72960,68,36,120
73080,72,34,120
73200,76,34,120
73320,80,33,120
73440,80,51,1440
73560,56,37,120
73680,61,37,120
73800,65,37,120
73920,68,37,120
74040,73,37,120
74160,56,46,120
74280,60,38,120
74400,65,40,120
74520,68,42,120
74640,72,44,120
74760,77,46,120
74880,83,57,480
75000,64,43,120
75120,68,43,120
75240,71,43,120
75360,85,60,240
75480,80,43,120
75600,80,57,1440
75720,56,43,120
75840,61,43,120
75960,65,43,120
76080,68,43,120
76200,73,43,120
76320,56,51,120
76440,60,40,120
76560,65,42,120
76680,68,43,120
76800,72,44,120
76920,77,45,120
77040,83,62,480
77160,64,45,120
77280,68,45,120
77400,71,45,120
77520,80,45,120
77640,76,45,120
77760,85,87,720
77880,64,50,120
78000,68,50,120
78120,73,51,120
78240,80,73,240
78360,76,51,120
78480,88,86,720
78600,68,50,120
78720,71,50,120
78840,76,54,120
78960,85,70,240
79080,80,54,120
79200,92,90,720
79320,71,52,120
79440,73,52,120
79560,80,56,120
79680,88,70,240
79800,83,56,120
79920,92,92,720
80040,69,54,120
80160,73,54,120
80280,80,56,120
80400,85,56,120
80520,81,56,120
80640,90,91,1440
80760,69,52,120
80880,73,52,120
81000,78,52,120
81120,85,52,120
81240,81,52,120
81360,66,56,120
81480,69,52,120
81600,73,52,120
81720,78,52,120
81840,85,52,120
81960,81,52,120
82080,90,91,1440
82200,66,52,120
82320,69,52,120
82440,78,52,120
82560,85,52,120
82680,81,52,120
82800,66,56,120
82920,69,52,120
83040,73,52,120
83160,78,52,120
83280,85,52,120
83400,81,52,120
83520,93,91,480
83640,69,52,120
83760,73,52,120
83880,76,52,120
84000,97,91,240
84120,85,52,120
84240,78,82,1440
84360,63,52,120
84480,66,52,120
84600,66,52,120
84720,73,52,120
84840,69,52,120
84960,57,56,360
85080,61,52,120
85200,64,52,120
85320,66,52,120
85440,73,52,120
85560,69,52,120
85680,81,84,480
85800,61,52,120
85920,64,52,120
86040,69,52,120
86160,85,79,240
86280,81,52,120
86400,88,79,240
86520,61,43,120
86640,87,69,240
86760,66,46,120
86880,85,69,240
87000,73,50,120
87120,83,74,360
87240,78,50,120
87360,76,49,120
87480,81,67,600
87600,69,46,120
87720,66,46,120
87840,64,43,120
87960,66,42,120
88080,80,60,240
88200,61,39,120
88320,78,60,240
88560,76,62,240
88680,49,38,120
88800,75,58,240
88920,54,40,120
89040,73,56,240
89160,61,43,120
89280,71,57,240
89400,61,42,120
89520,69,52,240
89640,54,40,120
89760,68,49,480
89880,49,38,120
90000,57,46,720
90120,49,34,120
90240,66,43,240
90360,49,34,120
90480,64,40,240
90600,49,34,120
90720,63,40,1440
90840,51,31,120
90960,44,33,120
91080,51,31,120
91200,56,36,240
91320,51,32,120
91440,58,38,480
91560,51,32,120
91680,44,34,120
91800,51,34,120
91920,44,36,120
92040,51,34,120
92160,66,44,480
92280,51,31,120
92400,44,33,120
92520,51,31,120
92640,70,44,240
92760,51,31,120
92880,63,40,1440
93000,51,31,120
93120,44,33,120
93240,51,31,120
93360,56,34,240
93480,51,32,120
93600,58,38,480
93720,51,32,120
93840,44,34,120
93960,51,33,120
94080,44,36,120
94200,51,34,120
94320,66,40,480
94440,51,31,120
94560,44,33,120
94680,51,31,120
94800,70,39,460
94920,51,31,120
95040,61,34,220
95160,39,33,120
95280,77,42,240
95400,51,36,120
95520,75,41,240
95640,51,36,120
95760,70,39,720
95880,51,34,120
96000,58,34,240
96120,63,34,120
96240,61,34,240
96360,51,34,120
96480,68,36,720
96600,51,34,120
96720,60,34,240
96840,51,33,120
96960,63,34,240
97080,39,33,120
97200,70,34,220
97320,39,33,120
97440,77,42,240
97560,51,36,120
97680,75,41,240
97800,51,36,120
97920,70,39,720
98040,51,34,120
98160,58,34,240
98280,63,34,120
98400,61,34,240
98520,51,34,120
98640,68,36,720
98760,51,37,120
98880,60,34,240
99000,51,33,120
99120,63,34,240
99240,51,33,120
99360,75,48,1440
99480,63,32,120
99600,66,34,120
99720,70,32,120
99840,66,34,120
99960,63,32,120
100080,58,42,480
100200,63,32,120
100320,66,36,120
100440,70,32,120
100560,66,36,120
100680,63,32,120
100800,78,53,480
100920,63,30,120
101040,66,30,120
101160,70,30,120
101280,82,50,240
101400,75,32,120
101520,75,48,1440
101640,63,32,120
101760,66,34,120
101880,70,32,120
102000,66,34,120
102120,63,32,120
102240,58,42,480
102360,63,32,120
102480,66,36,120
102600,70,32,120
102720,66,36,120
102840,63,32,120
102960,78,53,480
103080,63,30,120
103200,66,30,120
103320,70,30,120
103440,82,52,240
103560,75,32,120
103680,87,52,2880
103800,70,37,120
103920,73,37,120
104040,75,36,120
104160,78,33,120
104280,82,32,120
104520,70,32,120
104640,73,32,120
104760,75,36,120
104880,78,33,120
105000,84,32,120
105120,66,37,120
105240,70,31,120
105360,73,31,120
105480,75,33,120
105600,78,32,120
105720,82,31,120
105840,66,39,840
105960,69,30,120
106080,73,30,120
106200,75,32,120
106320,78,31,120
106440,81,31,120
106560,85,52,720
106680,69,30,120
106800,73,28,120
106920,75,31,120
107040,78,30,120
107160,83,28,120
107280,87,52,720
107400,69,28,120
107520,73,28,120
107640,75,28,120
107760,78,28,120
107880,81,27,120
108000,65,32,1440
108120,68,32,120
108240,72,32,120
108360,77,32,120
108480,80,32,120
108600,84,32,120
108720,92,38,720
109440,89,39,960
110160,65,30,1440
110280,69,30,120
110400,87,36,240
110520,75,28,120
110640,89,31,240
110760,81,27,120
110880,87,29,1680
111600,65,28,720
112320,65,29,1440
112440,68,29,120
112560,85,39,240
112680,73,28,120
112800,87,33,240
112920,80,27,120
113040,85,30,360
113400,89,41,720
113760,65,28,720
114120,85,36,600
114480,63,28,1440
114600,66,28,120
114720,84,30,240
114840,72,25,120
114960,85,29,240
115080,78,23,120
115200,84,26,1440
115920,63,27,720
116640,61,32,1440
116760,63,32,120
116880,82,38,240
117000,70,32,120
117120,84,35,240
117240,75,32,120
117360,82,35,240
117600,87,38,240
117840,82,36,240
117900,63,24,900
117960,65,24,840
118020,68,24,780
118080,80,39,240
118320,82,36,240
118560,80,35,480
118800,48,30,1440
118920,54,30,120
119040,78,33,240
119160,60,29,120
119280,80,31,240
119400,66,28,120
119520,78,31,720
120240,77,33,960
120960,56,30,1440
121080,58,28,120
121200,77,37,240
121320,65,27,120
121440,78,36,240
121560,70,27,120
121680,77,36,240
121920,82,38,240
122160,77,36,240
122220,54,27,900
122280,58,27,840
122340,61,27,780
122400,75,37,240
122640,77,36,240
122880,75,36,480
123120,53,29,1440
123240,56,29,120
123360,73,33,240
123480,61,28,120
123600,75,31,240
123720,68,27,120
123840,73,31,720
124560,72,26,720
124920,44,32,1800
125280,37,28,1440
125520,56,26,240
125760,68,33,1680
126000,80,36,720
126720,77,33,960
127440,49,31,1440
127680,75,39,240
127920,77,34,240
128160,75,29,1680
129600,44,33,1440
129840,73,36,240
130080,75,37,240
130320,80,37,720
131040,77,33,960
131760,46,31,1440
132000,75,39,240
132240,77,34,240
132480,75,29,720
133200,73,29,720
133920,41,34,2160
134160,61,37,240
134400,63,40,240
134640,70,37,720
135360,65,31,720
136080,39,34,1440
136320,66,37,240
136560,68,40,240
136800,73,33,720
137520,70,29,720
138240,44,34,1440
138480,70,35,240
138600,51,31,360
138720,72,37,240
138960,80,25,720
139680,68,25,720
140400,37,31,720
140520,44,27,120
140640,49,26,120
140760,53,26,120
140880,56,25,120
141000,61,25,120
141120,41,31,720
141240,48,28,120
141360,53,27,120
141480,56,26,120
141600,60,26,120
141720,65,26,120
141840,37,31,720
141960,44,28,120
142080,49,28,120
142200,53,27,120
142320,56,28,120
142440,61,26,120
142560,41,31,720
142680,48,28,120
142800,53,28,120
142920,56,27,120
143040,60,27,120
143160,65,27,120
143280,71,33,720
143400,52,28,120
143520,56,28,120
143640,59,27,120
143760,64,27,120
143880,66,27,120
144000,73,29,720
144720,49,31,720
144840,56,30,120
144960,61,26,120
145080,65,26,120
145200,68,25,120
145320,73,25,120
145440,53,31,720
145560,60,28,120
145680,65,27,120
145800,68,26,120
145920,72,26,120
146040,77,26,120
146160,49,31,720
146280,56,28,120
146400,61,28,120
146520,65,27,120
146640,68,28,120
146760,73,26,120
146880,53,31,720
147000,60,28,120
147120,65,28,120
147240,68,27,120
147360,72,27,120
147480,77,27,120
147600,83,33,720
147720,59,25,120
147840,64,25,120
147960,68,24,120
148080,71,24,120
148200,76,22,840
148320,85,34,720
149040,83,33,720
149160,59,25,120
149280,64,25,120
149400,68,24,120
149520,71,24,120
149640,76,22,840
149760,85,34,720
150480,88,37,720
151200,92,40,2160
151320,44,26,120
151440,49,24,120
151560,53,22,120
151680,56,21,120
151800,61,20,120
151920,65,27,240
152160,68,22,240
152400,73,22,240
152640,77,27,240
152880,80,22,240
153120,85,22,170
153290,61,20,1510
153300,68,22,1500
153310,73,22,1490
153320,77,25,1480
153330,80,24,1470
153340,85,26,1460
153360,92,34,1440
