time,note,velocity,duration
0,64,79,1440
120,100,66,120
240,96,63,120
360,91,60,120
480,84,66,120
600,88,56,120
720,84,60,120
840,79,57,120
960,72,56,120
1080,79,50,120
1200,84,55,120
1320,88,52,120
1440,84,60,120
1560,79,48,120
1680,72,50,120
1800,76,48,120
1920,72,54,120
2040,67,44,120
2160,60,47,120
2280,64,75,600
2400,60,51,120
2520,55,41,120
2640,52,46,120
2760,48,40,120
2880,65,77,1440
3000,101,62,120
3120,96,59,120
3240,93,57,120
3360,84,61,120
3480,89,54,120
3600,84,56,120
3720,81,47,120
3840,72,52,120
3960,81,47,120
4080,84,49,120
4200,88,48,120
4320,84,57,120
4440,81,48,120
4560,72,50,120
4680,76,48,120
4800,72,54,120
4920,69,44,120
5040,60,47,120
5160,64,70,120
5280,62,76,480
5400,60,41,120
5520,57,47,120
5640,50,44,120
5760,62,77,1440
5880,98,65,120
6000,95,62,120
6120,91,59,120
6240,83,64,120
6360,86,55,120
6480,83,59,120
6600,78,54,120
6720,71,52,120
6840,76,64,120
6960,79,45,120
7080,86,45,120
7200,81,55,120
7320,78,45,120
7440,72,49,120
7560,74,46,120
7680,69,52,120
7800,66,44,120
7920,60,47,120
8040,62,72,600
8160,57,52,120
8280,54,42,120
8400,48,46,120
8520,50,42,120
8640,62,77,1440
8760,98,65,120
8880,92,63,120
9000,89,61,120
9120,84,65,120
9240,86,55,120
9360,80,59,120
9480,77,55,120
9600,72,56,120
9720,77,47,120
9840,80,49,120
9960,86,48,120
10080,79,60,120
10200,77,48,120
10320,71,50,120
10440,74,48,120
10560,67,54,120
10680,65,44,120
10800,59,47,120
10920,63,76,600
11040,59,52,120
11160,55,40,120
11280,53,43,120
11400,47,37,120
11520,64,77,1440
11640,100,68,120
11760,96,65,120
11880,91,62,120
12000,84,65,120
12120,88,55,120
12240,84,59,120
12360,79,47,120
12480,72,56,120
12600,79,47,120
12720,84,49,120
12840,88,48,120
12960,84,60,120
13080,79,48,120
13200,72,50,120
13320,76,48,120
13440,72,54,120
13560,67,44,120
13680,60,47,120
13800,64,74,600
13920,60,51,120
14040,55,40,120
14160,52,44,120
14280,48,40,120
14400,65,77,1440
14520,101,66,120
14640,96,64,120
14760,93,62,120
14880,84,67,120
15000,89,55,120
15120,84,59,120
15240,81,47,120
15360,72,56,120
15480,81,47,120
15600,84,49,120
15720,88,48,120
15840,81,57,120
15960,78,48,120
16080,72,50,120
16200,76,48,120
16320,69,54,120
16440,66,44,120
16560,60,47,120
16680,64,72,600
16800,57,54,120
16920,54,39,120
17040,52,46,120
17160,48,41,120
17280,62,75,1440
17400,98,63,120
17520,96,60,120
17640,91,61,120
17760,84,66,120
17880,86,51,120
18000,84,55,120
18120,79,51,120
18240,72,46,120
18360,79,57,120
18480,84,40,120
18600,86,40,120
18720,83,49,120
18840,79,40,120
18960,71,43,120
19080,74,41,120
19200,71,46,120
19320,67,39,120
19440,59,42,120
19560,62,71,600
19680,59,46,120
19800,55,40,120
19920,50,42,240
20040,47,47,120
20160,64,74,1440
20280,100,57,120
20400,98,54,120
20520,91,51,120
20640,86,58,120
20760,88,43,120
20880,86,49,120
21000,79,43,120
21120,74,42,120
21240,79,36,120
21360,86,36,120
21480,88,35,120
21600,84,44,120
21720,79,34,120
21840,76,36,120
21960,79,34,120
22080,72,38,120
22200,67,30,120
22320,60,32,120
22440,64,53,600
22560,60,34,120
22680,55,29,120
22800,52,31,1680
22920,48,35,120
22980,60,44,1500
23040,64,54,1440
23160,101,43,120
23280,100,40,120
23400,96,38,120
23520,88,42,120
23640,89,35,120
23760,88,37,120
23880,84,34,120
24000,76,33,120
24120,84,40,120
24240,88,28,120
24360,89,28,120
24480,86,34,120
24600,83,28,120
24720,74,30,120
24840,77,29,120
24960,74,33,120
25080,71,27,120
25200,62,29,120
25320,65,51,600
25440,62,33,120
25560,59,28,120
25680,53,29,120
25800,50,27,120
25920,64,54,1440
26040,100,44,120
26160,98,40,120
26280,95,37,120
26400,86,42,120
26520,88,34,120
26640,86,36,120
26760,83,29,120
26880,74,33,120
27000,83,40,120
27120,86,28,120
27240,88,28,120
27360,84,34,120
27480,81,28,120
27600,72,30,120
27720,76,29,120
27840,72,33,120
27960,69,27,120
28080,60,29,120
28200,64,51,600
28320,60,38,120
28440,57,42,120
28560,52,46,120
28680,48,40,120
28740,57,48,1500
28770,60,44,1470
28800,69,60,1440
28920,100,48,120
29040,96,44,120
29160,93,41,120
29280,88,46,120
29400,91,38,120
29520,88,40,120
29640,84,32,120
29760,72,35,120
29880,81,44,120
30000,84,32,120
30120,87,32,120
30240,83,38,120
30360,81,32,120
30480,71,34,120
30600,75,33,120
30720,71,36,120
30840,69,31,120
30960,59,33,120
31080,63,58,600
31200,59,36,120
31320,57,32,120
31440,51,33,120
31560,47,31,120
31680,64,63,1440
31800,100,51,120
31920,95,46,120
32040,93,43,120
32160,83,49,120
32280,88,40,120
32400,83,43,120
32520,81,34,120
32640,71,37,120
32760,81,47,120
32880,83,33,120
33000,88,33,120
33120,83,46,120
33240,80,36,120
33360,71,39,120
33480,76,36,120
33600,71,44,120
33740,68,40,120
33860,59,43,120
33960,64,67,600
34080,59,52,120
34220,56,47,120
34340,52,53,120
34440,47,57,120
34560,67,77,1440
34680,103,65,120
34800,97,62,120
34920,93,59,120
35040,88,64,120
35160,91,55,120
35280,85,59,120
35400,81,54,120
35520,76,52,120
35640,81,64,120
35760,85,45,120
35880,91,45,120
36000,85,55,120
36120,81,45,120
36240,76,49,120
36360,79,46,120
36480,73,52,120
36600,69,44,120
36720,64,47,120
36840,67,44,120
36960,66,75,480
37080,60,39,120
37200,57,43,120
37320,50,38,120
37440,65,77,1440
37560,101,65,120
37680,96,62,120
37800,91,59,120
37920,86,64,120
38040,89,55,120
38160,84,59,120
38280,79,54,120
38400,74,52,120
38520,79,64,120
38640,84,45,120
38760,89,45,120
38880,83,55,120
39000,79,45,120
39120,74,49,120
39240,77,46,120
39360,71,52,120
39480,67,44,120
39600,62,47,120
39720,65,44,120
39840,64,76,480
39960,59,41,120
40080,55,45,120
40200,48,39,120
40320,64,77,1440
40440,100,65,120
40560,94,62,120
40680,91,59,120
40800,84,64,120
40920,88,55,120
41040,82,59,120
41160,79,54,120
41280,72,52,120
41400,79,64,120
41520,82,45,120
41640,87,45,120
41760,82,55,120
41880,78,45,120
42000,72,50,120
42120,75,46,120
42240,70,53,120
42360,66,44,120
42480,60,48,120
42600,63,76,600
42720,58,53,120
42840,51,43,120
42960,48,48,120
43080,46,41,120
43200,63,79,1440
43320,99,67,120
43440,93,64,120
43560,87,61,120
43680,84,66,120
43800,87,57,120
43920,81,61,120
44040,75,56,120
44160,72,54,120
44280,75,67,120
44400,81,47,120
44520,87,47,120
44640,80,57,120
44760,75,47,120
44880,71,51,120
45000,75,48,120
45120,68,55,120
45240,63,46,120
45360,59,50,120
45480,63,76,600
45600,59,55,120
45720,56,44,120
45840,51,48,120
45960,47,44,120
46080,62,82,1440
46200,98,69,120
46320,92,66,120
46440,89,63,120
46560,82,69,120
46680,86,58,120
46800,80,64,120
46920,77,57,120
47040,70,56,120
47160,77,69,120
47280,80,49,120
47400,86,49,120
47520,80,59,120
47640,76,49,120
47760,70,53,120
47880,74,50,120
48000,68,57,120
48120,64,48,120
48240,58,52,120
48360,62,79,600
48480,56,57,120
48600,52,45,120
48720,50,50,120
48840,46,43,120
48960,62,86,1440
49080,98,72,120
49200,93,69,120
49320,88,65,120
49440,81,71,120
49560,86,60,120
49680,81,66,120
49800,76,59,120
49920,69,57,120
50040,76,72,120
50160,81,50,120
50280,85,50,120
50400,81,61,120
50520,76,51,120
50640,69,55,120
50760,73,52,120
50880,69,58,120
51000,64,50,120
51120,57,54,120
51240,61,85,600
51360,57,58,120
51480,52,47,120
51600,49,54,120
51720,45,46,120
51840,72,88,1440
51960,96,78,120
52080,90,74,120
52200,86,70,120
52320,81,76,120
52440,84,63,120
52560,78,70,120
52680,74,62,120
52800,69,60,120
52920,74,75,120
53040,78,58,120
53160,84,58,120
53280,77,62,120
53400,74,52,120
53520,69,56,120
53640,72,52,120
53760,83,75,120
53880,81,63,120
54000,79,66,120
54120,77,69,120
54240,76,70,120
54360,74,73,120
54480,72,75,120
54600,71,78,120
54720,71,88,1440
54840,95,78,120
54960,88,74,120
55080,84,70,120
55200,79,76,120
55320,83,63,120
55440,76,70,120
55560,72,62,120
55680,67,60,120
55800,72,75,120
55920,76,58,120
56040,83,58,120
56160,76,62,120
56280,72,52,120
56400,65,56,120
56520,71,52,120
56640,81,75,120
56760,79,63,120
56880,77,66,120
57000,76,69,120
57120,74,70,120
57240,72,73,120
57360,71,75,120
57480,69,78,120
57600,69,88,840
57720,93,78,120
57840,86,73,120
57960,83,70,120
58080,77,79,120
58200,79,66,120
58320,81,70,120
58440,83,72,120
58560,84,73,120
58680,86,76,120
58800,88,78,120
58920,89,79,120
59040,91,86,480
59160,86,74,120
59280,83,79,120
59400,76,66,120
59520,79,73,120
59640,74,61,120
59760,71,68,120
59880,67,55,120
60000,69,71,120
60120,72,67,120
60240,79,75,120
60360,76,70,120
60480,89,89,480
60600,84,78,120
60720,81,84,120
60840,74,70,120
60960,77,77,120
61080,72,63,120
61200,69,71,120
61320,65,58,120
61440,67,67,120
61560,71,62,120
61680,77,69,120
61800,74,64,120
61920,88,88,480
62040,83,78,120
62160,79,84,120
62280,72,70,120
62400,76,77,120
62520,71,63,120
62640,67,71,120
62760,64,58,120
62880,65,67,120
63000,69,62,120
63120,76,69,120
63240,72,64,120
63360,86,89,480
63480,81,78,120
63600,77,84,120
63720,71,70,120
63840,74,77,120
63960,69,63,120
64080,65,71,120
64200,62,58,120
64320,65,68,120
64440,69,63,120
64560,74,70,120
64680,71,66,120
64800,87,93,480
64920,81,79,120
65040,78,86,120
65160,71,72,120
65280,75,80,120
65400,69,65,120
65520,66,74,120
65640,63,61,120
65760,66,70,120
65880,69,65,120
66000,75,73,120
66120,71,68,120
66240,88,92,480
66360,80,78,120
66480,76,87,120
66600,71,73,120
66720,76,81,120
66840,68,68,120
66960,64,76,120
67080,59,68,120
67200,64,76,120
67320,68,73,120
67440,71,80,120
67560,76,76,120
67680,83,80,120
67800,88,84,120
67920,92,87,120
68040,95,90,120
68160,100,92,480
68640,67,91,480
68880,43,107,240
69120,76,99,1440
69240,100,89,120
69360,96,85,120
69480,91,80,120
69600,84,87,120
69720,88,77,120
69840,84,82,120
69960,79,75,120
70080,64,88,120
70200,79,79,120
70320,84,72,120
70440,88,72,120
70560,84,89,120
70680,79,66,120
70800,72,72,120
70920,74,67,120
71040,88,79,120
71160,86,67,120
71280,84,69,120
71400,83,73,120
71520,81,73,120
71640,79,77,120
71760,77,78,120
71880,76,80,120
72000,77,99,1440
72120,101,89,120
72240,96,85,120
72360,93,80,120
72480,84,87,120
72600,89,77,120
72720,84,82,120
72840,81,75,120
72960,65,88,120
73080,81,79,120
73200,84,72,120
73320,88,72,120
73440,81,89,120
73560,78,66,120
73680,72,72,120
73800,74,67,120
73920,88,79,120
74040,86,67,120
74160,84,69,120
74280,83,73,120
74400,81,73,120
74520,79,77,120
74640,78,78,120
74760,76,80,120
74880,74,94,1440
75000,98,84,120
75120,95,79,120
75240,91,75,120
75360,83,82,120
75480,86,73,120
75600,83,78,120
75720,78,71,120
75840,62,83,120
75960,76,75,120
76080,79,68,120
76200,86,68,120
76320,81,84,120
76440,78,62,120
76560,71,68,120
76680,72,63,120
76800,86,75,120
76920,84,63,120
77040,83,65,120
77160,81,69,120
77280,79,69,120
77400,78,73,120
77520,76,73,120
77640,74,75,120
77760,74,89,1440
77880,98,79,120
78000,92,75,120
78120,89,71,120
78240,84,78,120
78360,86,69,120
78480,80,74,120
78600,77,66,120
78720,72,62,120
78840,77,71,120
78960,80,64,120
79080,86,64,120
79200,79,80,120
79320,77,59,120
79440,71,64,120
79560,72,60,120
79680,86,71,120
79800,84,62,120
79920,83,59,120
80040,81,57,120
80160,79,54,120
80280,77,52,120
80400,76,49,120
80520,74,46,120
80640,76,51,1440
80760,100,45,120
80880,96,43,120
81000,91,41,120
81120,84,45,120
81240,88,40,120
81360,84,43,120
81480,79,38,120
81600,64,46,120
81720,79,41,120
81840,84,38,120
81960,88,38,120
82080,84,47,120
82200,79,35,120
82320,72,38,120
82440,74,36,120
82560,88,54,120
82680,86,45,120
82800,84,46,120
82920,83,50,120
83040,81,50,120
83160,79,54,120
83280,77,54,120
83400,76,55,120
83520,77,61,1440
83640,101,54,120
83760,96,51,120
83880,93,49,120
84000,84,54,120
84120,89,47,120
84240,84,51,120
84360,81,45,120
84480,65,55,120
84600,81,49,120
84720,84,45,120
84840,88,45,120
84960,81,56,120
85080,78,41,120
85200,72,45,120
85320,76,43,120
85440,69,51,120
85560,66,44,120
85680,60,45,120
85800,62,47,120
85920,63,53,120
86040,60,54,120
86160,54,56,120
86280,48,59,120
86400,43,67,360
86520,98,65,120
86640,96,61,120
86760,91,59,120
86880,84,64,120
87000,86,58,120
87120,84,61,120
87240,79,55,120
87360,72,51,120
87480,79,60,120
87600,84,56,120
87720,86,56,120
87840,83,69,120
87960,79,50,120
88080,71,56,120
88200,72,53,120
88320,74,73,120
88440,76,62,120
88560,77,63,120
88680,79,67,120
88800,81,68,120
88920,83,74,120
89040,84,75,120
89160,86,76,120
89280,42,75,1440
89400,98,72,120
89520,96,67,120
89640,93,65,120
89760,84,71,120
89880,86,64,120
90000,84,68,120
90120,81,61,120
90240,72,56,120
90360,81,66,120
90480,84,62,120
90600,87,62,120
90720,84,75,120
90840,81,55,120
90960,72,62,120
91080,74,57,120
91200,75,80,120
91320,77,68,120
91440,79,69,120
91560,81,74,120
91680,83,75,120
91800,84,81,120
91920,86,83,120
92040,87,84,120
92160,83,84,600
92165,88,84,715
92280,100,83,120
92400,95,78,120
92520,92,75,120
92640,52,83,120
92760,47,75,120
92880,83,78,120
93000,59,75,120
93120,71,64,120
93240,80,75,120
93360,83,70,120
93480,88,70,120
93600,83,85,120
93720,80,62,120
93840,76,70,120
93960,78,64,120
94080,80,90,120
94200,81,77,120
94320,83,78,120
94440,84,83,120
94560,86,83,120
94680,88,90,120
94800,90,92,120
94920,92,93,120
95040,93,95,480
95160,101,85,120
95280,96,81,120
95400,48,77,120
95520,53,86,120
95640,50,77,120
95760,84,80,120
95880,60,78,120
96000,74,68,120
96120,81,78,120
96240,84,72,120
96360,89,72,120
96480,83,67,120
96600,84,62,120
96720,83,69,120
96840,84,68,120
96960,83,72,120
97080,84,68,120
97200,83,74,120
97320,84,70,120
97440,83,77,80
97520,84,74,80
97560,50,73,120
97600,83,73,80
97680,81,80,120
97800,83,76,120
97920,84,94,600
98040,100,84,120
98160,96,80,120
98280,91,76,120
98400,52,80,120
98520,88,73,120
98640,84,78,120
98760,79,72,120
98880,64,80,120
99000,82,75,120
99120,91,69,120
99240,90,69,120
99360,84,77,120
99480,79,64,120
99600,76,69,120
99720,78,77,480
99840,72,72,120
99960,69,65,120
100080,63,67,120
100200,77,74,480
100320,71,68,120
100440,68,59,120
100560,62,67,120
100680,77,57,120
100800,36,88,120
100920,100,79,120
101040,96,75,120
101160,91,71,120
101280,84,77,120
101400,88,70,120
101520,84,74,120
101640,79,68,120
101760,72,62,120
101880,79,72,120
102000,84,65,120
102120,87,65,120
102240,84,73,120
102360,78,60,120
102480,72,65,120
102600,75,73,480
102720,69,68,120
102840,66,61,120
102960,60,63,120
103080,74,70,480
103200,68,63,120
103320,65,59,120
103440,59,63,120
103560,74,58,120
103680,43,91,360
103800,97,75,120
103920,91,71,120
104040,88,67,120
104160,82,74,120
104280,85,66,120
104400,79,71,120
104520,76,63,120
104640,70,59,120
104760,76,68,120
104880,79,62,120
105000,85,62,120
105120,78,69,120
105240,75,57,120
105360,69,62,120
105480,73,70,480
105600,66,61,120
105720,63,54,120
105840,57,54,120
105960,72,65,480
106080,66,60,120
106200,63,53,120
106320,57,57,120
106440,72,52,120
106560,43,85,1440
106680,96,71,120
106800,89,68,120
106920,86,66,120
107040,80,73,120
107160,84,66,120
107280,77,72,120
107400,74,65,120
107520,68,62,120
107640,74,72,120
107760,77,67,120
107880,84,68,120
108000,77,77,120
108120,74,63,120
108240,68,70,120
108360,72,78,480
108480,65,74,120
108600,62,69,120
108720,56,72,120
108840,71,84,480
108960,65,77,120
109080,62,80,120
109200,55,84,120
109320,71,87,120
109440,36,98,1440
109560,96,85,120
109680,91,82,120
109800,88,77,120
109920,79,83,120
110040,84,76,120
110160,79,81,120
110280,76,74,120
110400,67,68,120
110520,76,78,120
110640,79,73,120
110760,84,73,120
110880,79,81,120
111000,76,66,120
111120,67,73,120
111240,72,81,120
111360,67,76,120
111480,64,69,120
111600,55,72,120
111720,60,83,120
111840,55,73,120
111960,52,66,120
112080,43,72,120
112200,48,66,120
112320,36,96,1440
