time,note,velocity,duration
840,61,77,120
960,61,85,720
1320,56,70,120
1440,56,79,240
1680,61,73,80
1760,59,70,80
1840,61,68,80
1920,59,77,768
2280,54,70,120
2400,54,80,240
2688,61,64,48
2736,64,70,48
2784,62,66,48
2832,61,66,48
2880,61,79,800
3240,56,70,120
3360,56,79,240
3680,59,70,80
3760,61,68,80
3840,59,81,746
4200,54,63,120
4320,54,71,240
4586,57,62,40
4639,56,67,39
4679,59,59,39
4718,57,63,40
4758,56,66,41
4800,56,75,958
5160,53,59,120
5280,53,68,240
5760,56,54,746
6120,52,46,120
6240,52,51,240
6506,57,48,40
6559,56,47,39
6599,59,53,39
6638,57,47,40
6678,56,44,40
6720,56,60,1440
7080,51,44,120
7200,51,51,240
7680,54,42,240
7760,45,50,96
7840,44,44,96
7920,47,50,96
8000,45,43,96
8080,44,43,96
8160,42,52,96
8240,40,43,96
8320,42,43,96
8400,39,43,96
8480,45,49,120
8600,44,39,40
8640,37,54,960
9000,44,43,120
9120,49,52,480
9600,37,52,960
9960,44,48,120
10080,49,54,480
10440,56,48,60
10500,56,48,60
10560,61,58,120
10920,44,48,120
11040,61,60,600
11520,37,52,960
11640,60,48,120
11760,61,58,120
11880,63,62,60
11940,54,52,300
11970,57,52,270
12000,64,65,120
12240,64,61,120
12360,63,48,120
12480,61,62,360
12840,61,54,60
12900,63,54,60
12960,61,59,360
13320,60,55,120
13440,61,62,840
13800,44,48,120
13920,56,47,240
14280,63,60,120
14400,64,63,120
14760,47,48,120
14880,64,66,600
15360,35,53,960
15480,63,52,120
15600,64,63,120
15720,66,68,120
15840,68,71,120
15960,63,60,120
16080,68,67,120
16200,66,52,120
16320,64,68,360
16680,64,56,60
16740,66,56,60
16800,64,64,360
17160,63,60,120
17280,64,68,480
17640,47,48,60
17700,32,54,540
17760,68,67,480
18120,63,60,60
18180,56,35,30
18195,61,37,30
18210,64,40,30
18240,73,77,240
18600,44,52,120
18720,73,69,600
19200,30,59,960
19320,72,57,120
19440,73,69,120
19560,75,73,120
19680,76,77,120
19800,69,67,120
19920,76,74,120
20040,75,58,120
20160,73,72,360
20520,73,64,60
20580,75,64,60
20640,73,72,360
21000,72,62,120
21120,73,70,840
21480,44,59,120
21600,68,67,240
21960,76,74,120
22080,80,84,120
22440,56,58,120
22560,68,86,480
23040,68,60,60
23100,67,54,60
23160,68,54,60
23220,67,53,60
23280,64,55,60
23340,67,57,60
23400,68,59,60
23460,70,61,60
23520,71,63,60
23580,73,64,60
23640,75,66,60
23700,76,68,60
23760,79,70,60
23820,80,72,60
23880,82,74,60
23940,83,76,60
24000,85,81,60
24060,87,84,60
24120,88,87,60
24180,87,83,60
24240,85,81,60
24300,83,80,60
24360,81,78,60
24420,80,77,60
24480,79,75,60
24540,83,80,60
24600,81,78,60
24660,80,75,60
24720,79,73,60
24780,76,70,60
24840,75,68,60
24900,73,65,60
24960,76,71,60
25020,75,67,60
25080,73,63,60
25140,71,58,60
25200,69,54,60
25260,68,50,60
25320,67,46,60
25380,68,42,60
25440,67,46,60
25500,64,34,60
25560,67,33,60
25620,71,38,120
25740,71,34,60
25800,71,30,60
25860,71,34,60
25920,71,28,60
25980,71,36,360
26340,70,30,60
26400,68,42,360
26760,68,35,60
26820,70,35,60
26880,68,39,360
27240,67,37,120
27360,68,35,480
27720,51,24,120
27840,63,23,240
28200,68,41,60
28260,68,41,60
28320,80,54,120
28680,64,33,120
28740,71,48,300
28770,76,48,630
28800,80,57,600
29280,52,42,240
29400,78,48,120
29520,80,51,120
29640,81,53,120
29760,83,56,120
29880,76,50,120
30000,81,55,120
30120,80,49,120
30240,78,54,120
30600,78,48,40
30640,78,44,40
30680,80,44,40
30720,78,57,120
31140,77,51,60
31200,78,54,120
31560,63,36,120
31680,80,61,480
32040,68,33,120
32160,76,54,120
32520,61,33,120
32580,68,48,300
32610,73,48,630
32640,76,57,600
33120,52,42,240
33240,75,48,120
33360,76,51,120
33480,78,53,60
33540,76,47,30
33570,78,47,30
33600,80,56,120
33780,73,50,60
33840,78,55,120
33960,76,49,120
34080,75,54,120
34440,75,48,40
34480,75,44,40
34520,76,44,40
34560,75,57,120
34980,73,51,60
35040,75,54,480
35400,63,33,120
35520,68,33,480
35820,75,42,60
35880,75,42,60
35940,80,42,480
36000,75,54,360
36360,68,44,120
36400,72,35,40
36440,80,35,480
36480,72,52,360
36840,75,44,60
36880,73,36,40
36920,80,36,480
36960,75,54,360
37320,78,46,120
37360,76,36,40
37400,80,36,480
37440,76,53,360
37800,75,49,120
37840,73,38,40
37880,80,37,480
37920,73,54,360
38280,68,46,120
38320,73,37,40
38360,80,37,480
38400,73,53,360
38760,75,49,120
38800,76,37,40
38840,80,37,440
38880,76,54,360
39240,56,30,40
39280,78,36,40
39320,80,36,40
39360,78,53,360
39720,76,49,120
39760,75,38,40
39800,80,38,240
39840,75,54,240
40000,68,38,40
40040,80,38,240
40080,68,46,240
40200,51,29,40
40240,72,38,40
40280,80,38,240
40320,72,53,240
40480,73,38,40
40520,80,38,240
40560,73,49,240
40720,75,37,40
40760,80,37,240
40800,75,54,240
40960,78,36,40
41000,80,36,240
41040,78,46,240
41160,56,30,40
41200,76,36,40
41240,80,40,240
41280,76,53,240
41440,75,38,40
41480,80,38,280
41520,75,49,240
41760,80,44,60
41820,81,39,60
41880,80,44,60
41940,81,39,60
42000,80,44,60
42060,81,39,60
42120,80,44,60
42160,56,30,40
42180,81,39,60
42200,64,30,40
42240,80,44,60
42300,81,39,60
42360,80,44,60
42420,81,39,60
42480,80,44,60
42540,81,39,60
42600,80,44,60
42660,81,39,60
42720,80,44,60
42780,81,39,60
42840,80,44,60
42900,81,39,60
42960,80,60,60
43020,81,39,60
43080,80,44,60
43120,61,30,40
43140,81,39,60
43160,68,30,40
43200,85,65,240
43260,81,39,60
43320,80,44,60
43380,81,39,60
43440,88,66,240
43500,81,39,60
43560,80,44,60
43620,81,39,60
43680,80,59,48
43728,87,42,48
43776,92,51,48
43824,87,45,48
43872,80,39,36
43920,80,58,45
43980,80,40,60
44040,92,51,60
44080,60,31,40
44100,80,40,60
44120,68,31,40
44160,84,65,120
44220,92,52,60
44280,87,41,60
44340,84,41,60
44400,85,61,120
44460,92,49,60
44520,85,39,60
44580,80,39,60
44640,87,63,60
44700,92,51,60
44760,87,41,60
44820,80,41,60
44880,90,58,60
44940,92,48,60
45000,90,41,60
45040,72,33,40
45060,80,41,60
45080,75,33,40
45120,88,63,60
45180,92,49,60
45240,88,40,60
45300,80,40,60
45360,87,60,60
45420,92,48,60
45480,87,41,60
45540,80,41,45
45600,80,65,48
45648,85,42,48
45696,92,51,48
45744,85,45,36
45792,80,39,36
45840,80,58,45
45900,80,40,60
45960,92,51,60
46000,61,31,40
46020,80,40,60
46040,68,31,40
46080,85,65,120
46140,92,52,60
46200,85,41,60
46260,80,41,60
46320,87,63,120
46380,92,49,60
46440,87,39,60
46500,80,39,60
46560,88,64,60
46620,92,51,60
46680,88,41,60
46740,80,41,60
46800,92,53,60
46860,80,44,60
46920,92,51,60
46960,73,33,40
46980,80,41,60
47000,76,33,40
47040,90,63,60
47100,92,49,60
47160,90,40,60
47220,80,40,60
47280,88,63,60
47340,92,48,60
47400,88,41,60
47460,80,41,60
47520,87,64,48
47568,92,46,48
47616,93,51,48
47664,92,45,48
47712,87,39,48
47760,80,63,48
47808,92,46,48
47856,93,52,48
47880,56,31,40
47904,92,46,48
47920,60,31,40
47952,80,40,48
47960,68,31,40
48000,84,60,48
48048,92,47,48
48096,93,53,48
48144,92,46,48
48192,80,40,48
48240,85,61,48
48288,92,48,48
48336,93,54,48
48384,92,47,48
48432,80,41,48
48480,87,66,48
48528,92,49,48
48576,93,55,48
48624,92,48,48
48672,80,42,48
48720,90,64,48
48768,92,50,48
48816,93,56,48
48840,63,34,40
48864,92,49,48
48880,72,34,40
48912,80,42,48
48920,75,34,40
48960,88,65,48
49008,92,51,48
49056,93,57,48
49104,92,50,48
49152,80,43,48
49200,87,66,48
49248,92,51,48
49296,93,57,48
49344,92,51,48
49392,80,44,48
49440,92,55,60
49500,93,48,60
49560,92,55,60
49620,93,48,60
49680,92,55,60
49740,93,48,60
49800,92,55,60
49840,61,34,40
49860,93,48,60
49880,68,34,40
49920,92,55,60
49980,93,48,60
50040,92,55,60
50100,93,48,60
50160,92,55,60
50220,93,48,60
50280,92,55,60
50340,93,48,60
50400,92,55,60
50460,93,48,60
50520,92,55,60
50580,93,48,60
50640,92,58,60
50700,93,48,60
50760,92,55,60
50800,73,34,40
50820,93,48,60
50840,76,34,40
50880,88,52,44
50924,92,47,44
50967,100,54,44
51011,99,51,44
51055,97,49,44
51099,92,47,44
51143,88,45,44
51186,87,42,44
51230,85,40,44
51274,80,38,44
51318,76,41,42
51360,75,53,60
51480,51,34,60
51540,76,37,60
51600,78,47,60
51720,60,34,60
51780,80,43,60
51840,81,51,60
51960,68,35,60
52020,80,42,60
52080,83,51,60
52200,68,35,60
52260,81,46,60
52320,80,54,120
52440,51,34,60
52500,68,51,180
52560,80,55,120
52680,60,34,60
52740,70,53,180
52800,80,58,120
52920,68,35,60
52980,72,55,180
53040,80,60,120
53160,68,35,60
53220,73,37,30
53250,75,37,30
53280,73,50,60
53400,52,34,60
53460,72,37,60
53520,73,48,60
53640,61,34,60
53700,75,39,30
53730,76,34,15
53745,78,35,15
53760,76,51,60
53880,68,35,60
53940,75,42,60
54000,76,53,60
54120,68,35,60
54180,78,42,60
54240,79,55,60
54360,52,34,60
54420,80,45,60
54480,81,54,60
54600,61,34,60
54660,80,48,60
54720,78,55,60
54840,68,35,60
54900,76,42,60
54960,80,52,60
55080,68,35,60
55140,73,42,30
55170,72,49,510
55200,87,57,60
55320,51,34,60
55380,88,55,60
55440,90,62,60
55560,60,34,60
55620,92,55,60
55680,93,61,60
55800,68,35,60
55860,92,49,60
55920,95,57,60
56040,68,35,60
56100,93,51,60
56160,92,60,120
56280,51,34,60
56340,68,51,180
56400,80,58,120
56520,60,34,60
56580,70,53,180
56640,82,62,120
56760,68,35,60
56820,72,55,180
56880,84,65,120
57000,68,35,60
57060,73,61,20
57080,80,55,20
57100,87,66,20
57120,85,62,60
57180,87,40,60
57240,85,50,60
57300,87,40,60
57360,85,49,60
57420,87,40,60
57480,85,47,60
57540,87,39,60
57600,85,47,60
57660,87,39,60
57720,85,46,60
57780,87,39,60
57840,85,46,60
57900,87,39,60
57960,85,45,60
58020,87,39,60
58080,85,51,60
58140,87,38,60
58200,85,48,60
58260,87,38,60
58320,85,46,60
58380,87,38,60
58440,85,45,60
58500,87,38,60
58560,85,45,60
58620,87,38,60
58680,85,43,60
58740,87,37,60
58800,85,43,60
58860,87,37,60
58920,85,43,60
58980,87,37,60
59040,85,44,60
59100,87,33,60
59160,85,41,60
59220,87,33,60
59280,85,42,60
59340,87,35,60
59400,85,42,60
59460,87,36,60
59520,85,44,60
59580,87,37,60
59640,85,44,60
59700,87,38,60
59760,85,45,60
59820,87,40,60
59880,85,47,60
59940,87,41,60
60000,85,56,60
60060,87,42,60
60120,85,51,60
60180,87,40,60
60240,85,48,60
60300,87,39,60
60360,85,45,60
60420,87,37,60
60480,85,44,60
60540,87,36,60
60600,85,41,60
60660,87,35,60
60720,85,39,60
60780,87,33,60
60840,85,38,60
60900,87,32,60
60960,85,39,60
60990,80,31,60
61020,84,33,60
61080,87,42,60
61140,85,37,60
61200,89,47,60
61260,87,44,60
61320,85,41,60
61380,80,39,60
61440,77,44,60
61500,75,39,60
61560,73,39,60
61620,68,39,60
61680,65,42,60
61740,68,36,60
61800,73,39,60
61860,75,43,60
61920,77,46,60
61980,80,42,60
62040,85,44,60
62100,87,46,60
62160,89,52,60
62220,92,46,60
62280,97,53,60
62340,92,46,60
62400,99,59,60
62460,97,52,60
62520,101,59,60
62580,99,53,60
62640,97,59,60
62700,92,54,60
62760,89,59,60
62820,97,59,60
62880,92,65,60
62940,89,56,60
63000,87,56,60
63060,85,40,60
63120,89,58,60
63180,87,51,60
63240,85,50,60
63300,80,50,60
63360,77,62,60
63420,85,52,60
63480,80,59,60
63540,77,55,60
63600,75,63,60
63660,73,56,60
63720,77,57,60
63780,75,58,60
63840,73,69,60
63900,68,60,60
63960,65,63,60
64020,73,58,60
64080,68,69,60
64140,65,64,60
64200,63,66,60
64260,61,68,60
64320,65,70,80
64400,63,77,80
64480,61,82,80
64560,61,85,720
64920,56,70,120
65040,56,79,240
65280,61,73,80
65360,59,70,80
65440,61,68,80
65520,59,77,768
65880,54,70,120
66000,54,80,240
66288,61,64,48
66336,64,70,48
66384,62,66,48
66432,61,66,48
66480,61,74,800
66840,56,70,120
66960,56,79,240
67280,59,70,80
67360,61,68,80
67440,59,77,746
67800,54,63,120
67920,54,71,240
68186,57,54,40
68239,56,62,39
68279,59,56,39
68318,57,56,40
68358,56,56,41
68400,56,65,958
68760,53,59,120
68880,53,68,240
69360,56,54,746
69720,52,46,120
69840,52,51,240
70106,57,45,40
70159,56,44,39
70199,59,50,39
70238,57,44,40
70278,56,41,40
70320,56,56,1680
70680,51,40,120
70800,51,46,240
71520,54,30,240
72480,32,39,240
72720,33,42,360
73080,35,46,120
73200,37,55,120
73620,37,42,60
73680,64,40,480
74160,30,47,240
74280,48,43,120
74400,49,52,120
74520,51,55,120
74640,69,40,480
74760,45,48,120
74880,52,55,120
75000,51,43,120
75120,49,51,120
75480,37,43,30
75510,44,45,30
75540,49,46,30
75570,51,48,30
75600,64,40,480
75960,48,48,120
76080,49,56,840
76560,64,40,480
76920,51,49,60
76980,35,53,180
77040,52,57,120
77520,68,40,480
78000,32,48,240
78120,51,46,120
78240,52,56,120
78360,54,61,120
78480,71,40,480
78600,47,53,120
78720,56,60,120
78840,54,48,120
78960,52,61,120
79320,37,48,30
79350,47,49,30
79380,52,50,30
79410,54,51,30
79440,68,40,480
79800,51,51,120
79920,52,59,120
80400,68,56,480
80760,63,57,120
80820,37,39,30
80850,49,41,30
80880,61,64,240
81360,73,75,720
81840,69,65,240
81960,60,67,120
82080,61,69,120
82200,63,72,120
82320,64,74,120
82440,57,65,120
82560,64,74,120
82680,63,66,120
82800,61,78,120
83160,61,63,60
83220,63,63,60
83280,73,70,240
83640,60,72,120
83760,61,78,120
84240,76,78,480
84480,45,77,150
84630,44,55,210
84690,56,55,150
84720,80,85,120
85207,32,77,540
85590,66,64,330
85620,72,67,300
85650,75,71,270
85680,81,86,240
85740,31,38,60
85800,32,39,60
85860,33,39,60
85920,36,42,60
85980,37,43,60
86040,39,45,60
86100,40,47,60
86160,42,49,60
86220,44,51,60
86280,47,53,60
86340,45,46,60
86400,44,43,60
86460,43,43,60
86520,44,45,60
86580,45,46,60
86640,48,47,60
86700,49,49,60
86760,51,50,60
86820,52,51,60
86880,54,52,60
86940,55,57,60
87000,56,62,60
87060,59,69,60
87120,57,58,60
87180,56,47,60
87240,57,48,60
87300,60,49,60
87360,61,50,60
87420,63,51,60
87480,64,52,60
87540,66,53,60
87600,67,71,60
87660,68,76,60
87720,71,80,60
87780,69,71,60
87840,68,64,60
87900,69,65,60
87960,72,67,60
88020,73,69,60
88080,75,70,68
88148,76,72,69
88217,78,74,68
88285,79,80,68
88353,80,83,69
88422,83,88,68
88490,81,82,70
88560,80,69,60
88620,81,61,60
88680,80,69,60
88740,81,63,60
88800,80,72,60
88860,81,64,60
88920,80,72,60
88980,81,65,60
89040,80,74,60
89100,81,66,60
89160,80,74,60
89220,81,67,60
89280,80,76,60
89340,81,68,60
89400,80,77,60
89460,81,69,60
89520,80,79,60
89580,81,70,60
89640,80,79,60
89700,81,70,60
89760,80,81,60
89820,81,72,60
89880,80,82,60
89940,81,73,60
90000,80,83,60
90060,81,74,60
90120,80,84,60
90180,81,76,60
90240,80,87,60
90300,81,76,60
90360,80,86,60
90420,81,77,60
90480,80,88,60
90540,81,78,60
90600,80,88,60
90660,81,79,60
90720,80,91,60
90780,81,81,60
90840,80,91,60
90900,81,81,60
90960,80,93,60
91020,81,82,60
91080,80,93,60
91140,81,83,60
91200,80,95,60
91260,81,85,60
91320,80,95,60
91380,81,85,60
91440,80,97,60
91500,81,86,60
91560,80,97,60
91620,81,87,60
91680,80,99,60
91740,81,88,60
91800,80,100,60
91860,81,90,60
91920,80,101,60
91980,81,88,60
92040,80,95,60
92100,81,82,60
92160,80,91,60
92220,81,80,60
92280,80,86,60
92340,81,75,60
92400,80,83,60
92460,81,71,60
92520,80,79,60
92580,81,68,60
92640,80,74,60
92700,81,64,60
92760,80,70,60
92820,81,61,60
92880,80,66,60
92940,81,57,60
93000,80,61,60
93060,81,53,60
93120,80,59,60
93180,81,50,60
93240,80,54,60
93300,81,46,60
93360,80,47,107
93467,81,45,96
93573,80,44,97
93680,79,42,97
93787,80,41,96
93894,81,39,96
94001,82,38,96
94107,83,37,97
94214,84,35,95
94320,85,48,120
94680,69,33,120
94740,76,44,300
94770,81,46,630
94800,85,57,600
95280,45,42,240
95400,84,48,120
95520,85,51,120
95640,87,53,120
95760,88,56,120
95880,81,50,120
96000,87,55,120
96120,85,49,120
96240,83,54,120
96600,83,48,60
96660,85,44,60
96720,83,57,360
97080,82,51,120
97200,83,54,120
97680,85,57,480
98160,81,54,120
98520,66,33,120
98640,81,57,600
99120,45,42,240
99240,80,48,120
99360,81,51,120
99480,83,53,120
99600,85,56,120
99720,78,50,120
99840,83,55,120
99960,81,49,120
100080,80,54,120
100440,80,48,60
100500,81,48,60
100560,80,57,360
100920,79,51,120
101040,80,54,480
101820,37,39,60
101880,39,43,60
101940,40,47,60
102000,42,50,240
102360,69,48,40
102400,74,48,40
102440,80,48,40
102480,78,57,360
102840,77,51,120
102960,78,54,240
103740,38,39,60
103800,40,43,60
103860,42,47,60
103920,44,50,120
104280,66,48,40
104320,69,48,40
104360,76,48,40
104400,74,57,360
104760,73,51,120
104880,74,54,840
105720,73,37,120
105840,73,37,240
106320,73,45,600
106800,49,37,240
106920,72,43,120
107040,73,45,120
107160,75,47,120
107280,76,50,120
107400,69,45,120
107520,75,49,120
107640,73,44,120
107760,71,48,120
108120,71,43,60
108180,73,39,60
108240,71,51,360
108600,70,45,120
108720,71,48,120
109200,73,51,480
109680,69,48,120
110160,69,51,600
110640,45,37,240
110760,68,43,120
110880,69,45,120
111000,71,47,60
111060,69,40,30
111090,71,40,30
111120,73,50,120
111240,66,45,120
111360,71,49,120
111480,69,44,120
111600,68,48,120
111960,68,43,60
112020,69,43,60
112080,68,51,360
112440,67,45,120
112560,68,48,480
113340,37,35,60
113400,39,38,60
113460,40,42,60
113520,30,45,240
113880,57,43,40
113920,62,43,40
113960,68,43,40
114000,66,51,360
114360,65,45,120
114480,66,48,240
115260,38,35,60
115320,40,38,60
115380,42,42,60
115440,32,45,240
115920,57,45,360
116280,56,40,120
116400,57,43,1440
117840,56,38,480
118140,32,30,60
118200,33,31,60
118260,36,33,60
118320,37,31,780
118800,56,38,480
119100,37,30,60
119160,35,31,60
119220,37,33,60
119280,35,31,576
119760,56,38,480
119856,37,31,96
119952,40,35,96
120048,38,33,96
120144,37,35,96
120240,37,31,780
120720,56,38,480
121020,37,30,60
121080,35,31,60
121140,37,31,60
121200,35,31,560
121680,56,38,480
121760,33,35,80
121840,32,30,80
121920,35,35,80
122000,33,31,80
122080,32,31,80
122160,32,31,960
122640,56,34,480
123120,32,39,960
123600,56,38,480
124080,56,38,1440
125940,73,39,20
125960,80,42,20
125980,85,45,920
126000,80,50,360
126360,73,44,120
126480,80,50,360
126840,81,46,60
126900,73,39,20
126920,80,42,20
126940,85,45,920
126960,80,50,360
127320,83,53,120
127440,81,51,360
127800,80,46,60
127860,73,39,20
127880,78,42,20
127900,85,45,920
127920,78,50,360
128280,73,44,120
128400,78,50,360
128760,80,46,60
128820,73,39,20
128840,81,42,20
128860,85,45,380
128880,81,50,360
129240,85,54,540
129360,83,50,360
129720,81,46,60
129780,73,39,20
129800,80,42,20
129820,85,45,920
129840,80,50,360
130200,73,44,120
130320,80,50,360
130680,81,46,60
130740,73,39,20
130760,80,42,20
130780,85,45,920
130800,80,50,360
131160,83,53,120
131280,81,51,360
131640,80,46,60
131700,73,39,20
131720,78,42,20
131740,85,45,920
131760,78,50,360
132120,73,44,120
132240,78,50,360
132600,80,46,60
132660,73,39,20
132680,78,42,20
132700,85,45,920
132720,78,50,360
133080,73,54,120
133200,81,50,360
133560,73,46,60
133620,73,39,20
133640,80,42,20
133660,85,45,920
133680,80,50,360
134040,73,44,120
134100,77,29,60
134160,80,50,360
134520,81,46,60
134580,73,39,20
134600,80,42,20
134620,85,45,920
134640,80,50,360
135000,92,36,60
135060,97,33,60
135120,92,45,480
135480,80,46,60
135540,73,39,20
135560,78,42,20
135580,85,45,920
135600,78,50,360
135960,73,44,120
136020,69,29,60
136080,78,50,360
136440,80,46,60
136500,73,39,20
136520,81,42,20
136540,85,45,380
136560,81,50,360
136920,90,36,60
136980,97,36,60
137040,90,45,480
137400,81,46,60
137460,73,39,20
137480,80,42,20
137500,85,45,920
137520,80,50,360
137880,73,44,120
137940,77,29,60
138000,80,50,360
138360,81,46,60
138420,73,39,20
138440,80,42,20
138460,85,45,920
138480,80,50,360
138840,92,36,60
138900,97,33,60
138960,92,45,480
139320,80,46,60
139380,73,39,20
139400,78,42,20
139420,85,45,920
139440,78,50,360
139800,73,44,120
139860,69,29,60
139920,78,50,360
140280,80,46,60
140340,73,39,20
140360,78,42,20
140380,85,45,892
140400,78,50,360
140760,90,36,60
140820,97,36,60
140880,90,45,392
141240,73,46,32
141300,80,42,30
141330,85,45,30
141360,80,50,360
141720,73,44,120
141780,77,29,60
141840,85,50,360
142200,73,46,60
142260,80,42,30
142290,85,45,30
142320,80,50,360
142680,92,36,60
142740,97,36,60
142800,92,45,480
143160,73,46,60
143220,78,42,30
143250,85,45,30
143280,78,50,360
143640,73,44,120
143700,69,29,60
143760,85,50,360
144120,73,46,60
144180,81,42,30
144210,85,45,30
144240,81,50,360
144600,90,36,60
144660,97,36,60
144720,90,45,420
145080,73,46,60
145140,80,42,30
145170,85,45,30
145200,80,50,360
145560,73,44,120
145620,77,29,60
145680,85,50,360
146040,73,46,60
146100,80,42,30
146130,85,45,30
146160,80,50,360
146520,92,36,60
146580,97,36,60
146640,92,45,480
147000,73,46,60
147060,78,42,30
147090,85,45,30
147120,78,50,360
147480,73,44,120
147540,69,29,60
147600,85,50,360
147960,73,46,60
148020,81,42,30
148050,85,45,30
148080,81,50,360
148440,90,36,60
148500,97,36,60
148560,90,45,420
148920,73,46,120
149040,68,50,480
149160,73,45,60
149280,73,46,60
149400,73,46,60
149520,73,46,60
149640,73,46,60
149760,73,46,60
149880,73,46,60
150000,69,50,120
150120,73,43,60
150240,73,43,60
150360,73,43,60
150480,68,50,120
150600,73,45,60
150720,73,45,60
150840,73,45,60
150960,66,50,480
151080,73,44,60
151200,73,44,60
151320,73,44,60
151440,73,44,60
151560,73,44,60
151680,73,44,60
151800,68,46,60
151920,69,50,120
152040,73,44,60
152160,73,44,60
152280,73,44,60
152400,66,50,120
152520,73,45,60
152640,73,45,60
152760,73,45,60
152880,68,50,480
153000,73,44,60
153120,73,44,60
153240,73,44,60
153360,73,44,60
153480,73,44,60
153600,73,44,60
153720,71,49,60
153840,69,50,120
153960,73,46,60
154080,73,46,60
154200,73,46,60
154320,68,50,120
154440,73,45,60
154560,73,45,60
154680,73,45,60
154800,66,50,480
154920,73,42,60
155040,73,42,60
155160,73,42,60
155280,73,42,60
155400,73,42,60
155520,73,42,60
155640,68,50,60
155760,69,50,120
155880,73,45,60
156000,73,45,60
156120,73,45,60
156240,66,50,120
156360,73,44,60
156480,73,44,60
156600,73,44,60
156720,80,57,480
156840,73,45,60
156960,73,45,60
157080,73,45,60
157200,73,45,60
157320,73,45,60
157440,73,45,60
157560,73,45,60
157680,81,54,240
157800,73,45,60
157920,73,45,60
158040,73,45,60
158160,80,54,240
158280,73,46,60
158400,73,46,60
158520,73,46,60
158640,78,55,480
158760,73,42,60
158880,73,42,60
159000,73,42,60
159120,73,42,60
159240,73,42,60
159360,73,42,60
159480,80,50,60
159600,81,55,480
159720,73,43,60
159840,73,43,60
159960,73,43,60
160080,78,50,480
160200,73,43,60
160320,73,43,60
160440,73,43,60
160560,80,57,480
160680,73,41,60
160800,73,41,60
160920,73,41,60
161040,73,41,60
161160,73,41,60
161280,83,49,240
161400,73,43,60
161520,81,56,240
161640,73,44,60
161760,73,44,60
161880,73,44,60
162000,80,54,240
162120,73,44,60
162240,73,44,60
162360,73,44,60
162480,78,55,480
162600,73,44,60
162720,73,44,60
162840,73,44,60
162960,73,44,60
163080,73,44,60
163200,73,44,60
163320,80,50,60
163440,81,57,480
163560,73,43,60
163680,73,44,60
163800,73,44,60
163920,78,54,480
164040,73,44,60
164160,73,44,60
164280,73,44,60
164400,85,57,60
164520,73,43,60
164640,73,44,60
164760,73,44,60
164880,85,54,60
165000,73,44,60
165120,73,44,60
165240,73,44,60
165360,85,57,60
165480,73,43,60
165600,73,44,60
165720,73,44,60
165840,85,54,60
165960,73,44,60
166080,73,44,60
166200,73,44,60
166320,85,57,60
166440,73,43,60
166560,73,44,60
166680,73,44,60
166800,85,54,60
166920,73,44,60
167040,73,44,60
167160,73,44,60
167280,85,57,60
167400,73,43,60
167520,73,44,60
167640,73,44,60
167760,85,54,60
167880,73,44,60
168000,73,44,60
168120,73,44,60
168240,85,57,60
168360,73,43,60
168480,73,44,60
168600,73,44,60
168720,85,54,60
168840,73,44,60
168960,73,44,60
169080,73,44,60
169200,85,57,60
169320,73,43,60
169440,73,44,60
169560,73,44,60
169680,85,54,60
169800,73,44,60
169920,73,44,60
170040,73,44,60
170160,85,57,60
170280,73,43,60
170400,73,44,60
170520,73,44,60
170640,85,54,60
170760,73,44,60
170880,73,44,60
171000,73,44,60
171120,85,57,60
171240,73,43,60
171360,73,44,60
171480,73,44,60
171600,85,54,60
171720,73,44,60
171840,73,44,60
171960,73,44,60
172080,85,57,60
172200,73,43,60
172320,85,51,60
172440,85,51,60
172560,97,63,60
172680,85,44,60
172800,85,44,60
172920,73,44,60
173040,85,57,60
173160,73,43,60
173280,73,44,60
173400,73,44,60
173520,85,55,60
173640,73,45,60
173760,73,45,60
173880,73,45,60
174000,85,59,60
174120,73,44,60
174240,85,53,60
174360,85,53,60
174480,97,65,60
174600,85,46,60
174720,85,47,60
174840,73,47,60
174960,85,60,60
175080,73,46,60
175200,73,47,60
175320,73,47,60
175440,85,59,60
175560,73,47,60
175680,73,48,60
175800,73,48,60
175920,85,63,60
176040,73,48,60
176160,85,60,60
176280,85,60,60
176400,97,76,60
176520,85,49,60
176640,85,49,60
176760,73,49,60
176880,85,65,60
177000,73,48,60
177120,73,49,60
177240,73,50,60
177360,85,62,60
177480,73,51,60
177600,73,51,60
177720,73,51,60
177840,85,67,60
177960,73,50,60
178080,85,64,60
178200,85,63,60
178320,97,82,60
178440,85,61,60
178560,85,61,60
178680,73,52,60
178800,85,69,60
178920,73,51,60
179040,73,53,60
179160,73,53,60
179280,85,66,60
179400,73,54,60
179520,73,54,60
179640,73,54,60
179760,85,71,60
179880,73,53,60
180000,85,68,60
180120,85,68,60
180240,97,83,60
180360,85,64,60
180480,85,64,60
180600,73,56,60
180720,85,74,60
180840,73,56,60
180960,85,65,60
181080,85,65,60
181200,97,83,60
181320,85,64,60
181440,85,64,60
181560,73,59,60
181680,85,77,60
181800,73,58,60
181920,85,72,60
182040,85,72,60
182160,97,92,60
182280,85,68,60
182400,85,68,60
182520,73,62,60
182640,85,80,60
182760,73,61,60
182880,85,72,60
183000,85,72,60
183120,97,93,60
183240,85,76,60
183360,85,76,60
183480,73,63,60
183600,84,85,60
183840,85,81,120
184080,83,85,360
184320,65,69,120
184440,85,79,120
184560,84,85,60
184800,85,81,120
185040,83,85,360
185280,65,69,120
185400,85,79,120
185520,84,85,60
185760,85,81,120
186000,82,85,360
186240,66,69,120
186360,85,79,120
186480,84,85,60
186720,85,81,120
186960,82,85,360
187200,66,69,120
187320,85,79,120
187440,84,85,60
187680,85,81,120
187920,87,85,360
188160,65,69,120
188280,85,79,120
188400,84,85,60
188640,85,81,120
188880,87,85,360
189120,65,69,120
189240,85,79,120
189360,84,85,60
189600,85,81,120
189840,90,85,360
190080,66,69,120
190200,85,79,120
190320,84,85,60
190560,85,81,120
190800,90,85,360
191040,66,69,120
191160,85,72,120
191280,84,62,60
191520,85,59,120
191760,83,62,360
192000,65,50,120
192120,85,57,120
192240,84,62,60
192480,85,59,120
192720,83,62,360
192960,65,50,120
193080,85,57,120
193200,84,62,60
193440,85,59,120
193680,82,62,360
193920,66,50,120
194040,85,57,120
194160,84,62,60
194400,85,59,120
194640,82,62,360
194880,66,50,120
195000,85,57,120
195120,84,62,60
195360,85,59,120
195600,87,62,360
195840,65,50,120
195960,85,57,120
196080,84,62,60
196320,85,59,120
196560,87,62,360
196800,65,50,120
196920,85,57,120
197040,84,62,60
197280,85,59,120
197520,90,62,360
197760,66,50,120
197880,85,57,120
198000,84,62,60
198240,85,59,120
198480,90,62,360
198720,66,50,120
198840,85,57,120
198960,87,64,120
199200,83,56,120
199440,78,56,120
199680,75,56,120
199920,78,56,120
200160,83,58,120
200400,87,60,120
200640,90,62,120
200880,85,64,120
201120,82,55,120
201360,78,55,120
201600,73,55,120
201840,78,57,120
202080,82,56,120
202320,85,62,240
202560,66,37,120
202710,75,49,210
202740,78,49,180
202770,83,49,150
202800,87,64,120
203040,83,56,120
203280,78,56,120
203520,75,56,120
203760,78,56,120
204000,83,58,120
204240,87,60,120
204480,90,62,120
204720,85,64,120
204960,82,55,120
205200,78,55,120
205440,73,55,120
205680,78,57,120
205920,82,56,120
206160,85,62,240
206400,66,37,120
206640,84,65,120
206760,97,50,120
206880,85,59,120
207000,97,50,120
207120,83,65,240
207240,97,50,120
207360,85,60,240
207480,97,50,120
207600,84,65,120
207720,97,50,120
207840,85,59,120
207960,97,50,120
208080,83,65,240
208200,97,50,120
208320,85,60,240
208440,97,50,120
208560,84,65,120
208680,97,50,120
208800,85,59,120
208920,97,50,120
209040,82,65,240
209160,97,50,120
209280,85,60,240
209400,97,50,120
209520,84,65,120
209640,97,50,120
209760,85,59,120
209880,97,50,120
210000,82,65,240
210120,97,50,120
210240,85,60,240
210360,97,50,120
210480,84,65,120
210600,97,50,120
210720,85,59,120
210840,97,50,120
210960,89,65,240
211080,97,50,120
211200,85,60,240
211320,97,50,120
211440,84,65,120
211560,97,50,120
211680,85,59,120
211800,97,50,120
211920,89,65,240
212040,97,50,120
212160,85,60,240
212280,97,50,120
212400,84,65,120
212520,97,50,120
212640,85,59,120
212760,97,50,120
212880,90,65,240
213000,97,50,120
213120,85,60,240
213240,97,50,120
213360,84,65,120
213480,97,50,120
213600,85,59,120
213720,97,50,120
213840,90,65,240
213960,97,50,120
214080,85,60,240
214200,97,50,120
214320,87,65,120
214440,97,47,120
214560,83,60,120
214680,97,47,120
214800,82,60,120
214920,97,47,120
215040,83,62,120
215160,97,47,120
215280,87,65,120
215400,97,48,120
215520,83,62,120
215640,97,47,120
215760,90,65,120
215880,97,46,120
216000,87,61,120
216120,97,48,120
216240,85,65,120
216360,97,47,120
216480,82,60,120
216600,97,47,120
216720,81,60,120
216840,97,47,120
216960,82,62,120
217080,97,47,120
217200,85,65,120
217320,97,48,120
217440,82,62,120
217560,97,47,120
217680,90,65,120
217800,97,46,120
217920,85,61,120
218040,97,48,120
218160,87,65,120
218280,97,47,120
218400,83,60,120
218520,97,47,120
218640,82,60,120
218760,97,47,120
218880,83,62,120
219000,97,47,120
219120,87,65,120
219240,97,48,120
219360,83,62,120
219480,97,47,120
219600,90,65,120
219720,97,46,120
219840,87,61,120
219960,97,48,120
220080,85,65,120
220200,97,47,120
220320,82,60,120
220440,97,47,120
220560,81,60,120
220680,97,47,120
220800,82,62,120
220920,97,47,120
221040,85,65,120
221160,97,48,120
221280,82,62,120
221400,97,47,120
221520,90,65,120
221640,97,46,120
221760,85,61,120
221880,97,48,120
222000,89,65,120
222120,97,48,120
222180,60,42,60
222240,92,62,150
222360,97,47,120
222480,89,65,120
222600,97,46,120
222660,64,48,60
222720,92,61,150
222840,97,48,120
222960,89,65,120
223080,97,48,120
223140,69,50,60
223200,92,62,150
223320,97,47,120
223440,89,65,120
223560,97,46,120
223620,67,42,60
223680,92,61,150
223800,97,48,120
223920,90,65,120
224040,97,48,120
224100,65,42,60
224160,94,62,150
224280,97,47,120
224340,64,42,60
224400,90,65,120
224520,97,46,120
224580,63,42,60
224640,94,61,150
224760,97,48,120
224880,90,65,120
225000,97,48,120
225060,62,42,60
225120,94,62,150
225240,97,47,120
225300,61,42,60
225360,90,65,120
225480,97,46,120
225540,60,54,60
225600,94,61,150
225720,97,48,120
225840,89,65,120
225960,97,48,120
226020,60,42,60
226080,92,62,150
226200,97,47,120
226320,89,65,120
226440,97,46,120
226500,64,48,60
226560,92,61,150
226680,97,48,120
226800,89,65,120
226920,97,48,120
226980,69,50,60
227040,92,62,150
227160,97,47,120
227280,89,65,120
227400,97,46,120
227460,67,42,60
227520,92,61,150
227640,97,48,120
227760,90,65,120
227880,97,48,120
227940,65,42,60
228000,94,62,150
228120,97,47,120
228180,64,42,60
228240,90,65,120
228360,97,46,120
228420,63,42,60
228480,94,61,150
228600,97,48,120
228720,90,65,120
228840,97,48,120
228900,62,42,60
228960,94,62,150
229080,97,47,120
229140,61,42,60
229200,90,65,120
229320,97,46,120
229380,60,54,60
229440,94,61,150
229560,97,48,120
229680,89,65,120
229800,97,48,120
229920,92,62,150
230040,97,47,120
230160,89,65,120
230280,97,46,120
230400,92,61,150
230520,97,48,120
230640,89,65,120
230760,97,48,120
230880,92,62,150
231000,97,47,120
231120,89,65,480
231480,73,37,120
231600,90,65,120
231720,97,48,120
231840,94,62,150
231960,97,47,120
232080,90,65,120
232200,97,46,120
232320,94,61,150
232440,97,48,120
232560,90,65,120
232680,97,48,120
232800,94,62,150
232920,97,47,120
233040,90,65,480
233400,73,37,120
233520,89,65,120
233640,97,48,120
233760,92,62,150
233880,97,47,120
234000,89,65,120
234120,97,46,120
234240,92,61,150
234360,97,48,120
234480,89,65,120
234600,97,48,120
234720,92,62,150
234840,97,47,120
234960,89,65,480
235320,73,37,120
235440,90,65,120
235560,97,48,120
235680,94,62,150
235800,97,47,120
235920,90,65,120
236040,97,46,120
236160,94,61,150
236280,97,48,120
236400,90,65,120
236520,97,48,120
236640,94,62,150
236760,97,47,120
236880,90,65,480
237240,73,37,120
237300,83,66,60
237360,99,82,120
237600,71,36,120
237840,80,65,720
238080,71,36,120
238320,56,42,120
238560,82,65,120
238800,83,69,120
239040,80,65,120
239220,82,63,60
239280,97,83,120
239520,70,34,120
239760,78,65,720
240000,70,34,120
240240,54,42,120
240480,80,65,120
240720,82,69,120
240960,78,59,120
241200,77,65,120
241440,78,61,120
241680,80,65,120
241920,82,61,120
242160,83,65,120
242400,85,60,120
242640,87,65,120
242880,89,59,120
243060,90,61,30
243090,92,61,30
243120,90,75,120
243360,89,65,120
243600,90,71,120
243840,92,65,120
244080,94,73,120
244320,92,65,120
244560,94,73,120
244800,90,65,120
244980,83,50,20
245000,89,54,20
245020,92,57,20
245040,99,82,120
245280,71,36,120
245520,80,65,720
245760,71,36,120
246000,56,42,120
246240,82,66,120
246480,83,70,120
246720,80,66,120
246900,82,46,20
246920,85,58,20
246940,90,61,2
246960,97,85,120
247200,70,35,120
247440,78,67,720
247680,66,35,120
247920,54,44,120
248160,80,68,120
248400,82,73,120
248640,78,63,120
248880,77,69,120
249120,78,65,120
249360,80,70,120
249600,82,65,120
249840,83,70,120
250080,85,65,120
250320,87,71,120
250560,89,64,120
250800,90,83,120
251040,89,72,120
251280,90,79,120
251520,92,72,120
251760,94,82,120
252000,92,73,120
252240,94,83,120
252480,90,74,120
252660,87,58,30
252690,94,62,30
252720,102,93,120
252960,66,44,120
253200,75,77,720
253440,60,44,120
253680,54,52,120
253920,77,75,120
254160,78,78,120
254400,75,71,120
254580,85,58,30
254610,92,62,30
254640,101,93,120
254880,65,44,120
255120,73,77,720
255360,61,44,120
255600,49,52,120
255840,75,75,120
256080,77,78,120
256320,73,71,120
256560,72,70,120
256800,73,72,120
257040,75,74,120
257280,77,77,120
257520,78,79,120
257760,80,75,120
258000,82,77,120
258240,84,80,120
258480,85,82,120
258720,84,79,120
258960,85,79,120
259200,87,80,120
259440,89,87,120
259680,87,80,120
259920,89,87,120
260160,85,80,120
260340,87,58,30
260370,94,62,30
260400,102,97,120
260640,66,46,120
260880,75,80,720
261120,60,46,120
261360,51,54,120
261600,77,79,120
261840,78,82,120
262080,75,75,120
262260,85,61,30
262290,92,65,30
262320,101,98,120
262560,65,46,120
262800,73,82,720
263040,61,47,120
263280,49,55,120
263520,75,80,120
263760,77,83,120
264000,73,76,120
264240,72,75,120
264480,73,77,120
264720,75,79,120
264960,77,83,120
265200,78,86,120
265440,80,81,120
265680,82,83,120
265920,84,87,120
266160,85,87,240
266400,84,76,120
266640,86,87,240
266880,85,76,120
267120,87,88,240
267360,86,77,120
267600,88,89,240
267840,87,79,120
268080,89,91,240
268320,88,78,120
268560,90,92,240
268800,89,80,120
269040,91,93,240
269280,90,82,120
269520,92,93,240
269760,91,81,120
270000,93,95,240
270240,92,82,120
270480,94,96,240
270720,93,82,120
270960,95,97,240
271200,94,84,120
271440,95,98,240
271680,96,84,120
271920,97,102,240
272160,96,95,240
272400,97,102,240
272640,96,95,240
272880,97,102,240
273120,96,95,240
273360,97,102,240
273600,96,95,240
273840,97,102,240
274080,84,81,260
274320,85,88,260
274560,84,81,260
274800,85,88,120
275040,72,74,260
275280,73,80,260
275520,72,72,240
275760,73,93,480
276000,68,76,120
276240,77,84,480
276480,73,76,120
276720,82,100,720
276960,77,76,120
277200,77,76,120
277440,80,92,120
277680,78,96,120
277920,77,88,120
278160,76,88,120
278340,63,69,180
278360,66,71,140
278380,70,73,140
278400,75,89,120
278640,74,88,120
278820,61,63,180
278840,66,67,160
278860,70,70,140
278880,73,83,120
279120,72,91,120
279360,73,88,120
279600,73,93,480
279840,68,76,120
280080,77,84,480
280320,73,76,120
280560,82,100,720
280800,77,76,120
281040,77,76,120
281280,80,92,120
281520,78,96,120
281760,77,88,120
282000,75,88,120
282240,73,74,120
282480,78,89,480
282960,82,80,480
283440,89,55,120
283560,97,56,120
283680,92,57,120
283800,97,59,120
283920,89,60,120
283927,56,61,120
284040,97,61,120
284160,92,63,120
284280,97,64,120
284400,89,66,120
284520,97,67,120
284640,92,69,120
284760,97,69,120
284880,89,68,120
285000,97,67,120
285120,92,67,120
285240,97,66,120
285360,90,71,120
285480,97,64,120
285600,94,67,120
285720,97,63,120
285840,90,68,120
285960,97,62,120
286080,94,68,120
286200,97,61,120
286320,90,69,120
286440,97,60,120
286560,94,63,120
286680,97,58,120
286800,90,61,120
286920,97,57,120
287040,94,61,120
287160,97,56,120
287280,89,60,120
287400,97,60,120
287520,92,61,120
287640,97,62,120
287760,89,62,120
287767,56,64,120
287880,97,63,120
288000,92,64,120
288120,97,66,120
288240,89,66,120
288360,97,67,120
288480,92,69,120
288600,97,69,120
288720,89,68,120
288840,97,67,120
288960,92,67,120
289080,97,66,120
289200,90,71,120
289320,97,64,120
289440,94,67,120
289560,97,63,120
289680,90,68,120
289800,97,62,120
289920,94,68,120
290040,97,61,120
290160,90,69,120
290280,97,59,120
290400,94,61,120
290520,97,56,120
290640,90,58,120
290760,97,52,120
290880,94,57,120
291000,97,50,120
291120,89,65,120
291240,97,48,120
291360,92,62,150
291480,97,47,120
291600,89,65,120
291720,97,46,120
291840,92,61,150
291960,97,48,120
292080,89,65,120
292200,97,48,120
292320,92,62,150
292440,97,47,120
292560,89,65,480
292920,73,37,120
293040,90,65,120
293160,97,48,120
293280,94,62,150
293400,97,47,120
293520,90,65,120
293640,97,46,120
293760,94,61,150
293880,97,48,120
294000,90,65,120
294120,97,48,120
294240,94,62,150
294360,97,47,120
294480,90,65,480
294840,73,37,120
294960,89,65,120
295080,97,48,120
295200,92,62,150
295320,97,47,120
295440,89,65,120
295560,97,46,120
295680,92,61,150
295800,97,48,120
295920,89,65,120
296040,97,48,120
296160,92,62,150
296280,97,47,120
296400,89,65,480
296760,73,37,120
296880,90,65,120
297000,97,48,120
297120,94,62,150
297240,97,47,120
297360,90,65,120
297480,97,46,120
297600,94,61,150
297720,97,48,120
297840,90,65,120
297960,97,48,120
298080,94,62,150
298200,97,47,120
298320,90,65,420
298680,73,37,60
298800,87,65,120
298920,97,47,120
299040,83,60,120
299160,97,47,120
299280,82,60,120
299400,97,47,120
299520,83,62,120
299640,97,47,120
299760,87,65,120
299880,97,48,120
300000,83,62,120
300120,97,47,120
300240,90,65,120
300360,97,46,120
300480,87,61,120
300600,97,48,120
300720,85,65,120
300840,97,47,120
300960,82,60,120
301080,97,47,120
301200,81,60,120
301320,97,47,120
301440,82,62,120
301560,97,47,120
301680,85,65,120
301800,97,48,120
301920,82,62,120
302040,97,47,120
302160,90,65,120
302280,97,46,120
302400,85,61,120
302520,97,48,120
302640,87,65,120
302760,97,47,120
302880,83,60,120
303000,97,47,120
303120,82,60,120
303240,97,47,120
303360,83,62,120
303480,97,47,120
303600,87,65,120
303720,97,48,120
303840,83,62,120
303960,97,47,120
304080,90,65,120
304200,97,46,120
304320,87,61,120
304440,97,48,120
304560,85,65,120
304680,97,47,120
304800,82,60,120
304920,97,47,120
305040,81,60,120
305160,97,47,120
305280,82,62,120
305400,97,47,120
305520,85,65,120
305640,97,48,120
305760,82,62,120
305880,97,47,120
306000,90,65,120
306120,97,46,120
306240,78,37,120
306480,56,42,120
306720,71,33,120
306960,61,36,120
307200,71,33,120
307380,58,50,60
307440,56,44,120
307680,71,33,120
307920,61,38,120
308160,71,33,120
308400,58,42,120
308640,70,33,120
308880,61,36,120
309120,70,33,120
309300,63,50,60
309360,61,55,120
309600,70,33,120
309840,61,38,120
310080,70,33,120
310320,59,55,120
310500,62,50,60
310560,71,33,60
310800,61,38,120
310980,58,50,60
311040,71,33,60
311280,56,44,120
311460,55,50,60
311520,71,33,60
311760,61,38,120
311940,52,50,60
312000,71,33,60
312240,58,44,120
312420,57,50,60
312480,70,33,60
312720,61,38,120
312900,53,50,60
312960,70,33,60
313200,58,44,120
313380,48,50,60
313440,70,33,60
313680,61,38,120
313920,70,33,60
314160,73,48,120
314400,75,50,120
314640,77,52,120
314880,78,55,120
315060,82,52,60
315120,80,57,120
315360,79,48,120
315600,80,52,120
315840,77,48,120
316080,78,48,120
316320,80,50,120
316560,82,52,120
316800,83,55,120
316980,90,52,60
317040,85,57,120
317280,84,48,120
317520,85,52,120
317760,82,48,120
318000,83,66,120
318003,56,44,120
318180,86,60,60
318240,87,55,60
318480,80,60,120
318660,82,60,60
318720,83,55,60
318960,77,66,120
319140,79,60,60
319200,80,55,60
319440,73,60,120
319620,76,60,60
319680,77,55,60
319920,78,66,120
320100,81,60,60
320160,82,55,60
320400,73,60,120
320580,77,60,60
320640,78,55,60
320880,70,66,120
321060,72,60,60
321120,73,55,60
321360,66,60,480
321600,61,33,60
321840,51,42,120
322080,66,33,120
322320,56,36,120
322560,66,33,120
322740,53,50,60
322800,51,44,120
323040,66,33,120
323280,56,38,120
323520,66,33,120
323760,53,42,120
324000,65,33,120
324240,56,36,120
324480,65,33,120
324660,58,50,60
324720,56,55,120
324960,65,33,120
325200,56,38,120
325440,65,33,120
325680,54,55,120
325860,57,50,60
325920,66,33,60
326160,56,38,120
326340,53,50,60
326400,66,33,60
326640,51,44,120
326820,50,50,60
326880,66,33,60
327120,56,38,120
327300,47,50,60
327360,66,33,60
327600,53,44,120
327780,52,50,60
327840,65,33,60
328080,56,38,120
328260,48,50,60
328320,65,33,60
328560,53,44,120
328740,43,50,60
328800,65,33,60
329040,56,38,120
329280,65,33,60
329520,80,52,120
329760,82,55,120
330000,84,57,120
330240,85,60,120
330480,87,62,120
330720,86,52,120
330960,87,57,120
331200,84,52,120
331440,85,52,120
331680,87,55,120
331920,89,57,120
332160,90,60,120
332400,92,62,120
332640,91,52,120
332880,92,57,120
333120,89,52,120
333360,90,72,120
333363,51,48,120
333540,93,66,60
333600,94,60,60
333840,87,66,120
334020,89,66,60
334080,90,60,60
334320,84,72,120
334500,86,66,60
334560,87,60,60
334800,80,66,120
334980,83,66,60
335040,84,60,60
335280,85,72,120
335460,88,66,60
335520,89,60,60
335760,80,66,120
335940,84,66,60
336000,85,60,60
336240,77,72,120
336420,79,66,60
336480,80,60,60
336720,73,66,480
336960,65,36,60
337200,92,59,120
337440,94,63,120
337680,96,65,120
337920,97,69,120
338160,99,78,120
338400,98,64,120
338640,99,71,120
338880,96,64,120
339120,97,64,120
339360,99,69,120
339600,101,71,120
339840,102,75,120
340080,104,78,120
340320,103,64,120
340560,104,71,120
340800,101,64,120
340980,93,82,60
341040,102,90,120
341043,51,60,120
341280,90,75,60
341460,89,82,60
341520,99,82,120
341760,90,75,60
341940,86,82,60
342000,96,90,120
342240,84,75,60
342420,83,82,60
342480,92,82,120
342720,80,75,60
342960,85,70,240
343200,86,72,240
343440,87,74,240
343680,88,78,240
343920,89,79,240
344160,88,77,240
344400,87,73,240
344640,86,70,240
344880,87,70,240
345120,88,72,240
345360,89,74,240
345600,90,78,240
345840,91,79,240
346080,90,77,240
346320,89,74,240
346560,88,71,240
346800,89,71,240
347040,90,73,240
347280,91,75,240
347520,92,79,240
347760,93,80,240
348000,92,79,240
348240,91,75,240
348480,90,72,240
348720,91,74,240
348960,92,76,240
349200,93,78,240
349440,94,82,240
349680,95,85,240
349920,96,88,240
350160,97,90,240
350400,98,93,240
350640,99,95,240
350880,100,100,240
351120,101,103,240
351360,100,101,240
351600,99,98,240
351840,98,97,240
352080,97,96,240
352320,96,95,240
352560,95,94,240
352800,94,93,240
353040,93,92,240
353280,94,90,240
353520,95,89,240
353760,96,92,240
354000,97,94,240
354240,98,96,240
354480,99,98,240
354720,100,101,240
354960,101,105,240
355200,100,101,240
355440,99,98,240
355680,98,97,240
355920,97,96,240
356160,96,95,240
356400,97,107,240
356640,96,99,240
356880,97,107,240
357120,96,99,240
357360,97,107,240
357600,84,81,260
357840,85,88,260
358080,84,81,260
358320,85,88,120
358560,73,74,260
358800,74,80,260
359040,75,72,240
359280,76,97,480
359520,71,79,120
359760,80,88,480
360000,76,79,120
360240,85,105,720
360480,80,79,120
360720,80,79,120
360960,83,96,120
361200,81,100,120
361440,80,92,120
361680,79,92,120
361860,66,72,180
361880,69,74,140
361900,73,76,140
361920,78,93,120
362160,77,92,120
362340,64,60,180
362360,69,64,160
362380,73,67,140
362400,76,80,120
362640,75,90,120
362820,64,65,180
362840,69,65,160
362860,73,65,140
362880,76,77,120
363120,76,97,480
363360,71,79,120
363600,80,88,480
363840,76,79,120
364080,85,105,720
364320,80,79,120
364560,80,79,120
364800,83,96,120
365040,81,95,120
365280,80,92,120
365520,78,92,120
365760,76,77,120
366000,81,93,480
366480,85,84,480
366960,92,57,120
367080,100,58,120
367200,95,59,120
367320,100,61,120
367440,92,63,120
367447,59,64,120
367560,100,64,120
367680,95,66,120
367800,100,67,120
367920,92,69,120
368040,100,70,120
368160,95,72,120
368280,100,72,120
368400,92,71,120
368520,100,70,120
368640,95,70,120
368760,100,69,120
368880,93,74,120
369000,100,67,120
369120,97,70,120
369240,100,66,120
369360,93,71,120
369480,100,65,120
369600,97,71,120
369720,100,64,120
369840,93,72,120
369960,100,63,120
370080,97,66,120
370200,100,60,120
370320,93,64,120
370440,100,59,120
370560,97,64,120
370680,100,58,120
370800,92,63,120
370920,100,63,120
371040,95,64,120
371160,100,65,120
371280,92,65,120
371287,59,67,120
371400,100,66,120
371520,95,67,120
371640,100,69,120
371760,92,69,120
371880,100,70,120
372000,95,72,120
372120,100,72,120
372240,92,71,120
372360,100,70,120
372480,95,70,120
372600,100,69,120
372720,93,74,120
372840,100,67,120
372960,97,70,120
373080,100,66,120
373200,93,71,120
373320,100,65,120
373440,97,71,120
373560,100,64,120
373680,93,72,120
373800,100,61,120
373920,97,64,120
374040,100,58,120
374160,93,60,120
374280,100,54,120
374400,97,59,120
374520,100,52,120
374640,98,71,60
374700,100,75,60
374760,102,79,40
374880,52,67,120
375120,95,71,60
375180,97,75,60
375240,98,80,40
375360,47,66,120
375600,92,71,60
375660,93,75,60
375720,95,80,40
375840,40,67,120
376080,88,71,60
376140,90,75,60
376200,92,80,40
376320,47,66,120
376560,69,66,68
376628,71,67,69
376697,73,68,68
376765,74,69,68
376800,52,67,120
376833,76,70,69
376902,78,71,68
376970,80,72,69
377039,81,73,68
377040,64,68,120
377107,83,74,68
377175,85,75,69
377244,86,76,68
377280,49,66,120
377312,88,77,69
377381,90,78,68
377449,92,79,71
377520,93,80,68
377588,95,81,69
377657,97,82,68
377725,98,84,68
377760,40,67,120
377793,100,85,69
377862,102,86,68
377930,104,87,69
378000,105,88,120
378240,97,71,120
378480,98,71,60
378540,100,75,60
378600,102,79,40
378720,52,67,120
378960,95,71,60
379020,97,75,60
379080,98,80,40
379200,47,66,120
379440,92,71,60
379500,93,75,60
379560,95,80,40
379680,40,67,120
379920,88,71,60
379980,90,75,60
380040,92,80,40
380160,47,66,120
380400,69,66,68
380468,71,67,69
380537,73,68,68
380605,74,69,68
380640,52,67,120
380673,76,70,69
380742,78,71,68
380810,80,72,69
380879,81,73,68
380880,64,68,120
380947,83,74,68
381015,85,75,69
381084,86,76,68
381120,49,66,120
381152,88,77,69
381221,90,78,68
381289,92,79,71
381360,93,80,68
381428,95,81,69
381497,97,82,68
381565,98,84,68
381600,40,67,120
381633,100,85,69
381702,102,86,68
381770,104,87,69
381840,105,88,120
382080,49,66,120
382320,95,71,60
382380,97,75,60
382440,99,79,40
382560,49,67,120
382800,92,71,60
382860,94,75,60
382920,95,80,40
383040,44,66,120
383280,89,71,60
383340,90,75,60
383400,92,80,40
383520,37,67,120
383760,85,71,60
383820,87,75,60
383880,89,80,40
384000,49,66,120
384240,66,66,68
384308,68,67,69
384377,70,68,68
384445,71,69,68
384480,49,67,120
384513,73,70,69
384582,75,71,68
384650,77,72,69
384719,78,73,68
384720,66,68,120
384787,80,74,68
384855,82,75,69
384924,83,76,68
384960,46,66,120
384992,85,77,69
385061,87,78,68
385129,89,79,71
385200,90,80,68
385268,92,81,69
385337,94,82,68
385405,95,84,68
385440,37,67,120
385473,97,85,69
385542,99,86,68
385610,101,87,69
385680,102,88,120
385920,94,71,120
386160,95,71,60
386220,97,75,60
386280,99,79,40
386400,49,67,120
386640,92,71,60
386700,94,75,60
386760,95,80,40
386880,44,66,120
387120,89,71,60
387180,90,75,60
387240,92,80,40
387360,37,67,120
387600,85,71,60
387660,87,75,60
387720,89,80,40
387840,49,66,120
388080,66,66,68
388148,68,67,69
388217,70,68,68
388285,71,69,68
388320,49,67,120
388353,73,70,69
388422,75,71,68
388490,77,72,69
388559,78,73,68
388560,66,68,120
388627,80,74,68
388695,82,75,69
388764,83,76,68
388800,46,66,120
388832,85,77,69
388901,87,78,68
388969,89,79,71
389040,90,80,96
389136,92,81,96
389232,94,82,96
389280,37,67,120
389328,95,84,96
389424,97,85,96
389520,99,88,96
389616,97,86,96
389712,96,80,96
389760,49,66,120
389808,97,86,96
389904,99,88,96
390000,101,89,120
390120,97,67,120
390240,97,83,150
390480,89,82,120
390600,97,66,120
390720,97,76,150
390960,101,80,120
391080,97,61,120
391200,97,78,150
391440,89,77,120
391560,97,63,120
391680,97,77,150
391800,73,37,120
391920,102,85,120
392040,97,64,120
392160,97,83,150
392400,90,82,120
392520,97,66,120
392640,97,76,150
392880,102,80,120
393000,97,61,120
393120,97,78,150
393360,90,77,120
393480,97,63,120
393600,97,77,150
393720,73,37,120
393840,101,87,120
393960,97,67,120
394080,97,83,150
394320,89,82,120
394440,97,66,120
394560,97,76,150
394800,101,80,120
394920,97,61,120
395040,97,78,150
395280,89,77,120
395400,97,63,120
395520,97,77,150
395640,73,37,120
395760,102,87,120
395880,97,67,120
396000,97,83,150
396240,90,82,120
396360,97,66,120
396480,97,76,150
396720,102,80,120
396840,97,61,120
396960,97,78,150
397200,90,77,120
397320,97,63,120
397440,97,77,150
397560,73,37,120
397680,101,89,120
397800,97,67,120
397920,97,83,150
398160,89,82,120
398280,97,66,120
398400,97,76,150
398640,101,80,120
398760,97,61,120
398880,97,78,150
399120,89,77,120
399240,97,63,120
399360,97,77,150
399480,73,37,120
399600,101,76,120
399720,97,57,120
399840,97,74,150
400080,89,73,120
400200,97,59,120
400320,97,68,150
400440,85,37,120
400560,101,72,120
400680,97,54,120
400800,97,70,150
401040,89,69,120
401160,97,56,120
401280,97,69,150
401400,85,37,120
401520,101,78,120
401640,97,60,120
401760,97,73,150
402000,89,71,120
402120,97,56,120
402240,97,65,150
402480,101,67,120
402600,97,50,120
402720,97,63,150
402960,89,62,120
403080,97,50,120
403200,97,60,150
403440,101,67,120
403560,97,51,120
403680,97,63,150
403920,89,60,120
404040,97,48,120
404160,97,55,150
404400,101,56,120
404520,97,42,120
404640,97,53,150
404880,89,52,120
405000,97,42,120
405120,97,50,150
405360,102,82,120
405600,70,36,120
405840,78,58,240
406080,70,36,120
406320,81,67,960
406560,69,36,120
406800,49,36,120
407040,69,36,120
407280,80,65,120
407520,71,36,120
407640,81,59,120
407760,83,65,120
408000,71,36,120
408120,86,70,120
408240,85,65,120
408480,71,36,120
408600,73,59,120
408720,75,65,120
408960,71,36,120
409080,77,60,60
409140,78,49,30
409170,80,50,30
409200,78,65,120
409440,70,36,120
409560,77,59,120
409680,78,65,120
409920,70,36,120
410040,80,70,120
410160,81,65,960
410400,69,36,120
410640,49,36,120
410880,69,36,120
411120,80,65,120
411360,71,36,120
411480,81,59,120
411600,83,65,120
411840,71,36,120
411960,86,70,120
412080,85,65,120
412320,71,36,120
412440,73,59,120
412560,75,65,120
412800,71,36,120
412920,77,60,60
412980,78,49,30
413010,80,50,30
413040,78,65,120
413280,70,36,120
413400,77,59,120
413520,78,65,120
413760,70,36,120
413880,80,70,60
413940,78,60,30
413970,80,60,30
414000,81,65,240
414240,69,36,120
414480,81,65,480
414720,69,36,120
414960,80,59,120
415200,71,36,120
415320,81,47,120
415440,83,53,120
415680,71,36,120
415800,86,57,120
415920,85,51,960
416880,37,39,90
417000,61,48,90
417120,39,41,90
417240,63,49,90
417360,41,42,90
417480,65,51,90
417600,42,44,90
417720,66,52,90
417840,49,46,90
417960,68,54,90
418080,43,44,90
418200,67,53,90
418320,44,43,90
418440,68,51,90
418560,41,41,90
418680,65,49,90
418800,42,39,90
418920,66,48,90
419040,44,41,90
419160,68,49,90
419280,46,42,90
419400,70,51,90
419520,47,44,90
419640,71,52,90
419760,54,46,90
419880,73,54,90
420000,48,44,90
420120,72,53,90
420240,49,43,90
420360,73,51,90
420480,46,41,90
420600,70,49,90
420720,47,49,90
420840,71,59,90
420960,51,43,90
421080,75,51,90
421200,44,50,90
421320,68,60,90
421440,47,46,90
421560,71,55,90
421680,41,50,90
421800,65,60,90
421920,44,44,90
422040,68,52,90
422160,37,51,90
422280,61,62,90
422400,41,47,90
422520,65,56,90
422640,42,51,90
422760,66,62,90
422880,46,45,90
423000,70,53,90
423120,37,53,90
423240,61,63,90
423360,42,48,90
423480,66,58,90
423600,34,52,90
423720,58,63,90
423840,37,46,90
423960,61,55,90
424080,42,54,90
424200,66,64,90
424320,46,50,90
424440,70,59,90
424560,49,44,120
424680,73,55,120
424800,51,47,120
424920,75,56,120
425040,53,48,120
425160,77,59,120
425280,54,51,120
425400,78,61,120
425520,56,54,120
425640,80,64,120
425760,55,52,120
425880,79,63,120
426000,56,51,120
426120,80,61,120
426240,53,49,120
426360,77,59,120
426480,54,47,120
426600,78,58,120
426720,56,50,120
426840,80,60,120
426960,58,52,120
427080,82,63,120
427200,59,55,120
427320,83,65,120
427440,61,57,120
427560,85,68,120
427680,60,55,120
427800,84,67,120
427920,61,55,120
428040,85,65,120
428160,58,52,120
428280,82,63,120
428400,61,50,120
428520,85,62,120
428640,63,53,120
428760,87,64,120
428880,65,55,120
429000,89,67,120
429120,66,58,120
429240,90,69,120
429360,68,61,120
429480,92,72,120
429600,67,58,120
429720,91,71,120
429840,68,58,120
429960,92,69,120
430080,65,55,120
430200,89,67,120
430320,66,53,120
430440,90,65,120
430560,68,56,120
430680,92,67,120
430800,70,58,120
430920,94,70,120
431040,71,61,120
431160,95,72,120
431280,73,64,120
431400,97,76,120
431520,72,62,120
431640,96,75,120
431760,73,61,120
431880,97,72,120
432000,70,59,120
432120,94,70,120
432240,71,68,120
432360,95,82,120
432480,75,59,120
432600,99,71,120
432720,68,69,120
432840,92,82,120
432960,71,63,120
433080,95,75,120
433200,65,69,120
433320,89,83,120
433440,68,60,120
433560,92,72,120
433680,61,71,120
433800,85,84,120
433920,65,64,120
434040,89,78,120
434160,58,70,120
434280,82,85,120
434400,61,61,120
434520,85,74,120
434640,54,72,120
434760,78,86,120
434880,58,66,120
435000,82,79,120
435120,51,72,120
435240,75,86,120
435360,54,62,120
435480,78,75,120
435600,47,73,120
435720,71,87,120
435840,51,68,120
435960,75,81,120
436080,44,73,120
436200,68,88,120
436320,47,64,120
436440,71,77,120
436560,41,75,120
436680,65,89,120
436800,44,69,120
436920,68,82,120
437040,37,74,120
437160,61,90,120
437280,41,65,120
437400,65,78,120
437520,34,76,120
437640,58,91,120
437760,37,70,120
437880,61,84,120
438000,42,76,120
438120,54,92,120
438240,46,66,120
438360,58,80,120
438480,39,77,120
438600,51,93,120
438720,42,71,120
438840,54,85,120
438960,47,103,240
439800,75,95,120
439920,75,101,360
440280,77,93,120
440400,77,101,360
440760,78,95,120
440880,78,101,960
441840,78,101,120
442320,102,101,120
442800,66,107,120
